<svg width="61" height="60" viewBox="0 0 61 60" fill="none" xmlns="http://www.w3.org/2000/svg">
<path d="M42.6875 30.4688C37.6437 30.4688 29.0938 31.5562 29.0938 35.625V50.625C29.0938 54.6937 37.6437 55.7812 42.6875 55.7812C47.7313 55.7812 56.2812 54.6937 56.2812 50.625V35.625C56.2812 31.5562 47.7313 30.4688 42.6875 30.4688ZM31.9062 43.0875V38.9625C34.85 40.3313 39.4625 40.8 42.6875 40.8C45.9125 40.8 50.5438 40.3312 53.4688 38.9438V43.0875C53.1875 43.7812 49.5875 45.4875 42.6875 45.4875C35.7875 45.4875 32.225 43.8 31.9062 43.1063V43.0875ZM42.6875 33.2812C49.5312 33.2812 53.1125 34.9688 53.45 35.6062C53.0938 36.3187 49.4938 37.9688 42.6875 37.9688C35.8813 37.9688 32.3938 36.3375 31.9438 35.625C32.3563 34.9125 35.9375 33.2812 42.6875 33.2812ZM42.6875 52.9688C35.7687 52.9688 32.1688 51.2438 31.9062 50.625V46.4438C34.85 47.8312 39.4625 48.2812 42.6875 48.2812C45.9125 48.2812 50.5438 47.8312 53.4688 46.4438V50.5687C53.2062 51.2437 49.5875 52.9688 42.6875 52.9688ZM18.3125 4.21875C13.2688 4.21875 4.71875 5.30625 4.71875 9.375V24.375C4.71875 28.4438 13.2688 29.5312 18.3125 29.5312C23.3563 29.5312 31.9062 28.4438 31.9062 24.375V9.375C31.9062 5.30625 23.3563 4.21875 18.3125 4.21875ZM7.53125 16.8375V12.7125C10.475 14.0813 15.0875 14.55 18.3125 14.55C21.5375 14.55 26.1688 14.0813 29.0938 12.6938V16.8375C28.8125 17.5312 25.2125 19.2375 18.3125 19.2375C11.4125 19.2375 7.85 17.55 7.53125 16.8562V16.8375ZM18.3125 7.03125C25.1562 7.03125 28.7375 8.71875 29.075 9.35625C28.7188 10.0687 25.1187 11.7188 18.3125 11.7188C11.5062 11.7188 8.01875 10.0875 7.56875 9.375C7.98125 8.6625 11.5625 7.03125 18.3125 7.03125ZM18.3125 26.7188C11.3937 26.7188 7.79375 24.9937 7.53125 24.375V20.1938C10.475 21.5813 15.0875 22.0312 18.3125 22.0312C21.5375 22.0312 26.1688 21.5813 29.0938 20.1938V24.3188C28.8312 24.9937 25.2125 26.7188 18.3125 26.7188ZM43.1562 27.6562C42.3875 27.6562 41.75 27.0187 41.75 26.25V15.4688C41.75 14.175 40.7 13.125 39.4062 13.125H36.125C35.3563 13.125 34.7188 12.4875 34.7188 11.7188C34.7188 10.95 35.3563 10.3125 36.125 10.3125H39.4062C42.2562 10.3125 44.5625 12.6187 44.5625 15.4688V26.25C44.5625 27.0187 43.925 27.6562 43.1562 27.6562ZM24.875 49.6875H21.5938C18.7437 49.6875 16.4375 47.3812 16.4375 44.5312V33.75C16.4375 32.9813 17.075 32.3438 17.8438 32.3438C18.6125 32.3438 19.25 32.9813 19.25 33.75V44.5312C19.25 45.825 20.3 46.875 21.5938 46.875H24.875C25.6437 46.875 26.2812 47.5125 26.2812 48.2812C26.2812 49.05 25.6437 49.6875 24.875 49.6875Z" fill="url(#paint0_linear_2015_223)"/>
<defs>
<linearGradient id="paint0_linear_2015_223" x1="30.4877" y1="55.8794" x2="30.4877" y2="24.6807" gradientUnits="userSpaceOnUse">
<stop stop-color="#51D9EF"/>
<stop offset="1" stop-color="#0E9AB1"/>
</linearGradient>
</defs>
</svg>
