<svg width="61" height="60" viewBox="0 0 61 60" fill="none" xmlns="http://www.w3.org/2000/svg">
<g clip-path="url(#clip0_2015_234)">
<path d="M50.0027 12.388H44.5238V14.9661H50.0027C51.5261 14.9661 52.7656 16.2056 52.7656 17.7291V39.3327L8.23438 39.4257V17.7292C8.23438 16.2057 9.47387 14.9662 10.9973 14.9662H16.4763V12.3881H10.9973C8.05227 12.388 5.65625 14.784 5.65625 17.7292V44.4175C5.65625 47.3625 8.05227 49.7585 10.9973 49.7585H24.2132V54.2441C24.2132 55.9964 22.7877 57.422 21.0354 57.422H19.1213C18.4094 57.422 17.8323 57.9991 17.8323 58.711C17.8323 59.423 18.4094 60.0001 19.1213 60.0001H41.8783C42.5902 60.0001 43.1674 59.423 43.1674 58.711C43.1674 57.9991 42.5902 57.422 41.8783 57.422H39.9643C38.212 57.422 36.7864 55.9964 36.7864 54.2441V49.7585H50.0023C52.9474 49.7585 55.3434 47.3625 55.3434 44.4175V17.7292C55.3438 14.784 52.9477 12.388 50.0027 12.388ZM35.1685 57.4219H25.8316C26.4375 56.5105 26.7915 55.418 26.7915 54.244V49.7584H34.2086V54.244C34.2085 55.418 34.5627 56.5105 35.1685 57.4219ZM50.0027 47.1803H10.9973C9.47387 47.1803 8.23438 45.9408 8.23438 44.4173V42.0039L52.7656 41.9108V44.4175C52.7656 45.9409 51.5261 47.1803 50.0027 47.1803Z" fill="url(#paint0_linear_2015_234)"/>
<path d="M21.9004 12.388H39.217V14.9661H21.9004V12.388Z" fill="url(#paint1_linear_2015_234)"/>
<path d="M45.813 15.6847V15.3128C45.813 6.8693 38.9438 0 30.5003 0C22.0568 0 15.1875 6.8693 15.1875 15.3128V15.6847C13.4279 16.2074 12.1406 17.8385 12.1406 19.7654V24.4819C12.1406 26.8291 14.0503 28.7388 16.3976 28.7388H21.6328C22.3447 28.7388 22.9219 28.1617 22.9219 27.4498V16.7977V15.3129C22.9219 11.134 26.3215 7.73438 30.5003 7.73438C34.6791 7.73438 38.0787 11.134 38.0787 15.3128V27.4417C37.7391 28.7651 36.5362 29.7462 35.1083 29.7462H34.1456C33.6135 28.2458 32.1806 27.168 30.5002 27.168C28.3678 27.168 26.633 28.9029 26.633 31.0352C26.633 33.1676 28.3678 34.9024 30.5002 34.9024C32.1806 34.9024 33.6135 33.8246 34.1456 32.3243H35.1083C37.4941 32.3243 39.5375 30.8355 40.3621 28.7388H44.6029C46.9501 28.7388 48.8598 26.8293 48.8598 24.4819V19.7654C48.8599 17.8385 47.5726 16.2075 45.813 15.6847ZM30.5003 32.3242C29.7895 32.3242 29.2112 31.7459 29.2112 31.0351C29.2112 30.3244 29.7895 29.7461 30.5003 29.7461C31.211 29.7461 31.7893 30.3244 31.7893 31.0351C31.7893 31.7459 31.211 32.3242 30.5003 32.3242ZM20.3437 26.1606H16.3976C15.4719 26.1606 14.7188 25.4075 14.7188 24.4818V19.7653C14.7188 18.8396 15.4719 18.0865 16.3976 18.0865H20.3437V26.1606ZM30.5003 5.15625C24.8999 5.15625 20.3437 9.71238 20.3437 15.3128V15.5085H17.7656V15.3128C17.7656 8.2909 23.4784 2.57812 30.5003 2.57812C37.5221 2.57812 43.2349 8.2909 43.2349 15.3128V15.5085H40.6568V15.3128C40.6568 9.71238 36.1007 5.15625 30.5003 5.15625ZM46.2818 24.4819C46.2818 25.4075 45.5286 26.1607 44.603 26.1607H40.6568V18.0867H44.603C45.5286 18.0867 46.2818 18.8398 46.2818 19.7655V24.4819Z" fill="url(#paint2_linear_2015_234)"/>
</g>
<defs>
<linearGradient id="paint0_linear_2015_234" x1="30.488" y1="60.0907" x2="30.488" y2="31.2823" gradientUnits="userSpaceOnUse">
<stop stop-color="#51D9EF"/>
<stop offset="1" stop-color="#0E9AB1"/>
</linearGradient>
<linearGradient id="paint1_linear_2015_234" x1="30.5546" y1="14.971" x2="30.5546" y2="13.4111" gradientUnits="userSpaceOnUse">
<stop stop-color="#51D9EF"/>
<stop offset="1" stop-color="#0E9AB1"/>
</linearGradient>
<linearGradient id="paint2_linear_2015_234" x1="30.4915" y1="34.9689" x2="30.4915" y2="13.8506" gradientUnits="userSpaceOnUse">
<stop stop-color="#51D9EF"/>
<stop offset="1" stop-color="#0E9AB1"/>
</linearGradient>
<clipPath id="clip0_2015_234">
<rect width="60" height="60" fill="white" transform="translate(0.5)"/>
</clipPath>
</defs>
</svg>
