<svg width="61" height="60" viewBox="0 0 61 60" fill="none" xmlns="http://www.w3.org/2000/svg">
<path d="M52.375 8.75H8.625C6.2125 8.75 4.25 10.7125 4.25 13.125V40.625C4.25 43.0375 6.2125 45 8.625 45H25.5V48.75H20.5C19.81 48.75 19.25 49.31 19.25 50C19.25 50.69 19.81 51.25 20.5 51.25H40.5C41.19 51.25 41.75 50.69 41.75 50C41.75 49.31 41.19 48.75 40.5 48.75H35.5V45H52.375C54.7875 45 56.75 43.0375 56.75 40.625V13.125C56.75 10.7125 54.7875 8.75 52.375 8.75ZM8.625 11.25H52.375C53.4087 11.25 54.25 12.0912 54.25 13.125V36.25H6.75V26.77L10.7213 30.7413C10.5825 31.0938 10.5 31.475 10.5 31.8762C10.5 33.5987 11.9025 35.0012 13.625 35.0012C15.3475 35.0012 16.75 33.5987 16.75 31.8762C16.75 31.4675 16.6663 31.0787 16.5225 30.7212L23.7812 21.0437C24.1225 21.1725 24.4888 21.2525 24.875 21.2525C25.2612 21.2525 25.6275 21.1737 25.9688 21.0437L33.2275 30.7238C33.085 31.0813 33.0012 31.4688 33.0012 31.8775C33.0012 33.6 34.4037 35.0025 36.1262 35.0025C37.8488 35.0025 39.2513 33.6 39.2513 31.8775C39.2513 31.4688 39.1675 31.0813 39.025 30.7238L45.935 21.5075C46.3687 21.7362 46.8537 21.8762 47.3763 21.8762C49.0988 21.8762 50.5013 20.4738 50.5013 18.7513C50.5013 17.0288 49.0988 15.6263 47.3763 15.6263C45.6537 15.6263 44.2513 17.0288 44.2513 18.7513C44.2513 18.9975 44.2875 19.2338 44.3413 19.4637L37.2213 28.9587C36.88 28.83 36.5138 28.75 36.1275 28.75C35.7413 28.75 35.375 28.8288 35.0338 28.9587L27.7762 19.28C27.92 18.9212 28.0037 18.5337 28.0037 18.125C28.0037 16.4025 26.6012 15 24.8787 15C23.1562 15 21.7537 16.4025 21.7537 18.125C21.7537 18.5337 21.8375 18.9225 21.9812 19.28L14.7225 28.9575C14.3813 28.8288 14.015 28.7488 13.6287 28.7488C13.2263 28.7488 12.845 28.8313 12.4913 28.97L6.75375 23.2325V13.1237C6.75375 12.09 7.595 11.2487 8.62875 11.2487L8.625 11.25ZM13.625 31.25C13.97 31.25 14.25 31.53 14.25 31.875C14.25 32.22 13.97 32.5 13.625 32.5C13.28 32.5 13 32.22 13 31.875C13 31.53 13.28 31.25 13.625 31.25ZM24.25 18.125C24.25 17.78 24.53 17.5 24.875 17.5C25.22 17.5 25.5 17.78 25.5 18.125C25.5 18.47 25.22 18.75 24.875 18.75C24.53 18.75 24.25 18.47 24.25 18.125ZM35.5 31.875C35.5 31.53 35.78 31.25 36.125 31.25C36.47 31.25 36.75 31.53 36.75 31.875C36.75 32.22 36.47 32.5 36.125 32.5C35.78 32.5 35.5 32.22 35.5 31.875ZM46.75 18.75C46.75 18.405 47.03 18.125 47.375 18.125C47.72 18.125 48 18.405 48 18.75C48 19.095 47.72 19.375 47.375 19.375C47.03 19.375 46.75 19.095 46.75 18.75ZM33 48.75H28V45H33V48.75ZM52.375 42.5H8.625C7.59125 42.5 6.75 41.6587 6.75 40.625V38.75H54.25V40.625C54.25 41.6587 53.4087 42.5 52.375 42.5Z" fill="url(#paint0_linear_2015_490)"/>
<defs>
<linearGradient id="paint0_linear_2015_490" x1="30.4875" y1="51.3309" x2="30.4875" y2="25.6156" gradientUnits="userSpaceOnUse">
<stop stop-color="#51D9EF"/>
<stop offset="1" stop-color="#0E9AB1"/>
</linearGradient>
</defs>
</svg>
