<svg width="61" height="60" viewBox="0 0 61 60" fill="none" xmlns="http://www.w3.org/2000/svg">
<path d="M52.375 8.75122H8.625C6.2125 8.75122 4.25 10.7137 4.25 13.1262V40.6262C4.25 43.0387 6.2125 45.0012 8.625 45.0012H25.5V48.7512H20.5C19.8088 48.7512 19.25 49.3112 19.25 50.0012C19.25 50.6912 19.8088 51.2512 20.5 51.2512H40.5C41.1912 51.2512 41.75 50.6912 41.75 50.0012C41.75 49.3112 41.1912 48.7512 40.5 48.7512H35.5V45.0012H52.375C54.7875 45.0012 56.75 43.0387 56.75 40.6262V13.1262C56.75 10.7137 54.7875 8.75122 52.375 8.75122ZM8.625 11.2512H52.375C53.4087 11.2512 54.25 12.0925 54.25 13.1262V36.2512H6.75V13.1262C6.75 12.0925 7.59125 11.2512 8.625 11.2512ZM33 48.7512H28V45.0012H33V48.7512ZM52.375 42.5012H8.625C7.59125 42.5012 6.75 41.66 6.75 40.6262V38.7512H54.25V40.6262C54.25 41.66 53.4087 42.5012 52.375 42.5012ZM25.8662 28.3837C25.3775 27.895 25.3775 27.105 25.8662 26.6162C26.355 26.1275 27.145 26.1275 27.6338 26.6162L29.25 28.2325V17.5C29.25 16.81 29.8088 16.25 30.5 16.25C31.1912 16.25 31.75 16.81 31.75 17.5V28.2325L33.3662 26.6162C33.855 26.1275 34.645 26.1275 35.1338 26.6162C35.6225 27.105 35.6225 27.895 35.1338 28.3837L31.8263 31.6912C31.4613 32.0562 30.98 32.2387 30.5 32.2387C30.02 32.2387 29.5387 32.0562 29.1737 31.6912L25.8662 28.3837Z" fill="url(#paint0_linear_2015_42)"/>
<defs>
<linearGradient id="paint0_linear_2015_42" x1="30.4875" y1="51.3321" x2="30.4875" y2="25.6168" gradientUnits="userSpaceOnUse">
<stop stop-color="#51D9EF"/>
<stop offset="1" stop-color="#0E9AB1"/>
</linearGradient>
</defs>
</svg>
