<svg width="60" height="60" viewBox="0 0 60 60" fill="none" xmlns="http://www.w3.org/2000/svg">
<path d="M51.875 8.75H8.125C5.7125 8.75 3.75 10.7125 3.75 13.125V40.625C3.75 43.0375 5.7125 45 8.125 45H25V48.75H20C19.31 48.75 18.75 49.31 18.75 50C18.75 50.69 19.31 51.25 20 51.25H40C40.69 51.25 41.25 50.69 41.25 50C41.25 49.31 40.69 48.75 40 48.75H35V45H51.875C54.2875 45 56.25 43.0375 56.25 40.625V13.125C56.25 10.7125 54.2875 8.75 51.875 8.75ZM8.125 11.25H51.875C52.9087 11.25 53.75 12.0912 53.75 13.125V36.25H6.25V26.77L10.2213 30.7413C10.0825 31.0938 10 31.475 10 31.8762C10 33.5987 11.4025 35.0012 13.125 35.0012C14.8475 35.0012 16.25 33.5987 16.25 31.8762C16.25 31.4675 16.1663 31.0787 16.0225 30.7212L23.2812 21.0437C23.6225 21.1725 23.9888 21.2525 24.375 21.2525C24.7612 21.2525 25.1275 21.1737 25.4688 21.0437L32.7275 30.7238C32.585 31.0813 32.5012 31.4688 32.5012 31.8775C32.5012 33.6 33.9037 35.0025 35.6262 35.0025C37.3488 35.0025 38.7513 33.6 38.7513 31.8775C38.7513 31.4688 38.6675 31.0813 38.525 30.7238L45.435 21.5075C45.8687 21.7362 46.3537 21.8762 46.8763 21.8762C48.5988 21.8762 50.0013 20.4738 50.0013 18.7513C50.0013 17.0288 48.5988 15.6263 46.8763 15.6263C45.1537 15.6263 43.7513 17.0288 43.7513 18.7513C43.7513 18.9975 43.7875 19.2338 43.8413 19.4637L36.7213 28.9587C36.38 28.83 36.0138 28.75 35.6275 28.75C35.2413 28.75 34.875 28.8288 34.5338 28.9587L27.2762 19.28C27.42 18.9212 27.5037 18.5337 27.5037 18.125C27.5037 16.4025 26.1012 15 24.3787 15C22.6562 15 21.2537 16.4025 21.2537 18.125C21.2537 18.5337 21.3375 18.9225 21.4812 19.28L14.2225 28.9575C13.8813 28.8288 13.515 28.7488 13.1287 28.7488C12.7263 28.7488 12.345 28.8313 11.9913 28.97L6.25375 23.2325V13.1237C6.25375 12.09 7.095 11.2487 8.12875 11.2487L8.125 11.25ZM13.125 31.25C13.47 31.25 13.75 31.53 13.75 31.875C13.75 32.22 13.47 32.5 13.125 32.5C12.78 32.5 12.5 32.22 12.5 31.875C12.5 31.53 12.78 31.25 13.125 31.25ZM23.75 18.125C23.75 17.78 24.03 17.5 24.375 17.5C24.72 17.5 25 17.78 25 18.125C25 18.47 24.72 18.75 24.375 18.75C24.03 18.75 23.75 18.47 23.75 18.125ZM35 31.875C35 31.53 35.28 31.25 35.625 31.25C35.97 31.25 36.25 31.53 36.25 31.875C36.25 32.22 35.97 32.5 35.625 32.5C35.28 32.5 35 32.22 35 31.875ZM46.25 18.75C46.25 18.405 46.53 18.125 46.875 18.125C47.22 18.125 47.5 18.405 47.5 18.75C47.5 19.095 47.22 19.375 46.875 19.375C46.53 19.375 46.25 19.095 46.25 18.75ZM32.5 48.75H27.5V45H32.5V48.75ZM51.875 42.5H8.125C7.09125 42.5 6.25 41.6587 6.25 40.625V38.75H53.75V40.625C53.75 41.6587 52.9087 42.5 51.875 42.5Z" fill="url(#paint0_linear_239_3964)"/>
<defs>
<linearGradient id="paint0_linear_239_3964" x1="29.9875" y1="51.3309" x2="29.9875" y2="25.6156" gradientUnits="userSpaceOnUse">
<stop stop-color="#51D9EF"/>
<stop offset="1" stop-color="#0E9AB1"/>
</linearGradient>
</defs>
</svg>
