<svg width="60" height="60" viewBox="0 0 60 60" fill="none" xmlns="http://www.w3.org/2000/svg">
<path d="M51.875 8.75146H8.125C5.7125 8.75146 3.75 10.714 3.75 13.1265V40.6265C3.75 43.039 5.7125 45.0015 8.125 45.0015H25V48.7515H20C19.3088 48.7515 18.75 49.3115 18.75 50.0015C18.75 50.6915 19.3088 51.2515 20 51.2515H40C40.6912 51.2515 41.25 50.6915 41.25 50.0015C41.25 49.3115 40.6912 48.7515 40 48.7515H35V45.0015H51.875C54.2875 45.0015 56.25 43.039 56.25 40.6265V13.1265C56.25 10.714 54.2875 8.75146 51.875 8.75146ZM8.125 11.2515H51.875C52.9087 11.2515 53.75 12.0927 53.75 13.1265V36.2515H6.25V13.1265C6.25 12.0927 7.09125 11.2515 8.125 11.2515ZM32.5 48.7515H27.5V45.0015H32.5V48.7515ZM51.875 42.5015H8.125C7.09125 42.5015 6.25 41.6602 6.25 40.6265V38.7515H53.75V40.6265C53.75 41.6602 52.9087 42.5015 51.875 42.5015ZM25.3662 28.384C24.8775 27.8952 24.8775 27.1052 25.3662 26.6165C25.855 26.1277 26.645 26.1277 27.1338 26.6165L28.75 28.2327V17.5002C28.75 16.8102 29.3088 16.2502 30 16.2502C30.6912 16.2502 31.25 16.8102 31.25 17.5002V28.2327L32.8662 26.6165C33.355 26.1277 34.145 26.1277 34.6338 26.6165C35.1225 27.1052 35.1225 27.8952 34.6338 28.384L31.3263 31.6915C30.9613 32.0565 30.48 32.239 30 32.239C29.52 32.239 29.0387 32.0565 28.6737 31.6915L25.3662 28.384Z" fill="url(#paint0_linear_239_3869)"/>
<defs>
<linearGradient id="paint0_linear_239_3869" x1="29.9875" y1="51.3324" x2="29.9875" y2="25.6171" gradientUnits="userSpaceOnUse">
<stop stop-color="#51D9EF"/>
<stop offset="1" stop-color="#0E9AB1"/>
</linearGradient>
</defs>
</svg>
