<svg width="60" height="60" viewBox="0 0 60 60" fill="none" xmlns="http://www.w3.org/2000/svg">
<g clip-path="url(#clip0_239_3926)">
<path d="M49.5027 12.3877H44.0238V14.9658H49.5027C51.0261 14.9658 52.2656 16.2053 52.2656 17.7287V39.3324L7.73438 39.4254V17.7289C7.73438 16.2054 8.97387 14.9659 10.4973 14.9659H15.9763V12.3878H10.4973C7.55227 12.3877 5.15625 14.7837 5.15625 17.7289V44.4171C5.15625 47.3622 7.55227 49.7582 10.4973 49.7582H23.7132V54.2438C23.7132 55.9961 22.2877 57.4217 20.5354 57.4217H18.6213C17.9094 57.4217 17.3323 57.9988 17.3323 58.7107C17.3323 59.4227 17.9094 59.9998 18.6213 59.9998H41.3783C42.0902 59.9998 42.6674 59.4227 42.6674 58.7107C42.6674 57.9988 42.0902 57.4217 41.3783 57.4217H39.4643C37.712 57.4217 36.2864 55.9961 36.2864 54.2438V49.7582H49.5023C52.4474 49.7582 54.8434 47.3622 54.8434 44.4171V17.7289C54.8438 14.7837 52.4477 12.3877 49.5027 12.3877ZM34.6685 57.4216H25.3316C25.9375 56.5102 26.2915 55.4177 26.2915 54.2437V49.7581H33.7086V54.2437C33.7085 55.4177 34.0627 56.5102 34.6685 57.4216ZM49.5027 47.18H10.4973C8.97387 47.18 7.73438 45.9405 7.73438 44.417V42.0036L52.2656 41.9105V44.4171C52.2656 45.9406 51.0261 47.18 49.5027 47.18Z" fill="url(#paint0_linear_239_3926)"/>
<path d="M21.4004 12.3877H38.717V14.9658H21.4004V12.3877Z" fill="url(#paint1_linear_239_3926)"/>
<path d="M45.3126 15.6847V15.3128C45.3126 6.8693 38.4433 0 29.9998 0C21.5563 0 14.687 6.8693 14.687 15.3128V15.6847C12.9274 16.2074 11.6401 17.8385 11.6401 19.7654V24.4819C11.6401 26.8291 13.5498 28.7388 15.8971 28.7388H21.1323C21.8442 28.7388 22.4214 28.1617 22.4214 27.4498V16.7977V15.3129C22.4214 11.134 25.821 7.73438 29.9998 7.73438C34.1786 7.73438 37.5782 11.134 37.5782 15.3128V27.4417C37.2386 28.7651 36.0358 29.7462 34.6078 29.7462H33.6451C33.113 28.2458 31.6801 27.168 29.9997 27.168C27.8673 27.168 26.1325 28.9029 26.1325 31.0352C26.1325 33.1676 27.8673 34.9024 29.9997 34.9024C31.6801 34.9024 33.113 33.8246 33.6451 32.3243H34.6078C36.9937 32.3243 39.0371 30.8355 39.8616 28.7388H44.1024C46.4496 28.7388 48.3593 26.8293 48.3593 24.4819V19.7654C48.3594 17.8385 47.0721 16.2075 45.3126 15.6847ZM29.9998 32.3242C29.289 32.3242 28.7107 31.7459 28.7107 31.0351C28.7107 30.3244 29.289 29.7461 29.9998 29.7461C30.7105 29.7461 31.2888 30.3244 31.2888 31.0351C31.2888 31.7459 30.7105 32.3242 29.9998 32.3242ZM19.8433 26.1606H15.8971C14.9714 26.1606 14.2183 25.4075 14.2183 24.4818V19.7653C14.2183 18.8396 14.9714 18.0865 15.8971 18.0865H19.8433V26.1606ZM29.9998 5.15625C24.3994 5.15625 19.8433 9.71238 19.8433 15.3128V15.5085H17.2651V15.3128C17.2651 8.2909 22.9779 2.57812 29.9998 2.57812C37.0217 2.57812 42.7344 8.2909 42.7344 15.3128V15.5085H40.1563V15.3128C40.1563 9.71238 35.6002 5.15625 29.9998 5.15625ZM45.7813 24.4819C45.7813 25.4075 45.0281 26.1607 44.1025 26.1607H40.1563V18.0867H44.1025C45.0281 18.0867 45.7813 18.8398 45.7813 19.7655V24.4819Z" fill="url(#paint2_linear_239_3926)"/>
</g>
<defs>
<linearGradient id="paint0_linear_239_3926" x1="29.988" y1="60.0904" x2="29.988" y2="31.282" gradientUnits="userSpaceOnUse">
<stop stop-color="#51D9EF"/>
<stop offset="1" stop-color="#0E9AB1"/>
</linearGradient>
<linearGradient id="paint1_linear_239_3926" x1="30.0546" y1="14.9707" x2="30.0546" y2="13.4108" gradientUnits="userSpaceOnUse">
<stop stop-color="#51D9EF"/>
<stop offset="1" stop-color="#0E9AB1"/>
</linearGradient>
<linearGradient id="paint2_linear_239_3926" x1="29.991" y1="34.9689" x2="29.991" y2="13.8506" gradientUnits="userSpaceOnUse">
<stop stop-color="#51D9EF"/>
<stop offset="1" stop-color="#0E9AB1"/>
</linearGradient>
<clipPath id="clip0_239_3926">
<rect width="60" height="60" fill="white"/>
</clipPath>
</defs>
</svg>
