<svg width="60" height="60" viewBox="0 0 60 60" fill="none" xmlns="http://www.w3.org/2000/svg">
<path d="M42.1875 30.4688C37.1437 30.4688 28.5938 31.5562 28.5938 35.625V50.625C28.5938 54.6937 37.1437 55.7812 42.1875 55.7812C47.2313 55.7812 55.7812 54.6937 55.7812 50.625V35.625C55.7812 31.5562 47.2313 30.4688 42.1875 30.4688ZM31.4062 43.0875V38.9625C34.35 40.3313 38.9625 40.8 42.1875 40.8C45.4125 40.8 50.0438 40.3312 52.9688 38.9438V43.0875C52.6875 43.7812 49.0875 45.4875 42.1875 45.4875C35.2875 45.4875 31.725 43.8 31.4062 43.1063V43.0875ZM42.1875 33.2812C49.0312 33.2812 52.6125 34.9688 52.95 35.6062C52.5938 36.3187 48.9938 37.9688 42.1875 37.9688C35.3813 37.9688 31.8938 36.3375 31.4438 35.625C31.8563 34.9125 35.4375 33.2812 42.1875 33.2812ZM42.1875 52.9688C35.2687 52.9688 31.6688 51.2438 31.4062 50.625V46.4438C34.35 47.8312 38.9625 48.2812 42.1875 48.2812C45.4125 48.2812 50.0438 47.8312 52.9688 46.4438V50.5687C52.7062 51.2437 49.0875 52.9688 42.1875 52.9688ZM17.8125 4.21875C12.7688 4.21875 4.21875 5.30625 4.21875 9.375V24.375C4.21875 28.4438 12.7688 29.5312 17.8125 29.5312C22.8563 29.5312 31.4062 28.4438 31.4062 24.375V9.375C31.4062 5.30625 22.8563 4.21875 17.8125 4.21875ZM7.03125 16.8375V12.7125C9.975 14.0813 14.5875 14.55 17.8125 14.55C21.0375 14.55 25.6688 14.0813 28.5938 12.6938V16.8375C28.3125 17.5312 24.7125 19.2375 17.8125 19.2375C10.9125 19.2375 7.35 17.55 7.03125 16.8562V16.8375ZM17.8125 7.03125C24.6562 7.03125 28.2375 8.71875 28.575 9.35625C28.2188 10.0687 24.6187 11.7188 17.8125 11.7188C11.0062 11.7188 7.51875 10.0875 7.06875 9.375C7.48125 8.6625 11.0625 7.03125 17.8125 7.03125ZM17.8125 26.7188C10.8937 26.7188 7.29375 24.9937 7.03125 24.375V20.1938C9.975 21.5813 14.5875 22.0312 17.8125 22.0312C21.0375 22.0312 25.6688 21.5813 28.5938 20.1938V24.3188C28.3312 24.9937 24.7125 26.7188 17.8125 26.7188ZM42.6562 27.6562C41.8875 27.6562 41.25 27.0187 41.25 26.25V15.4688C41.25 14.175 40.2 13.125 38.9062 13.125H35.625C34.8563 13.125 34.2188 12.4875 34.2188 11.7188C34.2188 10.95 34.8563 10.3125 35.625 10.3125H38.9062C41.7562 10.3125 44.0625 12.6187 44.0625 15.4688V26.25C44.0625 27.0187 43.425 27.6562 42.6562 27.6562ZM24.375 49.6875H21.0938C18.2437 49.6875 15.9375 47.3812 15.9375 44.5312V33.75C15.9375 32.9813 16.575 32.3438 17.3438 32.3438C18.1125 32.3438 18.75 32.9813 18.75 33.75V44.5312C18.75 45.825 19.8 46.875 21.0938 46.875H24.375C25.1437 46.875 25.7812 47.5125 25.7812 48.2812C25.7812 49.05 25.1437 49.6875 24.375 49.6875Z" fill="url(#paint0_linear_239_4011)"/>
<defs>
<linearGradient id="paint0_linear_239_4011" x1="29.9877" y1="55.8794" x2="29.9877" y2="24.6807" gradientUnits="userSpaceOnUse">
<stop stop-color="#51D9EF"/>
<stop offset="1" stop-color="#0E9AB1"/>
</linearGradient>
</defs>
</svg>
