<svg width="32" height="32" viewBox="0 0 32 32" fill="none" xmlns="http://www.w3.org/2000/svg">
<path d="M18.7724 22.081C19.0327 22.3414 19.0327 22.7634 18.7724 23.0238L15.4059 26.3903L13.2275 24.2119C12.9671 23.9515 12.9671 23.5294 13.2275 23.269C13.4878 23.0087 13.91 23.0087 14.1703 23.269L15.4059 24.5047L17.8296 22.081C18.0899 21.8207 18.512 21.8207 18.7724 22.081Z" fill="#11C4E2"/>
<path fill-rule="evenodd" clip-rule="evenodd" d="M10.6667 24H6.66666C5.19392 24 4 22.8061 4 21.3333V5.3333C4 3.86053 5.19392 2.66663 6.66666 2.66663H25.3333C26.8061 2.66663 28 3.86053 28 5.3333V21.3333C28 22.8061 26.8061 24 25.3333 24H21.3333C21.3333 26.9455 18.9455 29.3333 16 29.3333C13.0545 29.3333 10.6667 26.9455 10.6667 24ZM20 3.99995H25.3333C26.0697 3.99995 26.6667 4.59691 26.6667 5.3333V21.3333C26.6667 22.0697 26.0697 22.6666 25.3333 22.6666H21.1653C20.5732 20.3663 18.4851 18.6666 16 18.6666C13.5149 18.6666 11.4268 20.3663 10.8347 22.6666H6.66666C5.93027 22.6666 5.33334 22.0697 5.33334 21.3333V5.3333C5.33334 4.59691 5.93027 3.99995 6.66666 3.99995H12V12.0376L16 10.5378L20 12.0376V3.99995ZM18.6667 3.99995H13.3333V10.1137L16 9.11391L18.6667 10.1137V3.99995ZM16 28C18.2092 28 20 26.2091 20 24C20 21.7908 18.2092 20 16 20C13.7908 20 12 21.7908 12 24C12 26.2091 13.7908 28 16 28Z" fill="#11C4E2"/>
</svg>
