<svg width="41" height="40" viewBox="0 0 41 40" fill="none" xmlns="http://www.w3.org/2000/svg">
<path d="M4.50339 29.2C4.35089 29.265 4.23026 29.3875 4.16839 29.5413C4.10651 29.695 4.10776 29.8669 4.17339 30.0194L6.92089 36.4731C7.05651 36.7906 7.42339 36.9388 7.74089 36.8031L9.87464 35.895L20.6446 38.7156C20.8521 38.77 21.0653 38.7969 21.2784 38.7969C21.6153 38.7969 21.9515 38.7294 22.2628 38.5969L34.6978 33.3032C35.9703 32.7613 36.5646 31.2857 36.0234 30.0119C35.4815 28.7394 34.0053 28.145 32.7328 28.6869L24.3028 32.2763C24.0796 31.6681 23.6103 31.1532 22.9634 30.8925L17.9771 28.8844C17.9415 28.87 17.9071 28.8538 17.8721 28.835L14.2528 26.9113C13.0159 26.2544 11.5678 26.1919 10.2803 26.7407L4.50339 29.2ZM13.6659 28.015L17.2846 29.9388C17.359 29.9782 17.4353 30.0144 17.5121 30.045L22.4959 32.0525C23.069 32.2832 23.3471 32.9369 23.1165 33.51C22.8859 34.0832 22.2309 34.3632 21.6596 34.1307L17.1015 32.2944C16.7809 32.1657 16.4178 32.32 16.2878 32.6406C16.159 32.9606 16.314 33.325 16.634 33.4538L21.1921 35.29C22.4046 35.7769 23.7878 35.1888 24.2765 33.9769C24.3271 33.8513 24.3659 33.7244 24.394 33.5969L33.2228 29.8375C33.8621 29.5669 34.6015 29.8638 34.874 30.5025C35.1459 31.1413 34.8471 31.8819 34.209 32.1538L21.774 37.4481C21.519 37.5569 21.2321 37.5782 20.9621 37.5075L9.98526 34.6325C9.93339 34.6188 9.88026 34.6119 9.82714 34.6119C9.74339 34.6119 9.66026 34.6288 9.58214 34.6619L7.82651 35.4088L5.56839 30.105L10.7703 27.8907C11.709 27.4907 12.7646 27.5363 13.6659 28.015Z" fill="#11C4E2"/>
<path d="M11.417 16.5063C10.9989 17.2088 10.9039 18.0569 11.1564 18.835C11.4089 19.6131 11.9845 20.2438 12.7357 20.5663L13.8164 21.03C14.352 21.26 14.7176 21.7638 14.7707 22.3444L14.8776 23.5156C14.9526 24.33 15.3745 25.0725 16.0364 25.5531C16.6976 26.0338 17.5339 26.2069 18.3314 26.0244L19.4789 25.7644C20.0464 25.6344 20.6395 25.8281 21.0239 26.2663L21.7982 27.1506C22.3364 27.7656 23.1145 28.1188 23.932 28.1188C24.7495 28.1188 25.5282 27.7663 26.0664 27.1506L26.8407 26.2663C27.2245 25.8275 27.817 25.6338 28.3864 25.7644L29.5332 26.0244C30.3282 26.205 31.167 26.0331 31.8289 25.5525C32.4907 25.0719 32.912 24.3288 32.987 23.515L33.0939 22.3444C33.147 21.7638 33.5126 21.26 34.0489 21.03L35.1295 20.5663C35.8808 20.2438 36.4564 19.6131 36.7089 18.8356C36.9614 18.0581 36.8664 17.2088 36.4482 16.5063L35.8464 15.4963C35.5476 14.995 35.5476 14.3725 35.8464 13.8713L36.4482 12.8613C36.8664 12.1581 36.9614 11.3094 36.7089 10.5319C36.4564 9.75439 35.8801 9.12376 35.1295 8.80126L34.0489 8.33814C33.5126 8.10814 33.147 7.60439 33.0939 7.02376L32.987 5.85251C32.9126 5.03814 32.4907 4.29564 31.8289 3.81501C31.167 3.33439 30.3314 3.16251 29.5326 3.34376L28.3864 3.60376C27.8176 3.73376 27.2264 3.54001 26.8407 3.10189L26.0664 2.21689C25.5276 1.60251 24.7501 1.24939 23.932 1.24939C23.1139 1.24939 22.337 1.60189 21.7982 2.21689L21.0239 3.10126C20.6389 3.54064 20.047 3.73126 19.4782 3.60376L18.332 3.34376C17.5339 3.16189 16.6989 3.33439 16.037 3.81501C15.3745 4.29564 14.9532 5.03814 14.8782 5.85251L14.7714 7.02376C14.7182 7.60439 14.3526 8.10814 13.8176 8.33814L12.7364 8.80126C11.9857 9.12376 11.4095 9.75439 11.157 10.5319C10.9045 11.3094 10.9995 12.1588 11.4176 12.8613L12.0195 13.8713C12.3182 14.3725 12.3182 14.995 12.0195 15.4963L11.4176 16.5063H11.417ZM12.3451 10.9188C12.487 10.4838 12.8082 10.1306 13.2282 9.95064L14.3095 9.48752C15.267 9.07627 15.9207 8.17626 16.0157 7.13814L16.1226 5.96751C16.1639 5.51189 16.4001 5.09626 16.7707 4.82751C17.1407 4.55876 17.6089 4.46314 18.0551 4.56376L19.2014 4.82376C20.217 5.05439 21.2757 4.71126 21.9632 3.92626L22.7376 3.04189C23.3407 2.35314 24.5226 2.35376 25.1257 3.04189L25.9001 3.92689C26.587 4.71126 27.6439 5.05689 28.6626 4.82439L29.8089 4.56439C30.2533 4.46376 30.7232 4.55939 31.0933 4.82814C31.4632 5.09689 31.6995 5.51251 31.7407 5.96751L31.8476 7.13876C31.9426 8.17752 32.5964 9.07751 33.5545 9.48814L34.6351 9.95127C35.0557 10.1319 35.3776 10.4844 35.5189 10.9194C35.6607 11.3544 35.6076 11.83 35.3732 12.2225L34.7714 13.2325C34.2376 14.1281 34.2376 15.2406 34.7714 16.1363L35.3732 17.1463C35.6076 17.5394 35.6607 18.0144 35.5189 18.4494C35.3776 18.8844 35.0557 19.2369 34.6351 19.4175L33.5545 19.8813C32.5964 20.2919 31.9426 21.1925 31.8476 22.2306L31.7407 23.4013C31.6995 23.8569 31.4639 24.2719 31.0933 24.5406C30.7232 24.8094 30.2533 24.905 29.8089 24.805L28.6626 24.545C27.6439 24.3138 26.587 24.6581 25.9001 25.4425L25.1257 26.3269C24.5226 27.0144 23.3407 27.015 22.7376 26.3269L21.9632 25.4419C21.2764 24.6581 20.2176 24.3144 19.202 24.545L18.0551 24.805C17.6064 24.9063 17.1407 24.8094 16.7707 24.5413C16.4001 24.2725 16.1639 23.8569 16.1226 23.4013L16.0157 22.2306C15.9207 21.1925 15.267 20.2919 14.3095 19.8813L13.2289 19.4175C12.8082 19.2369 12.4864 18.8838 12.3451 18.4494C12.2039 18.0144 12.257 17.5394 12.4907 17.1469L13.0926 16.1369C13.6264 15.2413 13.6264 14.1288 13.0926 13.2331L12.4907 12.2231C12.2564 11.83 12.2032 11.355 12.3451 10.92V10.9188Z" fill="#11C4E2"/>
<path d="M23.9328 23.4612C28.7721 23.4612 32.7096 19.5237 32.7096 14.6837C32.7096 9.84374 28.7721 5.90686 23.9328 5.90686C19.0934 5.90686 15.1553 9.84436 15.1553 14.6837C15.1553 19.5231 19.0928 23.4612 23.9328 23.4612ZM23.9328 7.15624C28.0834 7.15624 31.4596 10.5331 31.4596 14.6831C31.4596 18.8331 28.0834 22.2106 23.9328 22.2106C19.7821 22.2106 16.4053 18.8337 16.4053 14.6831C16.4053 10.5325 19.7821 7.15624 23.9328 7.15624Z" fill="#11C4E2"/>
<path d="M22.7086 17.3099C22.8305 17.4318 22.9905 17.4931 23.1505 17.4931C23.3105 17.4931 23.4705 17.4318 23.5924 17.3099L27.9618 12.9406C28.2061 12.6962 28.2061 12.3012 27.9618 12.0568C27.7174 11.8124 27.3224 11.8124 27.078 12.0568L23.1505 15.9843L20.7868 13.6206C20.5424 13.3762 20.1474 13.3762 19.903 13.6206C19.6586 13.8649 19.6586 14.2599 19.903 14.5043L22.7086 17.3099Z" fill="#11C4E2"/>
</svg>
