<svg width="32" height="32" viewBox="0 0 32 32" fill="none" xmlns="http://www.w3.org/2000/svg">
<path d="M16.8449 2.53676C16.6912 2.20918 16.3619 2 16 2C15.6381 2 15.3089 2.20918 15.1551 2.53676L11.3289 10.6885L2.79239 11.9927C2.44658 12.0456 2.15935 12.2873 2.0483 12.6191C1.93725 12.9508 2.02102 13.3168 2.26532 13.5672L8.46971 19.9262L7.00321 28.9164C6.94567 29.2692 7.09463 29.6238 7.38686 29.8297C7.67904 30.0355 8.0631 30.0564 8.37591 29.8835L14.5787 26.4547C14.302 25.8944 14.0827 25.3007 13.9286 24.6812L9.15496 27.32L10.3878 19.7618C10.4355 19.4694 10.3416 19.1718 10.1347 18.9597L4.86987 13.5637L12.1032 12.4585C12.4108 12.4115 12.6748 12.2142 12.8071 11.9325L16 5.12994L19.193 11.9325C19.3252 12.2142 19.5892 12.4115 19.8969 12.4585L27.1302 13.5637L26.2399 14.4762C26.8254 14.746 27.3766 15.0778 27.8849 15.4631L29.7347 13.5672C29.979 13.3168 30.0628 12.9508 29.9517 12.6191C29.8407 12.2873 29.5535 12.0456 29.2077 11.9927L20.6711 10.6885L16.8449 2.53676Z" fill="#11C4E2"/>
<path d="M26.1115 20.2488C26.396 19.819 26.2783 19.2399 25.8485 18.9553C25.4187 18.6707 24.8397 18.7884 24.555 19.2182L21.6062 23.6715L20.5115 22.0182C20.2268 21.5884 19.6478 21.4707 19.218 21.7553C18.7882 22.0399 18.6705 22.619 18.955 23.0487L20.8091 25.8487C20.9922 26.1252 21.297 26.2725 21.6056 26.2667C21.9146 26.2729 22.2201 26.1256 22.4033 25.8488L26.1115 20.2488Z" fill="#11C4E2"/>
<path fill-rule="evenodd" clip-rule="evenodd" d="M22.5331 15.0667C26.6568 15.0667 29.9997 18.4096 29.9997 22.5333C29.9997 26.6571 26.6568 30 22.5331 30C18.4093 30 15.0664 26.6571 15.0664 22.5333C15.0664 18.4096 18.4093 15.0667 22.5331 15.0667ZM28.1331 22.5333C28.1331 19.4405 25.6259 16.9333 22.5331 16.9333C19.4403 16.9333 16.9331 19.4405 16.9331 22.5333C16.9331 25.6261 19.4403 28.1333 22.5331 28.1333C25.6259 28.1333 28.1331 25.6261 28.1331 22.5333Z" fill="#11C4E2"/>
</svg>
