<svg width="32" height="32" viewBox="0 0 32 32" fill="none" xmlns="http://www.w3.org/2000/svg">
<path d="M16 28.75H5.5C3.43213 28.75 1.75 27.0679 1.75 25V14C1.75 11.9321 3.43213 10.25 5.5 10.25H20.5C22.5679 10.25 24.25 11.9321 24.25 14V17.5C24.25 17.9141 23.9143 18.25 23.5 18.25C23.0857 18.25 22.75 17.9141 22.75 17.5V14C22.75 12.7593 21.7407 11.75 20.5 11.75H5.5C4.25927 11.75 3.25 12.7593 3.25 14V25C3.25 26.2407 4.25927 27.25 5.5 27.25H16C16.4143 27.25 16.75 27.5859 16.75 28C16.75 28.4141 16.4143 28.75 16 28.75Z" fill="#11C4E2"/>
<path d="M9.5 11.75C9.0857 11.75 8.75 11.4141 8.75 11V8.75C8.75 6.54443 10.5444 4.74999 12.75 4.74999C14.3318 4.74999 15.7681 5.68456 16.4089 7.13134C16.5891 7.53857 17.0071 7.75927 17.4228 7.66601C17.7002 7.60498 17.9265 7.4209 18.0442 7.16211C18.1606 6.90528 18.1504 6.6167 18.0156 6.37061C16.9605 4.4458 14.9426 3.25 12.75 3.25C9.44165 3.25 6.75 5.94141 6.75 9.25V11C6.75 11.4141 6.4143 11.75 6 11.75C5.58569 11.75 5.25 11.4141 5.25 11V9.25C5.25 5.11426 8.6145 1.75 12.75 1.75C15.4907 1.75 18.0124 3.24414 19.3311 5.6499C19.6948 6.31396 19.7236 7.09082 19.4102 7.78174C19.0957 8.47461 18.4895 8.96631 17.7476 9.13086C16.6423 9.37353 15.5029 8.79003 15.0373 7.73876C14.6367 6.83447 13.7388 6.25 12.75 6.25C11.3716 6.25 10.25 7.37158 10.25 8.75V11C10.25 11.4141 9.91431 11.75 9.5 11.75Z" fill="#11C4E2"/>
<path d="M13.0002 20.4868C11.2808 20.4868 9.88184 19.0879 9.88184 17.3687C9.88184 15.6489 11.2808 14.25 13.0002 14.25C14.7197 14.25 16.1187 15.6489 16.1187 17.3687C16.1187 19.0879 14.7197 20.4868 13.0002 20.4868ZM13.0002 15.75C12.1079 15.75 11.3818 16.4761 11.3818 17.3687C11.3818 18.2607 12.1079 18.9868 13.0002 18.9868C13.8926 18.9868 14.6187 18.2607 14.6187 17.3687C14.6187 16.4761 13.8926 15.75 13.0002 15.75Z" fill="#11C4E2"/>
<path d="M13 24.75C12.5857 24.75 12.25 24.4141 12.25 24V19.7368C12.25 19.3228 12.5857 18.9868 13 18.9868C13.4143 18.9868 13.75 19.3228 13.75 19.7368V24C13.75 24.4141 13.4143 24.75 13 24.75Z" fill="#11C4E2"/>
<path d="M23.5 30.25C19.7781 30.25 16.75 27.2222 16.75 23.5C16.75 19.7778 19.7781 16.75 23.5 16.75C27.2219 16.75 30.25 19.7778 30.25 23.5C30.25 27.2222 27.2219 30.25 23.5 30.25ZM23.5 18.25C20.6052 18.25 18.25 20.605 18.25 23.5C18.25 26.395 20.6052 28.75 23.5 28.75C26.3948 28.75 28.75 26.395 28.75 23.5C28.75 20.605 26.3948 18.25 23.5 18.25Z" fill="#11C4E2"/>
<path d="M22.625 26.25C22.4331 26.25 22.2412 26.1768 22.0947 26.0303L19.8447 23.7808C19.5518 23.4878 19.5518 23.0132 19.8447 22.7202C20.1372 22.4272 20.6123 22.4272 20.9053 22.7202L22.625 24.4395L26.0947 20.9697C26.3877 20.6768 26.8623 20.6768 27.1553 20.9697C27.4482 21.2627 27.4482 21.7373 27.1553 22.0303L23.1553 26.0303C23.0088 26.1768 22.8169 26.25 22.625 26.25Z" fill="#11C4E2"/>
</svg>
