<svg width="64" height="64" viewBox="0 0 64 64" fill="none" xmlns="http://www.w3.org/2000/svg">
<path d="M35.28 24.4534C35.28 26.0534 33.9733 27.3601 32.3733 27.3601H31.68C29.8667 27.3601 28.4 25.8934 28.4 24.0801C28.4 22.2667 29.8667 20.8267 31.68 20.8267C33.68 20.8267 35.3067 22.4534 35.3067 24.4534H35.28ZM31.0133 40.1334L5.49333 21.7867L29.44 4.77341C30.9333 3.73341 33.0667 3.73341 34.56 4.77341L58.5333 21.7867L33.04 40.1067C32.48 40.5067 31.5467 40.5067 31.0133 40.1067V40.1334ZM24.48 31.0934C26.5067 33.1201 29.1733 34.2134 32.0267 34.2134C33.12 34.2134 34.2133 34.0534 35.3067 33.7067C36 33.4934 36.4 32.7467 36.1867 32.0534C35.9733 31.3601 35.2267 30.9601 34.5333 31.1734C31.4667 32.1067 28.4533 31.3067 26.3733 29.2267C24.8533 27.7067 24.0267 25.7067 24.0267 23.5734C24.0267 21.5201 24.9067 19.4401 26.4533 17.9201C28 16.4001 30.1067 15.6267 32.1333 15.5734C36.48 15.6267 40.0267 19.2267 40.0267 23.5734C40.0267 24.7467 39.7867 25.8934 39.28 26.9601C39.0133 27.5201 37.9733 27.3067 37.9733 26.6667V20.5334C37.9733 19.7867 37.3867 19.2001 36.64 19.2001C36.24 19.2001 35.8933 19.3867 35.6533 19.6534C34.56 18.7467 33.2 18.1867 31.68 18.1867C28.4 18.1867 25.7333 20.8534 25.7333 24.1067C25.7333 27.3601 28.4 30.0534 31.68 30.0534H32.3733C33.7867 30.0534 35.04 29.5201 36.0267 28.6667C36.64 29.4667 37.5467 30.0267 38.64 30.0267C39.9467 30.0267 41.1467 29.2801 41.68 28.0801C42.3467 26.6667 42.6667 25.1467 42.6667 23.5734C42.6667 17.7601 37.9467 12.9867 32.1333 12.9067C29.4133 12.9067 26.5867 14.0001 24.56 16.0267C22.5333 18.0534 21.3333 20.8001 21.3333 23.5734C21.3333 26.4267 22.4267 29.0934 24.4533 31.1201L24.48 31.0934ZM40.1867 38.2934L58.9067 57.0134C59.6 55.9467 60.0267 54.6934 60.0267 53.3334V24.0267L40.1867 38.2934ZM34.5867 42.3201C33.84 42.8534 32.9333 43.1201 32.0267 43.1201C31.12 43.1201 30.2133 42.8534 29.4667 42.3467L26.0533 39.8934L7.01333 58.9334C8.08 59.6267 9.33333 60.0534 10.6933 60.0534H53.36C54.72 60.0534 55.9733 59.6534 57.04 58.9334L38 39.8934L34.6133 42.3467L34.5867 42.3201ZM4 24.0267V53.3334C4 54.6934 4.4 55.9467 5.12 57.0134L23.84 38.2934L4 24.0267Z" fill="url(#paint0_linear_107_174)"/>
<defs>
<linearGradient id="paint0_linear_107_174" x1="32" y1="60.1601" x2="32" y2="26.2401" gradientUnits="userSpaceOnUse">
<stop stop-color="#51D9EF"/>
<stop offset="1" stop-color="#0E9AB1"/>
</linearGradient>
</defs>
</svg>
