<svg width="64" height="64" viewBox="0 0 64 64" fill="none" xmlns="http://www.w3.org/2000/svg">
<path d="M37.8666 22.1333C37.8666 25.36 35.2266 28 31.9999 28C28.7733 28 26.1333 25.36 26.1333 22.1333C26.1333 18.9067 28.7733 16.2667 31.9999 16.2667C35.2266 16.2667 37.8666 18.9067 37.8666 22.1333ZM50.7999 26.08C50.2933 28.5867 49.2799 30.9333 47.8133 33.04L33.0666 54.1067C32.8266 54.4533 32.3999 54.6667 31.9733 54.6667C31.5466 54.6667 31.1199 54.4533 30.8799 54.1067L16.1333 33.04C14.6666 30.9333 13.6533 28.5867 13.1466 26.08C12.0533 20.64 13.4666 15.04 16.9866 10.7467C20.5066 6.45333 25.7066 4 31.2533 4H32.6933C38.2399 4 43.4399 6.45333 46.9599 10.7467C50.4799 15.04 51.8666 20.6133 50.7999 26.08ZM40.5333 22.1333C40.5333 17.44 36.6933 13.6 31.9999 13.6C27.3066 13.6 23.4666 17.44 23.4666 22.1333C23.4666 26.8267 27.3066 30.6667 31.9999 30.6667C36.6933 30.6667 40.5333 26.8267 40.5333 22.1333ZM40.9333 47.5733L35.2799 55.6533C34.5333 56.72 33.3066 57.36 31.9999 57.36C30.6933 57.36 29.4666 56.72 28.7199 55.6533L23.0666 47.5733C18.5333 48.56 14.6666 50.4267 14.6666 53.3333C14.6666 57.7067 23.3866 60 31.9999 60C40.6133 60 49.3333 57.7067 49.3333 53.3333C49.3333 50.4 45.4399 48.56 40.9333 47.5733Z" fill="url(#paint0_linear_107_178)"/>
<defs>
<linearGradient id="paint0_linear_107_178" x1="31.9588" y1="60.1066" x2="31.9588" y2="26.2229" gradientUnits="userSpaceOnUse">
<stop stop-color="#51D9EF"/>
<stop offset="1" stop-color="#0E9AB1"/>
</linearGradient>
</defs>
</svg>
