<svg width="64" height="64" viewBox="0 0 64 64" fill="none" xmlns="http://www.w3.org/2000/svg">
<path d="M52.0001 44.8C52.0001 48.0534 50.1601 51.4134 47.4134 53.1467C45.4667 54.3734 43.4667 54.64 42.0801 54.64C41.7334 54.64 41.4134 54.64 41.1467 54.5867C22.2934 54.16 7.12008 38.9867 6.69341 20.0534C6.58674 18.8534 6.61341 16.32 8.16008 13.8667C9.89341 11.12 13.2267 9.28003 16.4801 9.28003H16.5067C18.2934 9.28003 19.8934 9.89336 20.0801 9.9467C20.8267 10.24 21.5467 10.6134 22.1867 11.0667C22.4801 11.28 22.6934 11.6 22.7467 11.9467L24.6667 24.0534C24.7201 24.4 24.6401 24.7734 24.4267 25.04C23.6001 26.16 22.5334 27.0934 21.3067 27.76C22.4267 30.48 24.1067 32.9867 26.1867 35.0934C28.2934 37.2 30.8001 38.8534 33.5201 39.9734C34.1867 38.72 35.1201 37.6534 36.2401 36.8534C36.5334 36.64 36.8801 36.56 37.2267 36.6134L49.3334 38.5334C49.7067 38.5867 50.0267 38.8 50.2134 39.0934C50.6667 39.76 51.0401 40.4534 51.3334 41.2C51.4134 41.3867 52.0001 42.96 52.0001 44.7734V44.8ZM34.3467 11.9734C41.8667 13.4134 47.8934 19.44 49.3601 26.9867C49.4934 27.6267 50.0534 28.08 50.6667 28.08H50.9067C51.6267 27.9467 52.1067 27.2534 51.9734 26.5067C50.3201 17.92 43.4401 11.04 34.8534 9.3867C34.1334 9.25336 33.4401 9.73336 33.2801 10.4534C33.1467 11.1734 33.6267 11.8667 34.3467 12.0267V11.9734ZM32.2134 18.1067C38.0001 18.8 42.5067 23.3334 43.2001 29.0934C43.2801 29.76 43.8667 30.2667 44.5334 30.2667H44.6934C45.4134 30.1867 45.9467 29.52 45.8667 28.7734C45.0134 21.7867 39.5467 16.2934 32.5334 15.44C31.7867 15.36 31.1467 15.8667 31.0401 16.6134C30.9601 17.3334 31.4667 18 32.2134 18.1067ZM30.1601 24.48C33.7067 24.16 36.8801 27.0134 36.8801 30.5867C36.8801 30.7734 36.8801 30.9867 36.8534 31.1734C36.7734 31.8934 37.3334 32.56 38.0534 32.6134H38.1867C38.8534 32.6134 39.4401 32.1067 39.5201 31.4134C39.5201 31.1467 39.5734 30.8534 39.5734 30.5867C39.5734 25.4667 35.0401 21.36 29.9467 21.84C29.2267 21.92 28.6667 22.56 28.7467 23.28C28.8267 24.0267 29.4667 24.56 30.1867 24.48H30.1601Z" fill="url(#paint0_linear_107_176)"/>
<defs>
<linearGradient id="paint0_linear_107_176" x1="29.3175" y1="54.7264" x2="29.3175" y2="27.2806" gradientUnits="userSpaceOnUse">
<stop stop-color="#51D9EF"/>
<stop offset="1" stop-color="#0E9AB1"/>
</linearGradient>
</defs>
</svg>
