<svg width="16" height="16" viewBox="0 0 16 16" fill="none" xmlns="http://www.w3.org/2000/svg">
<path d="M6.20844 13.543C5.96232 13.7891 5.56329 13.7891 5.31715 13.543L0.594493 8.82107C0.469909 8.69649 0.399902 8.5274 0.399902 8.3512C0.399902 8.17501 0.469909 8.00592 0.594493 7.88134L1.53407 6.94176C1.65865 6.81718 1.82759 6.74717 2.00393 6.74717C2.18013 6.74717 2.34906 6.81718 2.47365 6.94176L5.76285 10.2304L13.5262 2.46705C13.6509 2.34247 13.8197 2.27246 13.9959 2.27246C14.1721 2.27246 14.3412 2.34247 14.4657 2.46705L15.4053 3.40663C15.5299 3.53121 15.5999 3.70029 15.5999 3.87649C15.5999 4.05269 15.5299 4.22177 15.4053 4.34636L6.20844 13.543Z" fill="#11C4E2"/>
</svg>
