<svg width="24" height="25" viewBox="0 0 24 25" fill="none" xmlns="http://www.w3.org/2000/svg">
<path d="M9.31291 21.107C8.94372 21.4762 8.34518 21.4762 7.97597 21.107L0.891983 14.0241C0.705108 13.8372 0.600098 13.5836 0.600098 13.3193C0.600098 13.055 0.705108 12.8014 0.891983 12.6145L2.30135 11.2051C2.48822 11.0182 2.74163 10.9132 3.00615 10.9132C3.27044 10.9132 3.52384 11.0182 3.71071 11.2051L8.64452 16.138L20.2895 4.49306C20.4766 4.30618 20.7298 4.20117 20.9941 4.20117C21.2584 4.20117 21.512 4.30618 21.6988 4.49306L23.1082 5.90242C23.2951 6.0893 23.4001 6.34292 23.4001 6.60722C23.4001 6.87152 23.2951 7.12514 23.1082 7.31202L9.31291 21.107Z" fill="#11C4E2"/>
</svg>
