<svg width="32" height="32" viewBox="0 0 32 32" fill="none" xmlns="http://www.w3.org/2000/svg">
<path d="M29.71 8.29002L23.71 2.29002C23.6166 2.19734 23.5057 2.12401 23.3839 2.07425C23.2621 2.02448 23.1316 1.99926 23 2.00002H11C10.2044 2.00002 9.44129 2.31609 8.87868 2.8787C8.31607 3.44131 8 4.20437 8 5.00002V7.00002C8 7.26523 8.10536 7.51959 8.29289 7.70712C8.48043 7.89466 8.73478 8.00002 9 8.00002C9.26522 8.00002 9.51957 7.89466 9.70711 7.70712C9.89464 7.51959 10 7.26523 10 7.00002V5.00002C10 4.7348 10.1054 4.48045 10.2929 4.29291C10.4804 4.10537 10.7348 4.00002 11 4.00002H22V7.00002C22 7.79567 22.3161 8.55873 22.8787 9.12134C23.4413 9.68395 24.2044 10 25 10H28V27C28 27.2652 27.8946 27.5196 27.7071 27.7071C27.5196 27.8947 27.2652 28 27 28H15C14.7348 28 14.4804 28.1054 14.2929 28.2929C14.1054 28.4804 14 28.7348 14 29C14 29.2652 14.1054 29.5196 14.2929 29.7071C14.4804 29.8947 14.7348 30 15 30H27C27.7956 30 28.5587 29.6839 29.1213 29.1213C29.6839 28.5587 30 27.7957 30 27V9.00002C30.0008 8.86841 29.9755 8.73795 29.9258 8.61611C29.876 8.49427 29.8027 8.38346 29.71 8.29002ZM24 7.00002V5.41002L26.59 8.00002H25C24.7348 8.00002 24.4804 7.89466 24.2929 7.70712C24.1054 7.51959 24 7.26523 24 7.00002Z" fill="#11C4E2"/>
<path d="M14 15.9999C14.002 14.9986 13.7534 14.0126 13.2768 13.132C12.8002 12.2513 12.1107 11.504 11.2713 10.958C10.4319 10.4121 9.46915 10.0849 8.47089 10.0063C7.47263 9.92771 6.47057 10.1002 5.55605 10.5081C4.64154 10.916 3.84364 11.5462 3.2351 12.3415C2.62656 13.1367 2.22672 14.0716 2.07203 15.0609C1.91734 16.0502 2.01271 17.0625 2.34946 18.0056C2.68621 18.9486 3.25363 19.7923 3.99999 20.4599V28.9999C4.00097 29.1973 4.06038 29.3901 4.17071 29.5538C4.28104 29.7175 4.43737 29.8449 4.61999 29.9199C4.8021 29.9965 5.00281 30.0174 5.1968 29.98C5.39079 29.9427 5.56937 29.8487 5.70999 29.7099L7.99999 27.4099L10.29 29.7099C10.3834 29.8026 10.4942 29.8759 10.6161 29.9257C10.7379 29.9755 10.8684 30.0007 11 29.9999C11.1312 30.0033 11.2613 29.9759 11.38 29.9199C11.5626 29.8449 11.7189 29.7175 11.8293 29.5538C11.9396 29.3901 11.999 29.1973 12 28.9999V20.4599C12.6277 19.8985 13.1302 19.2112 13.4747 18.4428C13.8193 17.6744 13.9983 16.8421 14 15.9999ZM9.99999 26.5899L8.70999 25.2899C8.61703 25.1962 8.50642 25.1218 8.38457 25.071C8.26271 25.0203 8.132 24.9941 7.99999 24.9941C7.86798 24.9941 7.73727 25.0203 7.61541 25.071C7.49355 25.1218 7.38295 25.1962 7.28999 25.2899L5.99999 26.5899V21.6499C7.2925 22.1165 8.70748 22.1165 9.99999 21.6499V26.5899ZM7.99999 19.9999C7.20886 19.9999 6.4355 19.7653 5.77771 19.3258C5.11991 18.8863 4.60722 18.2616 4.30447 17.5307C4.00172 16.7997 3.92251 15.9955 4.07685 15.2196C4.23119 14.4436 4.61215 13.7309 5.17156 13.1715C5.73097 12.6121 6.4437 12.2311 7.21963 12.0768C7.99555 11.9224 8.79982 12.0017 9.53072 12.3044C10.2616 12.6072 10.8863 13.1198 11.3259 13.7776C11.7654 14.4354 12 15.2088 12 15.9999C12 17.0608 11.5786 18.0782 10.8284 18.8283C10.0783 19.5785 9.06085 19.9999 7.99999 19.9999Z" fill="#11C4E2"/>
<path d="M19 8H14C13.7348 8 13.4804 8.10536 13.2929 8.29289C13.1054 8.48043 13 8.73478 13 9C13 9.26522 13.1054 9.51957 13.2929 9.70711C13.4804 9.89464 13.7348 10 14 10H19C19.2652 10 19.5196 9.89464 19.7071 9.70711C19.8946 9.51957 20 9.26522 20 9C20 8.73478 19.8946 8.48043 19.7071 8.29289C19.5196 8.10536 19.2652 8 19 8Z" fill="#11C4E2"/>
<path d="M25 13H17C16.7348 13 16.4804 13.1054 16.2929 13.2929C16.1054 13.4804 16 13.7348 16 14C16 14.2652 16.1054 14.5196 16.2929 14.7071C16.4804 14.8946 16.7348 15 17 15H25C25.2652 15 25.5196 14.8946 25.7071 14.7071C25.8946 14.5196 26 14.2652 26 14C26 13.7348 25.8946 13.4804 25.7071 13.2929C25.5196 13.1054 25.2652 13 25 13Z" fill="#11C4E2"/>
<path d="M25 18H17C16.7348 18 16.4804 18.1054 16.2929 18.2929C16.1054 18.4804 16 18.7348 16 19C16 19.2652 16.1054 19.5196 16.2929 19.7071C16.4804 19.8946 16.7348 20 17 20H25C25.2652 20 25.5196 19.8946 25.7071 19.7071C25.8946 19.5196 26 19.2652 26 19C26 18.7348 25.8946 18.4804 25.7071 18.2929C25.5196 18.1054 25.2652 18 25 18Z" fill="#11C4E2"/>
<path d="M25 23H15C14.7348 23 14.4804 23.1054 14.2929 23.2929C14.1054 23.4804 14 23.7348 14 24C14 24.2652 14.1054 24.5196 14.2929 24.7071C14.4804 24.8946 14.7348 25 15 25H25C25.2652 25 25.5196 24.8946 25.7071 24.7071C25.8946 24.5196 26 24.2652 26 24C26 23.7348 25.8946 23.4804 25.7071 23.2929C25.5196 23.1054 25.2652 23 25 23Z" fill="#11C4E2"/>
<path d="M6.5 15L9 17.5" stroke="#11C4E2" stroke-width="2" stroke-linecap="round"/>
<path d="M9 15L6.5 17.5" stroke="#11C4E2" stroke-width="2" stroke-linecap="round"/>
</svg>
