<svg width="32" height="32" viewBox="0 0 32 32" fill="none" xmlns="http://www.w3.org/2000/svg">
<path d="M15.5901 27.7748H4.3901C3.5681 27.7748 2.9001 27.1068 2.9001 26.2848V5.5928L4.9201 4.3758L7.3761 5.8558C7.6611 6.0278 8.0201 6.0278 8.3051 5.8558L10.7601 4.3768L13.2051 5.8558C13.4921 6.0298 13.8511 6.0298 14.1351 5.8568L16.5901 4.3778L19.0351 5.8568C19.3211 6.0308 19.6801 6.0308 19.9651 5.8578L22.4201 4.3788L24.4311 5.5948V11.9478C24.4311 12.4448 24.8341 12.8478 25.3311 12.8478C25.8281 12.8478 26.2311 12.4448 26.2311 11.9478V5.0878C26.2311 4.7728 26.0661 4.4808 25.7971 4.3178L22.8871 2.5578C22.6021 2.3848 22.2431 2.3848 21.9571 2.5568L19.5021 4.0358L17.0571 2.5568C16.7721 2.3838 16.4131 2.3838 16.1271 2.5558L13.6721 4.0348L11.2271 2.5558C10.9411 2.3828 10.5821 2.3828 10.2971 2.5548L7.8401 4.0338L5.3841 2.5538C5.0991 2.3818 4.7401 2.3818 4.4551 2.5538L1.5351 4.3138C1.2651 4.4768 1.1001 4.7698 1.1001 5.0848V26.2848C1.1001 28.0988 2.5761 29.5748 4.3901 29.5748H15.5901C16.0871 29.5748 16.4901 29.1718 16.4901 28.6748C16.4901 28.1778 16.0871 27.7748 15.5901 27.7748Z" fill="#11C4E2"/>
<path d="M21.375 11.9708C21.375 11.4738 20.972 11.0708 20.475 11.0708H6.85898C6.36198 11.0708 5.95898 11.4738 5.95898 11.9708C5.95898 12.4678 6.36198 12.8708 6.85898 12.8708H20.475C20.972 12.8708 21.375 12.4678 21.375 11.9708Z" fill="#11C4E2"/>
<path d="M15.31 16.8849C15.31 16.3879 14.907 15.9849 14.41 15.9849H6.85996C6.36296 15.9849 5.95996 16.3879 5.95996 16.8849C5.95996 17.3819 6.36296 17.7849 6.85996 17.7849H14.41C14.907 17.7849 15.31 17.3819 15.31 16.8849Z" fill="#11C4E2"/>
<path d="M6.85898 20.8906C6.36198 20.8906 5.95898 21.2936 5.95898 21.7906C5.95898 22.2876 6.36198 22.6906 6.85898 22.6906H12.987C13.484 22.6906 13.887 22.2876 13.887 21.7906C13.887 21.2936 13.484 20.8906 12.987 20.8906H6.85898Z" fill="#11C4E2"/>
<path d="M23.4723 21.0759C22.6703 20.8929 22.5373 20.7219 22.5403 20.7319C22.5553 20.5059 23.0423 20.3319 23.7693 20.2839C23.8603 20.6839 24.2193 20.9839 24.6473 20.9839C25.1443 20.9839 25.5473 20.5809 25.5473 20.0839C25.5473 19.6489 25.3683 19.2269 25.0553 18.9239C24.8093 18.6859 24.4983 18.5459 24.1683 18.4969C24.1503 18.0159 23.7603 17.6289 23.2753 17.6289C22.7783 17.6289 22.3753 18.0319 22.3753 18.5289V18.7219C21.0793 19.1499 20.7843 20.0309 20.7443 20.6089C20.6683 21.7149 21.4523 22.4629 23.0733 22.8309C23.8463 23.0069 24.0193 23.1949 24.0153 23.1839C24.0043 23.3919 23.4743 23.5769 22.7763 23.6249C22.6853 23.2239 22.3273 22.9239 21.8983 22.9239C21.4013 22.9239 20.9983 23.3269 20.9983 23.8239C20.9983 24.2639 21.1723 24.6749 21.4893 24.9799C21.7333 25.2159 22.0483 25.3619 22.3813 25.4099C22.4003 25.8909 22.7893 26.2769 23.2743 26.2769C23.7713 26.2769 24.1743 25.8739 24.1743 25.3769V25.1859C25.5873 24.7199 25.8023 23.7169 25.8153 23.2259C25.8343 22.4929 25.4443 21.5249 23.4723 21.0759Z" fill="#11C4E2"/>
<path d="M23.2782 14.3306C19.0752 14.3306 15.6562 17.7496 15.6562 21.9526C15.6562 26.1556 19.0752 29.5746 23.2782 29.5746C27.4812 29.5746 30.9002 26.1556 30.9002 21.9526C30.9002 17.7496 27.4802 14.3306 23.2782 14.3306ZM23.2782 27.7746C20.0682 27.7746 17.4562 25.1626 17.4562 21.9526C17.4562 18.7426 20.0682 16.1306 23.2782 16.1306C26.4882 16.1306 29.1003 18.7426 29.1003 21.9526C29.1003 25.1626 26.4882 27.7746 23.2782 27.7746Z" fill="#11C4E2"/>
</svg>
