<svg width="28" height="28" viewBox="0 0 28 28" fill="none" xmlns="http://www.w3.org/2000/svg">
<g clip-path="url(#clip0_438_977)">
<path d="M7.19656 7.43843C9.2453 7.43843 10.9121 5.76998 10.9121 3.71921C10.9121 1.66845 9.2453 0 7.19656 0C5.14782 0 3.48096 1.66839 3.48096 3.71921C3.48096 5.77003 5.14776 7.43843 7.19656 7.43843ZM7.19656 1.64061C8.34067 1.64061 9.2715 2.57308 9.2715 3.71921C9.2715 4.86534 8.34067 5.79781 7.19656 5.79781C6.05245 5.79781 5.12157 4.86534 5.12157 3.71921C5.12157 2.57308 6.0524 1.64061 7.19656 1.64061Z" fill="#11C4E2"/>
<path d="M10.838 8.79688H3.61219C1.62043 8.79688 0 10.4189 0 12.4126V17.5311C0 18.8654 1.08461 19.9509 2.41772 19.9509C2.68951 19.9509 2.9507 19.9051 3.19476 19.822V27.1798C3.19476 27.6328 3.56204 28.0001 4.01507 28.0001H10.433C10.886 28.0001 11.2533 27.6328 11.2533 27.1798V19.8212C11.498 19.9048 11.7599 19.9508 12.0325 19.9508C13.3656 19.9508 14.4502 18.8653 14.4502 17.5311V12.4126C14.4503 10.4188 12.8299 8.79688 10.838 8.79688ZM12.8097 17.5311C12.8097 17.9607 12.4611 18.3102 12.0325 18.3102C11.604 18.3102 11.2554 17.9607 11.2554 17.5311C11.2554 17.5175 11.254 17.5043 11.2533 17.4909V13.8084C11.2533 13.3554 10.8861 12.9881 10.433 12.9881C9.98001 12.9881 9.61273 13.3554 9.61273 13.8084V26.3594H8.01674V18.0346C8.01674 17.5816 7.64946 17.2143 7.19644 17.2143C6.74341 17.2143 6.37613 17.5816 6.37613 18.0346V26.3595H4.83538V17.5364C4.83538 17.5346 4.83549 17.5329 4.83549 17.5311C4.83549 17.5302 4.83538 17.5294 4.83538 17.5285V13.8085C4.83538 13.3555 4.4681 12.9882 4.01507 12.9882C3.56204 12.9882 3.19476 13.3555 3.19476 13.8085V17.5338C3.19334 17.9622 2.84537 18.3103 2.41772 18.3103C1.98924 18.3103 1.64061 17.9608 1.64061 17.5312V12.4127C1.64061 11.3236 2.52507 10.4375 3.61219 10.4375H10.8381C11.9252 10.4375 12.8097 11.3236 12.8097 12.4127V17.5311Z" fill="#11C4E2"/>
<path d="M27.1795 16.0974C26.8297 16.0974 26.5191 15.8617 26.4241 15.5242L24.7063 9.42129C24.5954 9.01551 24.4293 8.62701 24.2127 8.26652L19.6846 0.731566C19.4394 0.323546 19.0274 0.060173 18.5544 0.00898593C18.0814 -0.0422012 17.6228 0.127001 17.2961 0.473006C15.8902 1.9623 15.6211 4.16209 16.6265 5.94702L19.0756 10.2949C17.3731 10.8432 16.1374 12.4442 16.1374 14.3276V19.5086C16.1374 21.978 18.1444 23.987 20.6112 23.987H27.1795C27.6325 23.987 27.9998 23.6197 27.9998 23.1667V16.9177C27.9998 16.4647 27.6325 16.0974 27.1795 16.0974ZM26.3592 22.3464H20.6112C19.049 22.3464 17.778 21.0734 17.778 19.5086V14.3277C17.778 13.1858 18.5193 12.2141 19.5449 11.8685V17.4456C19.5449 17.8986 19.9121 18.2659 20.3652 18.2659C20.8182 18.2659 21.1855 17.8986 21.1855 17.4456V10.9131C21.1835 10.8113 21.1638 10.6549 21.0799 10.5104L18.0559 5.14186C17.4344 4.03838 17.5655 2.68991 18.3714 1.73136L22.8065 9.1116C22.9461 9.34402 23.0531 9.59465 23.1244 9.85638C23.125 9.85862 23.1256 9.86081 23.1263 9.863L24.8449 15.9688C25.0608 16.7357 25.6382 17.3324 26.3593 17.5938L26.3592 22.3464Z" fill="#11C4E2"/>
</g>
<defs>
<clipPath id="clip0_438_977">
<rect width="28" height="28" fill="white"/>
</clipPath>
</defs>
</svg>
