<svg width="28" height="28" viewBox="0 0 28 28" fill="none" xmlns="http://www.w3.org/2000/svg">
<g clip-path="url(#clip0_438_982)">
<path d="M12.0737 19.0273C12.3904 18.6 12.5781 18.0715 12.5781 17.5C12.5781 16.0827 11.4251 14.9297 10.0078 14.9297C8.59053 14.9297 7.4375 16.0827 7.4375 17.5C7.4375 18.0715 7.62519 18.6 7.94194 19.0273C7.55962 19.2685 7.22241 19.5745 6.94531 19.9299C6.66821 19.5745 6.33095 19.2685 5.94869 19.0273C6.26544 18.6 6.45312 18.0715 6.45312 17.5C6.45312 16.0827 5.30009 14.9297 3.88281 14.9297C2.46553 14.9297 1.3125 16.0827 1.3125 17.5C1.3125 18.0715 1.50019 18.6 1.81694 19.0273C0.726414 19.7155 0 20.9304 0 22.3125V23.625C0 24.078 0.367281 24.4453 0.820312 24.4453H13.0703C13.5233 24.4453 13.8906 24.078 13.8906 23.625V22.3125C13.8906 20.9304 13.1642 19.7155 12.0737 19.0273ZM3.88281 16.5703C4.39545 16.5703 4.8125 16.9874 4.8125 17.5C4.8125 18.0126 4.39545 18.4297 3.88281 18.4297C3.37017 18.4297 2.95312 18.0126 2.95312 17.5C2.95312 16.9874 3.37017 16.5703 3.88281 16.5703ZM6.125 22.8047H1.64062V22.3125C1.64062 21.0762 2.64649 20.0703 3.88281 20.0703C5.11913 20.0703 6.125 21.0762 6.125 22.3125V22.8047ZM10.0078 16.5703C10.5205 16.5703 10.9375 16.9874 10.9375 17.5C10.9375 18.0126 10.5205 18.4297 10.0078 18.4297C9.49517 18.4297 9.07812 18.0126 9.07812 17.5C9.07812 16.9874 9.49517 16.5703 10.0078 16.5703ZM12.25 22.8047H7.76562V22.3125C7.76562 21.0762 8.77149 20.0703 10.0078 20.0703C11.2441 20.0703 12.25 21.0762 12.25 22.3125V22.8047Z" fill="#11C4E2"/>
<path d="M12.0737 7.65226C12.3904 7.22498 12.5781 6.69654 12.5781 6.125C12.5781 4.70772 11.4251 3.55469 10.0078 3.55469C8.59053 3.55469 7.4375 4.70772 7.4375 6.125C7.4375 6.69654 7.62519 7.22498 7.94194 7.65226C7.55962 7.89354 7.22241 8.19946 6.94531 8.55488C6.66821 8.19946 6.33095 7.89354 5.94869 7.65226C6.26544 7.22498 6.45312 6.69654 6.45312 6.125C6.45312 4.70772 5.30009 3.55469 3.88281 3.55469C2.46553 3.55469 1.3125 4.70772 1.3125 6.125C1.3125 6.69654 1.50019 7.22498 1.81694 7.65226C0.726414 8.3405 0 9.55544 0 10.9375V12.25C0 12.703 0.367281 13.0703 0.820312 13.0703H13.0703C13.5233 13.0703 13.8906 12.703 13.8906 12.25V10.9375C13.8906 9.55544 13.1642 8.3405 12.0737 7.65226ZM3.88281 5.19531C4.39545 5.19531 4.8125 5.61236 4.8125 6.125C4.8125 6.63764 4.39545 7.05469 3.88281 7.05469C3.37017 7.05469 2.95312 6.63764 2.95312 6.125C2.95312 5.61236 3.37017 5.19531 3.88281 5.19531ZM6.125 11.4297H1.64062V10.9375C1.64062 9.70118 2.64649 8.69531 3.88281 8.69531C5.11913 8.69531 6.125 9.70118 6.125 10.9375V11.4297ZM10.0078 5.19531C10.5205 5.19531 10.9375 5.61236 10.9375 6.125C10.9375 6.63764 10.5205 7.05469 10.0078 7.05469C9.49517 7.05469 9.07812 6.63764 9.07812 6.125C9.07812 5.61236 9.49517 5.19531 10.0078 5.19531ZM12.25 11.4297H7.76562V10.9375C7.76562 9.70118 8.77149 8.69531 10.0078 8.69531C11.2441 8.69531 12.25 9.70118 12.25 10.9375V11.4297Z" fill="#11C4E2"/>
<path d="M26.1831 12.9023C26.4998 12.475 26.6875 11.9465 26.6875 11.375C26.6875 9.95772 25.5345 8.80469 24.1172 8.80469C22.6999 8.80469 21.5469 9.95772 21.5469 11.375C21.5469 11.9465 21.7346 12.475 22.0513 12.9023C20.9608 13.5905 20.2344 14.8054 20.2344 16.1875V17.5C20.2344 17.953 20.6017 18.3203 21.0547 18.3203H27.1797C27.6327 18.3203 28 17.953 28 17.5V16.1875C28 14.8054 27.2736 13.5905 26.1831 12.9023ZM24.1172 10.4453C24.6298 10.4453 25.0469 10.8624 25.0469 11.375C25.0469 11.8876 24.6298 12.3047 24.1172 12.3047C23.6045 12.3047 23.1875 11.8876 23.1875 11.375C23.1875 10.8624 23.6045 10.4453 24.1172 10.4453ZM26.3594 16.6797H21.875V16.1875C21.875 14.9512 22.8809 13.9453 24.1172 13.9453C25.3535 13.9453 26.3594 14.9512 26.3594 16.1875V16.6797Z" fill="#11C4E2"/>
<path d="M17.0625 2.67969C16.6095 2.67969 16.2422 3.04697 16.2422 3.5V24.5C16.2422 24.953 16.6095 25.3203 17.0625 25.3203C17.5155 25.3203 17.8828 24.953 17.8828 24.5V3.5C17.8828 3.04697 17.5155 2.67969 17.0625 2.67969Z" fill="#11C4E2"/>
</g>
<defs>
<clipPath id="clip0_438_982">
<rect width="28" height="28" fill="white"/>
</clipPath>
</defs>
</svg>
