<svg width="28" height="28" viewBox="0 0 28 28" fill="none" xmlns="http://www.w3.org/2000/svg">
<path d="M27.1797 11.4297H25.375C25.0078 11.4297 24.6025 10.8755 24.1736 10.2889C23.4455 9.29327 22.4484 7.92969 20.5625 7.92969H20.125C18.9944 7.92969 18.032 8.66338 17.6889 9.67969H15.3393C14.8338 9.67969 14.3684 9.85015 14 10.1371C13.6316 9.85015 13.1662 9.67969 12.6607 9.67969H10.3112C9.96805 8.66338 9.00561 7.92969 7.87506 7.92969H7.43756C5.55166 7.92969 4.55454 9.29327 3.82648 10.2889C3.39746 10.8755 2.99223 11.4297 2.625 11.4297H0.820312C0.367281 11.4297 0 11.797 0 12.25V18.375C0 18.828 0.367281 19.1953 0.820312 19.1953H12.6607C13.1662 19.1953 13.6316 19.0249 14 18.7379C14.3684 19.0249 14.8338 19.1953 15.3393 19.1953H27.1797C27.6327 19.1953 28 18.828 28 18.375V12.25C28 11.797 27.6327 11.4297 27.1797 11.4297ZM13.0543 16.7346C13.1409 16.8313 13.1852 16.9564 13.1791 17.0868C13.1672 17.3448 12.9346 17.5547 12.6607 17.5547H1.64062V13.0703H2.625C3.82501 13.0703 4.52938 12.1071 5.1508 11.2573C5.91834 10.2076 6.45526 9.57031 7.4375 9.57031H7.875C8.38764 9.57031 8.80469 9.98736 8.80469 10.5C8.80469 10.953 9.17197 11.3203 9.625 11.3203H12.6607C12.9346 11.3203 13.1672 11.5302 13.1791 11.7882C13.1852 11.9187 13.1409 12.0438 13.0543 12.1404C12.7755 12.4518 12.7755 12.9232 13.0543 13.2347C13.2211 13.4209 13.2226 13.7024 13.0543 13.8903C12.7754 14.2018 12.7754 14.6731 13.0543 14.9847C13.2211 15.1709 13.2226 15.4524 13.0543 15.6403C12.7755 15.9517 12.7755 16.4232 13.0543 16.7346ZM26.3594 17.5547H15.3393C15.0654 17.5547 14.8328 17.3448 14.8209 17.0868C14.8148 16.9563 14.8591 16.8312 14.9456 16.7347C15.2245 16.4232 15.2245 15.9519 14.9456 15.6403C14.7788 15.4541 14.7773 15.1726 14.9456 14.9847C15.2245 14.6732 15.2245 14.2019 14.9456 13.8903C14.7788 13.7041 14.7773 13.4226 14.9456 13.2347C15.2245 12.9232 15.2245 12.4519 14.9456 12.1403C14.8591 12.0437 14.8148 11.9186 14.8209 11.7882C14.8328 11.5302 15.0654 11.3203 15.3393 11.3203H18.375C18.828 11.3203 19.1953 10.953 19.1953 10.5C19.1953 9.98736 19.6124 9.57031 20.125 9.57031H20.5625C21.5447 9.57031 22.0817 10.2076 22.8492 11.2573C23.4706 12.1071 24.175 13.0703 25.375 13.0703H26.3594V17.5547Z" fill="#11C4E2"/>
<path d="M14 6.07031C14.453 6.07031 14.8203 5.70303 14.8203 5.25V3.9375C14.8203 3.48447 14.453 3.11719 14 3.11719C13.547 3.11719 13.1797 3.48447 13.1797 3.9375V5.25C13.1797 5.70303 13.547 6.07031 14 6.07031Z" fill="#11C4E2"/>
<path d="M10.3575 7.1425C10.6779 7.46292 11.1972 7.46286 11.5175 7.1425C11.8379 6.8222 11.8379 6.30278 11.5175 5.98242L10.6425 5.10742C10.3222 4.78711 9.80282 4.78711 9.48246 5.10742C9.1621 5.42772 9.1621 5.94714 9.48246 6.2675L10.3575 7.1425Z" fill="#11C4E2"/>
<path d="M17.6425 7.1425L18.5175 6.2675C18.8379 5.9472 18.8379 5.42778 18.5175 5.10742C18.1972 4.78711 17.6778 4.78711 17.3575 5.10742L16.4825 5.98242C16.1621 6.30272 16.1621 6.82214 16.4825 7.1425C16.8029 7.46292 17.3222 7.46286 17.6425 7.1425Z" fill="#11C4E2"/>
<path d="M14 21.9297C13.547 21.9297 13.1797 22.297 13.1797 22.75V24.0625C13.1797 24.5155 13.547 24.8828 14 24.8828C14.453 24.8828 14.8203 24.5155 14.8203 24.0625V22.75C14.8203 22.297 14.453 21.9297 14 21.9297Z" fill="#11C4E2"/>
<path d="M17.6425 20.8574C17.3222 20.5371 16.8028 20.5371 16.4825 20.8574C16.1621 21.1777 16.1621 21.6971 16.4825 22.0175L17.3575 22.8925C17.6778 23.2129 18.1972 23.2129 18.5175 22.8925C18.8379 22.5722 18.8379 22.0528 18.5175 21.7324L17.6425 20.8574Z" fill="#11C4E2"/>
<path d="M10.3575 20.8575L9.48246 21.7325C9.1621 22.0528 9.1621 22.5722 9.48246 22.8925C9.80287 23.2129 10.3222 23.2129 10.6425 22.8925L11.5175 22.0175C11.8379 21.6972 11.8379 21.1778 11.5175 20.8575C11.1972 20.5371 10.6778 20.5371 10.3575 20.8575Z" fill="#11C4E2"/>
</svg>
