<svg width="28" height="28" viewBox="0 0 28 28" fill="none" xmlns="http://www.w3.org/2000/svg">
<g clip-path="url(#clip0_438_998)">
<path d="M4.08002 10.7949C3.75971 10.4746 3.24029 10.4746 2.91993 10.7949C2.59957 11.1152 2.59957 11.6346 2.91993 11.955L3.2696 12.3046H0.820313C0.367281 12.3046 0 12.6719 0 13.1249C0 13.578 0.367281 13.9452 0.820313 13.9452H3.2696L2.91998 14.2949C2.59963 14.6152 2.59963 15.1346 2.91998 15.455C3.2404 15.7754 3.75971 15.7754 4.08007 15.455L5.83007 13.705C6.15043 13.3847 6.15043 12.8653 5.83007 12.5449L4.08002 10.7949Z" fill="#11C4E2"/>
<path d="M27.1797 12.3047H24.7304L25.08 11.955C25.4004 11.6347 25.4004 11.1153 25.08 10.7949C24.7597 10.4746 24.2403 10.4746 23.92 10.7949L22.17 12.5449C21.8496 12.8652 21.8496 13.3846 22.17 13.705L23.92 15.455C24.2403 15.7754 24.7597 15.7754 25.08 15.455C25.4004 15.1347 25.4004 14.6153 25.08 14.2949L24.7304 13.9453H27.1797C27.6327 13.9453 28 13.578 28 13.125C28 12.672 27.6327 12.3047 27.1797 12.3047Z" fill="#11C4E2"/>
<path d="M13.42 5.83002C13.7404 6.15038 14.2597 6.15038 14.5801 5.83002L16.3301 4.08002C16.6505 3.75971 16.6505 3.24029 16.3301 2.91993C16.0098 2.59963 15.4904 2.59963 15.17 2.91993L14.8203 3.2696V0.820312C14.8203 0.367281 14.4531 0 14 0C13.547 0 13.1797 0.367281 13.1797 0.820312V3.2696L12.83 2.91993C12.5097 2.59963 11.9903 2.59963 11.67 2.91993C11.3496 3.24023 11.3496 3.75966 11.67 4.08002L13.42 5.83002Z" fill="#11C4E2"/>
<path d="M20.5625 8.2578H23.0374C23.4904 8.2578 23.8577 7.89052 23.8577 7.43749C23.8577 6.98446 23.4904 6.61717 23.0374 6.61717H22.5429L24.2051 4.955C24.5254 4.6347 24.5254 4.11528 24.2051 3.79492C23.8848 3.47461 23.3653 3.47461 23.045 3.79492L21.3828 5.45709V4.9626C21.3828 4.50957 21.0155 4.14229 20.5625 4.14229C20.1095 4.14229 19.7422 4.50957 19.7422 4.9626V7.43749C19.7422 7.89052 20.1095 8.2578 20.5625 8.2578Z" fill="#11C4E2"/>
<path d="M5.45713 6.61712H4.96264C4.50961 6.61712 4.14233 6.9844 4.14233 7.43743C4.14233 7.89046 4.50961 8.25774 4.96264 8.25774H7.43753C7.89056 8.25774 8.25784 7.89046 8.25784 7.43743V4.96255C8.25784 4.50952 7.89056 4.14224 7.43753 4.14224C6.9845 4.14224 6.61722 4.50952 6.61722 4.96255V5.45703L4.95504 3.79492C4.63474 3.47461 4.11532 3.47461 3.79496 3.79492C3.4746 4.11522 3.4746 4.63464 3.79496 4.955L5.45713 6.61712Z" fill="#11C4E2"/>
<path d="M19.5511 21.1526L17.0078 20.3897V18.8348C18.8839 17.7619 20.0703 15.7475 20.0703 13.5625V13.125C20.0703 9.7778 17.3472 7.05469 14 7.05469C10.6528 7.05469 7.92969 9.7778 7.92969 13.125V13.5625C7.92969 15.7476 9.11608 17.762 10.9922 18.8348V20.3897L8.44895 21.1526C7.35328 21.4813 6.61719 22.4707 6.61719 23.6146V27.1797C6.61719 27.6327 6.98447 28 7.4375 28H20.5625C21.0155 28 21.3828 27.6327 21.3828 27.1797V23.6146C21.3828 22.4707 20.6467 21.4813 19.5511 21.1526ZM16.2408 15.75C16.2408 16.9863 15.2349 17.9922 13.9986 17.9922C12.7623 17.9922 11.7564 16.9863 11.7564 15.75C11.7564 14.0167 11.7578 14.5753 11.7578 14.4375C11.7578 13.2012 12.7637 12.1953 14 12.1953C15.2363 12.1953 16.2422 13.2012 16.2422 14.4366L16.2408 15.75ZM12.6328 19.3841C13.5126 19.7159 14.4858 19.7162 15.3672 19.383V20.5355L14 21.3559L12.6328 20.5355V19.3841ZM9.57031 13.5625V13.125C9.57031 10.6825 11.5574 8.69531 14 8.69531C16.4426 8.69531 18.4297 10.6825 18.4297 13.125V13.5625C18.4297 14.3207 18.2339 15.0508 17.8814 15.6924L17.8828 14.4375C17.8828 12.2965 16.141 10.5547 14 10.5547C11.8775 10.5547 10.1472 12.2667 10.1176 14.3823C10.1148 14.4234 10.1158 14.3259 10.1158 15.6874C9.765 15.0471 9.57031 14.3188 9.57031 13.5625ZM19.7422 26.3594H8.25781V23.6146C8.25781 23.2008 8.52409 22.843 8.92035 22.7241L11.7012 21.8899L13.578 23.0159C13.8374 23.1715 14.1618 23.1721 14.4221 23.0159L16.2989 21.8899L19.0797 22.7241C19.476 22.843 19.7422 23.2008 19.7422 23.6146V26.3594H19.7422Z" fill="#11C4E2"/>
</g>
<defs>
<clipPath id="clip0_438_998">
<rect width="28" height="28" fill="white"/>
</clipPath>
</defs>
</svg>
