<svg width="28" height="28" viewBox="0 0 28 28" fill="none" xmlns="http://www.w3.org/2000/svg">
<g clip-path="url(#clip0_469_1656)">
<path d="M10.866 25.7911C10.8021 25.7911 10.9311 25.8027 10.866 25.7911V25.7911ZM12.9701 2.18882C18.2356 2.18882 22.7104 5.9473 23.6104 11.1256C23.7138 11.7208 24.2801 12.1195 24.8752 12.0159C25.4703 11.9125 25.8688 11.3462 25.7654 10.7511C24.8027 4.68387 19.125 -0.0967803 12.97 0.00148814C-2.95569 0.54057 -4.81612 22.6108 10.866 25.7911C12.188 25.76 12.3639 23.8885 11.057 23.6206C-1.79424 21.0051 -0.141507 2.50911 12.9701 2.18882ZM27.981 20.6176C27.981 24.6882 24.6693 28 20.5986 28C10.8182 27.6289 10.8209 13.6047 20.5987 13.2351C24.6693 13.2351 27.981 16.5468 27.981 20.6176ZM25.7937 20.6176C25.7937 17.753 23.4632 15.4225 20.5986 15.4225C13.7162 15.6837 13.718 25.5525 20.5987 25.8126C23.4632 25.8126 25.7937 23.4821 25.7937 20.6176ZM23.7703 20.6176C23.7703 21.2216 23.2807 21.7113 22.6766 21.7113H21.6923V22.6956C21.6923 23.2996 21.2027 23.7893 20.5986 23.7893C19.9946 23.7893 19.5049 23.2996 19.5049 22.6956V21.7113H18.5206C17.9165 21.7113 17.4269 21.2216 17.4269 20.6176C17.4269 20.0135 17.9165 19.5239 18.5206 19.5239H19.5049V18.5396C19.5049 17.9355 19.9946 17.4459 20.5986 17.4459C21.2027 17.4459 21.6923 17.9355 21.6923 18.5396V19.5239H22.6766C23.2807 19.5239 23.7703 20.0135 23.7703 20.6176ZM14.0364 11.7392V5.96207C14.0364 5.35802 13.5468 4.86837 12.9427 4.86837C12.3387 4.86837 11.849 5.35802 11.849 5.96207V11.7392C11.4816 12.0636 11.261 12.5757 11.3082 13.0968L8.18331 16.1745C7.48493 16.8519 7.99022 18.0579 8.95087 18.0474C9.22795 18.0474 9.50521 17.9427 9.71826 17.7329L12.8981 14.6011C14.424 14.6456 15.1632 12.7376 14.0364 11.7392Z" fill="#11C4E2"/>
</g>
<defs>
<clipPath id="clip0_469_1656">
<rect width="28" height="28" fill="white"/>
</clipPath>
</defs>
</svg>
