<svg width="28" height="28" viewBox="0 0 28 28" fill="none" xmlns="http://www.w3.org/2000/svg">
<g clip-path="url(#clip0_469_1658)">
<path d="M5.68945 12.5781H22.3145C22.7675 12.5781 23.1348 12.2108 23.1348 11.7578V0.820312C23.1348 0.367281 22.7675 0 22.3145 0H5.68945C5.23642 0 4.86914 0.367281 4.86914 0.820312V11.7578C4.86914 12.2108 5.23642 12.5781 5.68945 12.5781ZM9.93069 1.64062H18.0733C18.4064 3.36602 19.7688 4.72839 21.4942 5.06149V7.51658C19.7688 7.84968 18.4064 9.21211 18.0733 10.9374H9.93069C9.59759 9.21205 8.23516 7.84968 6.50977 7.51658V5.06149C8.23516 4.72839 9.59759 3.36602 9.93069 1.64062ZM6.50977 9.20702C7.32855 9.471 7.97627 10.1187 8.24019 10.9375H6.50977V9.20702ZM19.7637 10.9375C20.0277 10.1187 20.6754 9.471 21.4941 9.20702V10.9375H19.7637ZM21.4941 3.3711C20.6754 3.10713 20.0276 2.45941 19.7637 1.64062H21.4941V3.3711ZM8.24024 1.64062C7.97627 2.45941 7.3286 3.10713 6.50982 3.3711V1.64062H8.24024Z" fill="#11C4E2"/>
<path d="M14.002 9.29688C15.6605 9.29688 17.0098 7.94757 17.0098 6.28906C17.0098 4.63055 15.6605 3.28125 14.002 3.28125C12.3434 3.28125 10.9941 4.63055 10.9941 6.28906C10.9941 7.94757 12.3434 9.29688 14.002 9.29688ZM14.002 4.92188C14.7558 4.92188 15.3691 5.5352 15.3691 6.28906C15.3691 7.04293 14.7558 7.65625 14.002 7.65625C13.2481 7.65625 12.6348 7.04293 12.6348 6.28906C12.6348 5.5352 13.2481 4.92188 14.002 4.92188Z" fill="#11C4E2"/>
<path d="M27.5083 18.308C27.1091 17.7686 26.5238 17.4171 25.8603 17.3183C25.5398 17.2706 25.2196 17.2851 24.9133 17.3574C24.8435 16.9892 24.692 16.6417 24.4644 16.3347C24.0649 15.7955 23.4795 15.4441 22.816 15.3453C22.1529 15.2464 21.4901 15.4121 20.9509 15.8116C20.9446 15.8163 20.9384 15.8211 20.9321 15.826L17.8539 18.2471C17.6047 18.1656 17.3396 18.1208 17.0651 18.1208H14.2446C11.7214 16.1977 8.73839 15.9469 6.1526 17.3827V17.0006C6.1526 16.5476 5.78532 16.1803 5.33229 16.1803H0.822266C0.369234 16.1803 0.00195312 16.5476 0.00195312 17.0006V26.7517C0.00195312 27.2047 0.369234 27.572 0.822266 27.572H5.33229C5.78532 27.572 6.1526 27.2047 6.1526 26.7517V26.1053L8.08717 26.9672C9.62455 27.6522 11.2575 27.9996 12.9406 27.9996H16.2799C17.9827 27.9926 19.6067 27.454 20.9763 26.442C20.9805 26.4389 20.9847 26.4357 20.9889 26.4325L26.9915 21.8159C28.088 21.0336 28.3327 19.3731 27.5083 18.308ZM21.9357 17.124C22.3066 16.8438 22.8772 16.9322 23.1464 17.3116C23.2581 17.4623 23.3241 17.6411 23.3172 17.8283C23.2989 18.3199 22.9867 18.5262 22.9583 18.5659L19.9866 20.8049C19.8545 20.8988 19.7175 20.9834 19.5764 21.0586C19.6038 20.8966 19.6156 20.7307 19.6109 20.5625C19.5979 20.0901 19.4484 19.6489 19.2014 19.2748L21.9357 17.124ZM4.51203 25.9315H1.64258V17.821H4.51198V18.9411V24.8418L4.51203 25.9315ZM26.3518 19.9309C26.3171 20.1661 26.1896 20.3727 25.9966 20.5114L19.9952 25.127C18.9093 25.9274 17.6224 26.3534 16.2765 26.3589H12.9406C11.4891 26.3589 10.0808 26.0594 8.75491 25.4687L6.15266 24.3093V19.3405C8.41809 17.6158 11.1331 17.6995 13.4439 19.5776C13.5893 19.6954 13.7741 19.7606 13.9611 19.7614H17.0652C17.5517 19.7614 17.9579 20.141 17.9708 20.6077C17.9951 21.0877 17.5724 21.5176 17.0934 21.5033H13.7452C13.2922 21.5033 12.9249 21.8706 12.9249 22.3236C12.9249 22.7766 13.2922 23.1439 13.7452 23.1439L17.8641 23.1326C18.9758 23.1265 20.0421 22.7813 20.9481 22.1342C20.9538 22.1302 20.9595 22.1261 20.965 22.1218L24.9739 19.1014C25.3449 18.8163 25.9193 18.9026 26.1902 19.2846C26.3286 19.4715 26.386 19.7009 26.3518 19.9309Z" fill="#11C4E2"/>
</g>
<defs>
<clipPath id="clip0_469_1658">
<rect width="28" height="28" fill="white"/>
</clipPath>
</defs>
</svg>
