<svg width="28" height="28" viewBox="0 0 28 28" fill="none" xmlns="http://www.w3.org/2000/svg">
<g clip-path="url(#clip0_469_1663)">
<path d="M24.9922 6.67188H24.1172V6.28906C24.1172 6.07146 24.0307 5.86283 23.8769 5.70905L18.4081 0.240297C18.2543 0.0864063 18.0457 0 17.8281 0H4.70312C4.25009 0 3.88281 0.367281 3.88281 0.820312V5.57812H3.00781C1.3493 5.57812 0 6.92743 0 8.58594V24.9922C0 26.6507 1.3493 28 3.00781 28H24.9922C26.6507 28 28 26.6507 28 24.9922V9.67969C28 8.02118 26.6507 6.67188 24.9922 6.67188ZM24.9922 8.3125C25.7461 8.3125 26.3594 8.92582 26.3594 9.67969V10.2832C25.9488 10.0727 25.4844 9.95312 24.9922 9.95312H24.1172V8.3125H24.9922ZM18.6484 2.80071L21.3165 5.46875H18.9219C18.7711 5.46875 18.6484 5.34609 18.6484 5.19531V2.80071ZM5.52344 1.64062H17.0078V5.19531C17.0078 6.25073 17.8665 7.10938 18.9219 7.10938H22.4766V9.95312H14.507L13.1509 7.24079C12.638 6.21518 11.6072 5.57812 10.4606 5.57812H5.52344V1.64062ZM26.3594 24.9922C26.3594 25.7461 25.7461 26.3594 24.9922 26.3594H3.00781C2.25395 26.3594 1.64062 25.7461 1.64062 24.9922V8.58594C1.64062 7.83207 2.25395 7.21875 3.00781 7.21875H10.4606C10.9817 7.21875 11.4504 7.50832 11.6834 7.97448L13.2663 11.1403C13.4053 11.4182 13.6893 11.5938 14 11.5938H24.9922C25.7461 11.5938 26.3594 12.2071 26.3594 12.9609V24.9922Z" fill="#11C4E2"/>
<path d="M18.375 16.5156H16.4609V14.6016C16.4609 14.1485 16.0937 13.7812 15.6406 13.7812H12.3594C11.9063 13.7812 11.5391 14.1485 11.5391 14.6016V16.5156H9.625C9.17197 16.5156 8.80469 16.8829 8.80469 17.3359V20.6172C8.80469 21.0702 9.17197 21.4375 9.625 21.4375H11.5391V23.3516C11.5391 23.8046 11.9063 24.1719 12.3594 24.1719H15.6406C16.0937 24.1719 16.4609 23.8046 16.4609 23.3516V21.4375H18.375C18.828 21.4375 19.1953 21.0702 19.1953 20.6172V17.3359C19.1953 16.8829 18.828 16.5156 18.375 16.5156ZM17.5547 19.7969H15.6406C15.1876 19.7969 14.8203 20.1642 14.8203 20.6172V22.5312H13.1797V20.6172C13.1797 20.1642 12.8124 19.7969 12.3594 19.7969H10.4453V18.1562H12.3594C12.8124 18.1562 13.1797 17.789 13.1797 17.3359V15.4219H14.8203V17.3359C14.8203 17.789 15.1876 18.1562 15.6406 18.1562H17.5547V19.7969Z" fill="#11C4E2"/>
</g>
<defs>
<clipPath id="clip0_469_1663">
<rect width="28" height="28" fill="white"/>
</clipPath>
</defs>
</svg>
