<svg width="28" height="28" viewBox="0 0 28 28" fill="none" xmlns="http://www.w3.org/2000/svg">
<g clip-path="url(#clip0_469_1667)">
<path d="M23.0234 8.88059V0H4.97656V8.88059L0 11.9568V28H28V11.9568L23.0234 8.88059ZM9.34478 20.5439L1.64062 25.6516V14.1592L9.34478 20.5439ZM10.966 21.4375H17.034L24.4578 26.3594H3.54216L10.966 21.4375ZM18.6552 20.5439L26.3594 14.1592V25.6516L18.6552 20.5439ZM25.7768 12.5113L23.0234 14.7931V10.8093L25.7768 12.5113ZM21.3828 1.64062V16.1527L16.9856 19.7969H11.0144L6.61719 16.1527V1.64062H21.3828ZM4.97656 14.7931L2.22321 12.5113L4.97656 10.8093V14.7931Z" fill="#11C4E2"/>
<path d="M8.25781 3.39062H19.7422V5.03125H8.25781V3.39062Z" fill="#11C4E2"/>
<path d="M14 9.95312C14.4523 9.95312 14.8203 10.3211 14.8203 10.7734H16.4609C16.4609 9.70402 15.7751 8.79222 14.8203 8.45359V6.67188H13.1797V8.45359C12.2249 8.79222 11.5391 9.70402 11.5391 10.7734C11.5391 12.1304 12.643 13.2344 14 13.2344C14.4523 13.2344 14.8203 13.6024 14.8203 14.0547C14.8203 14.507 14.4523 14.875 14 14.875C13.5477 14.875 13.1797 14.507 13.1797 14.0547H11.5391C11.5391 15.1241 12.2249 16.0359 13.1797 16.3745V18.1562H14.8203V16.3745C15.7751 16.0359 16.4609 15.1241 16.4609 14.0547C16.4609 12.6977 15.357 11.5938 14 11.5938C13.5477 11.5938 13.1797 11.2258 13.1797 10.7734C13.1797 10.3211 13.5477 9.95312 14 9.95312Z" fill="#11C4E2"/>
</g>
<defs>
<clipPath id="clip0_469_1667">
<rect width="28" height="28" fill="white"/>
</clipPath>
</defs>
</svg>
