<svg width="28" height="28" viewBox="0 0 28 28" fill="none" xmlns="http://www.w3.org/2000/svg">
<g clip-path="url(#clip0_469_1671)">
<path fill-rule="evenodd" clip-rule="evenodd" d="M14 0.875C12.9319 0.875 12.0624 1.56817 11.7197 2.50343C8.00901 3.55411 5.31921 7.09393 5.31252 11.2501C4.7355 11.7174 4.375 12.4448 4.375 13.2344C4.375 14.583 5.42657 15.75 6.81249 15.75H21.1875C22.5734 15.75 23.625 14.583 23.625 13.2344C23.625 12.4448 23.2645 11.7174 22.6875 11.2501C22.6808 7.09393 19.991 3.55411 16.2803 2.50343C15.9376 1.56817 15.0682 0.875 14 0.875ZM13.3125 3.39062C13.3125 2.92706 13.6601 2.625 14 2.625C14.3399 2.625 14.6875 2.92706 14.6875 3.39062V10.7188H13.3125V3.39062ZM11.5625 10.7188H7.08146C7.28477 7.79769 9.10341 5.3795 11.5625 4.403V10.7188ZM6.125 13.2344C6.125 12.7709 6.47242 12.4689 6.81231 12.4688H21.1875C21.5275 12.4688 21.875 12.7708 21.875 13.2344C21.875 13.698 21.5275 14 21.1875 14H6.81249C6.47255 14 6.125 13.698 6.125 13.2344ZM20.9185 10.7188H16.4375V4.403C18.8966 5.3795 20.7152 7.79769 20.9185 10.7188Z" fill="#11C4E2"/>
<path fill-rule="evenodd" clip-rule="evenodd" d="M0.875 18.375C0.875 18.8583 1.26675 19.25 1.75 19.25H9.18864C10.5439 19.2507 11.8125 20.5219 11.8125 22.3125C11.8125 24.1036 10.5432 25.375 9.1875 25.375H1.75C1.26675 25.375 0.875 25.7667 0.875 26.25C0.875 26.7333 1.26675 27.125 1.75 27.125H22.3125C24.9704 27.125 27.125 24.9704 27.125 22.3125C27.125 19.6546 24.9704 17.5 22.3125 17.5H1.75C1.26675 17.5 0.875 17.8917 0.875 18.375ZM13.5625 22.3125C13.5625 21.1743 13.1933 20.0961 12.5623 19.25H22.3125C24.0039 19.25 25.375 20.6211 25.375 22.3125C25.375 24.0039 24.0039 25.375 22.3125 25.375H12.5623C13.1933 24.5289 13.5625 23.4507 13.5625 22.3125Z" fill="#11C4E2"/>
<path d="M9.1875 21.4375H1.75C1.26675 21.4375 0.875 21.8292 0.875 22.3125C0.875 22.7958 1.26675 23.1875 1.75 23.1875H9.1875C9.67076 23.1875 10.0625 22.7958 10.0625 22.3125C10.0625 21.8292 9.67076 21.4375 9.1875 21.4375Z" fill="#11C4E2"/>
</g>
<defs>
<clipPath id="clip0_469_1671">
<rect width="28" height="28" fill="white"/>
</clipPath>
</defs>
</svg>
