<svg width="32" height="32" viewBox="0 0 32 32" fill="none" xmlns="http://www.w3.org/2000/svg">
<path d="M24.7495 13.3147V2.17147C24.7495 0.974083 23.7754 0 22.578 0H4.92196C3.72457 0 2.75049 0.974083 2.75049 2.17147V25.3273C2.75049 26.5247 3.72457 27.4988 4.92196 27.4988H18.2498V30.9987C18.2498 31.7634 19.0779 32.2485 19.7459 31.8669L22.7496 30.1505C26.0672 32.0462 25.8938 31.9986 26.2495 31.9986C26.8017 31.9986 27.2494 31.5503 27.2494 30.9987V24.1848C30.8085 20.7656 29.3988 14.8217 24.7495 13.3147ZM4.92196 25.4989C4.82734 25.4989 4.7504 25.422 4.7504 25.3273V2.17147C4.7504 2.07685 4.82734 1.99991 4.92196 1.99991H22.5781C22.6727 1.99991 22.7496 2.07685 22.7496 2.17147V12.9994C19.1657 12.9994 16.2499 15.9152 16.2499 19.4992C16.2499 21.3383 17.0179 23.0013 18.2498 24.1848V25.4989H4.92196ZM25.2495 29.2756L23.2457 28.1305C22.9382 27.9549 22.5609 27.9549 22.2535 28.1305L20.2497 29.2756V25.4986C21.8442 26.1655 23.6528 26.1664 25.2495 25.4986L25.2495 29.2756ZM22.7496 23.999C20.2684 23.999 18.2498 21.9804 18.2498 19.4992C18.2498 17.018 20.2684 14.9994 22.7496 14.9994C25.2308 14.9994 27.2494 17.018 27.2494 19.4992C27.2494 21.9804 25.2308 23.999 22.7496 23.999Z" fill="#11C4E2"/>
<path d="M17.2501 6.99991H8.75045C8.19822 6.99991 7.75049 6.55218 7.75049 5.99996C7.75049 5.44773 8.19822 5 8.75045 5H17.2501C17.8024 5 18.25 5.44773 18.25 5.99996C18.25 6.55218 17.8023 6.99991 17.2501 6.99991Z" fill="#11C4E2"/>
<path d="M17.2501 10.9994H8.75045C8.19822 10.9994 7.75049 10.5517 7.75049 9.99947C7.75049 9.44724 8.19822 8.99951 8.75045 8.99951H17.2501C17.8024 8.99951 18.25 9.44724 18.25 9.99947C18.25 10.5517 17.8023 10.9994 17.2501 10.9994Z" fill="#11C4E2"/>
<path d="M13.7502 14.9994H8.75045C8.19822 14.9994 7.75049 14.5517 7.75049 13.9995C7.75049 13.4472 8.19822 12.9995 8.75045 12.9995H13.7502C14.3025 12.9995 14.7502 13.4472 14.7502 13.9995C14.7502 14.5517 14.3025 14.9994 13.7502 14.9994Z" fill="#11C4E2"/>
<path d="M21 18L24 21" stroke="#11C4E2" stroke-width="2" stroke-linecap="round"/>
<path d="M24 18L21 21" stroke="#11C4E2" stroke-width="2" stroke-linecap="round"/>
</svg>
