<svg width="28" height="28" viewBox="0 0 28 28" fill="none" xmlns="http://www.w3.org/2000/svg">
<g clip-path="url(#clip0_469_1676)">
<path d="M22.3683 0C19.2684 0 16.7466 2.51409 16.7466 5.60427C16.7466 8.69444 19.2684 11.2085 22.3683 11.2085C25.4681 11.2085 27.9899 8.69444 27.9899 5.60427C27.9899 2.51409 25.4681 0 22.3683 0ZM22.3683 2.1875C22.9141 2.1875 23.4307 2.31487 23.8894 2.54127L19.2916 7.12141C19.0628 6.66405 18.9341 6.14879 18.9341 5.60421C18.9341 3.72023 20.4747 2.1875 22.3683 2.1875ZM22.3683 9.02098C21.8204 9.02098 21.302 8.89262 20.8419 8.66458L25.4423 4.08182C25.6727 4.54048 25.8024 5.05755 25.8024 5.60421C25.8024 7.48825 24.2619 9.02098 22.3683 9.02098Z" fill="#11C4E2"/>
<path d="M17.8653 19.707C17.8612 19.7069 18.3749 19.8391 17.853 19.7069C17.2546 19.7069 16.9011 16.025 16.8945 16.6249C16.8805 17.9071 17.601 22.893 14.408 23.1141H12.983C12.3789 23.1141 11.8893 23.6037 11.8893 24.2078V25.8122H7.0679V24.2079C7.0679 23.6038 6.57823 23.1141 5.97415 23.1141H4.54916C3.25235 23.1141 2.19732 22.059 2.19732 20.7621V12.1637C2.19732 11.4864 2.74824 10.9355 3.42538 10.9355C4.10252 10.9355 4.65345 11.4864 4.65345 12.1637V17.1723C4.65345 17.7764 5.14312 18.2661 5.7472 18.2661C6.35127 18.2661 6.84095 17.7764 6.84095 17.1723V3.86587C6.84095 3.18862 7.39187 2.6377 8.06901 2.6377C8.74615 2.6377 9.29707 3.18862 9.29707 3.86587V11.4834C9.29707 12.0875 9.78674 12.5771 10.3908 12.5771H13.6009C15.2415 12.5771 16.5936 13.8068 16.7459 15.4375C16.8021 16.0389 17.2514 19.7633 17.853 19.7069C18.4545 19.6508 18.9801 15.8355 18.9239 15.2341C18.8006 13.9136 18.1923 12.6914 17.2111 11.7927C16.2233 10.888 14.9411 10.3897 13.6009 10.3897H11.4846V3.86587C11.4846 1.98248 9.95234 0.450195 8.06895 0.450195C6.18562 0.450195 4.65339 1.98248 4.65339 3.86587V8.97619C4.27211 8.82881 3.85802 8.74793 3.42533 8.74793C1.542 8.74793 0.00976562 10.2802 0.00976562 12.1636V20.7621C0.00976562 23.2652 2.04611 25.3016 4.5491 25.3016H4.88034V26.9059C4.88034 27.51 5.37002 27.9997 5.97409 27.9997H12.983C13.587 27.9997 14.0767 27.51 14.0767 26.9059V25.3016H14.4079C15.6116 25.3016 16.7456 24.8354 17.601 23.9886C19.6874 22.3124 18.9108 16.7038 18.9239 15.5019C18.9306 14.8978 18.4694 19.7136 17.8653 19.707Z" fill="#11C4E2"/>
</g>
<defs>
<clipPath id="clip0_469_1676">
<rect width="28" height="28" fill="white"/>
</clipPath>
</defs>
</svg>
