<svg width="32" height="32" viewBox="0 0 32 32" fill="none" xmlns="http://www.w3.org/2000/svg">
<g clip-path="url(#clip0_469_1778)">
<path d="M22.5774 17.2736L20.6406 15.3367L25.7594 10.2179L26.4223 10.8808C26.8515 11.31 27.5739 11.2255 27.889 10.7002L31.8664 4.07131C32.0878 3.70244 32.0296 3.23026 31.7254 2.92613L29.0738 0.27458C28.7697 -0.0296061 28.2974 -0.0876684 27.9286 0.133581L21.2997 4.11094C20.7766 4.42481 20.6886 5.14719 21.1191 5.57768L21.7821 6.24056L16.6632 11.3593L14.7263 9.42248C15.4081 6.87512 14.7127 4.10538 12.7844 2.17701C10.3723 -0.23498 6.76155 -0.616729 3.93775 0.904328C3.67688 1.04489 3.49781 1.30045 3.45475 1.59364C3.41175 1.88682 3.50988 2.18307 3.71944 2.39263L7.23767 5.91087C7.60324 6.27643 7.60324 6.87118 7.23767 7.23662C6.87211 7.60218 6.27743 7.60224 5.91187 7.23662L2.39363 3.71832C2.18407 3.50875 1.88776 3.41057 1.59463 3.45363C1.30145 3.49663 1.04589 3.67575 0.905325 3.93663C-0.609982 6.74987 -0.242108 10.363 2.17813 12.7832C4.10219 14.7073 6.87049 15.4085 9.4236 14.7252L10.0345 15.336L1.37507 23.9956C-0.457795 25.8285 -0.45892 28.7908 1.37507 30.6248C3.20275 32.4525 6.17655 32.4526 8.0043 30.6248L16.6636 21.9652L17.2746 22.5762C16.5929 25.1236 17.2883 27.8933 19.2166 29.8217C21.6286 32.2338 25.2394 32.6155 28.0632 31.0945C28.3241 30.9539 28.5032 30.6983 28.5462 30.4051C28.5892 30.112 28.4911 29.8157 28.2815 29.6062L24.7633 26.0879C24.3977 25.7224 24.3977 25.1276 24.7633 24.7622C25.1289 24.3966 25.7236 24.3967 26.0891 24.7622L29.6073 28.2804C29.8168 28.49 30.1131 28.588 30.4063 28.5451C30.6995 28.5021 30.9551 28.323 31.0956 28.0621C32.611 25.2489 32.2431 21.6357 29.8229 19.2155C27.8988 17.2915 25.1305 16.5903 22.5774 17.2736ZM28.2656 2.11795L29.882 3.73432L26.899 8.70592L23.2939 5.10094L28.2656 2.11795ZM23.1078 7.56636L24.4335 8.89211L19.3148 14.0109L17.9889 12.6852L23.1078 7.56636ZM6.67849 29.2992C5.58187 30.3958 3.7975 30.3958 2.70082 29.2992C1.60051 28.1988 1.59982 26.4225 2.70082 25.3215L11.3602 16.6619L15.3378 20.6396L6.67849 29.2992ZM29.9331 25.9546L27.4149 23.4364C26.3184 22.34 24.5342 22.3399 23.4375 23.4364C22.3411 24.5329 22.3411 26.3172 23.4375 27.4138L25.9557 29.932C24.0425 30.4543 21.9861 29.9396 20.5424 28.496C19.0145 26.9681 18.4957 24.6647 19.2208 22.6277C19.3421 22.2867 19.2564 21.9064 19.0004 21.6505L10.3494 12.9995C10.094 12.7441 9.71391 12.6575 9.37217 12.7792C7.33517 13.5042 5.03181 12.9853 3.50388 11.4575C2.06026 10.0139 1.54557 7.95749 2.06795 6.04424L4.58612 8.56242C5.68262 9.65892 7.46686 9.65886 8.56348 8.56242C9.65998 7.46593 9.65998 5.68168 8.56348 4.58506L6.0453 2.06689C7.95848 1.54439 10.015 2.0592 11.4586 3.50282C12.9865 5.03075 13.5053 7.33418 12.7803 9.37111C12.6589 9.71211 12.7447 10.0925 13.0006 10.3484L21.6516 18.9993C21.9075 19.2553 22.2879 19.3409 22.6288 19.2196C24.6657 18.4946 26.9692 19.0134 28.4971 20.5413C29.9408 21.9851 30.4555 24.0414 29.9331 25.9546Z" fill="#11C4E2"/>
<path d="M12.1892 19.9992C11.8231 19.6331 11.2296 19.6331 10.8635 19.9992L5.1349 25.7279C4.76884 26.0941 4.76884 26.6876 5.1349 27.0537C5.50108 27.4198 6.09452 27.4198 6.46064 27.0537L12.1892 21.3249C12.5552 20.9588 12.5552 20.3652 12.1892 19.9992Z" fill="#11C4E2"/>
</g>
<defs>
<clipPath id="clip0_469_1778">
<rect width="32" height="32" fill="white"/>
</clipPath>
</defs>
</svg>
