<svg width="32" height="32" viewBox="0 0 32 32" fill="none" xmlns="http://www.w3.org/2000/svg">
<g clip-path="url(#clip0_469_1800)">
<path d="M32 21.6467V16.9408C32 14.6683 30.3807 12.7668 28.2353 12.3296V10.3526H26.3529V12.2349H24.8604L19.2134 6.58789H8.83006L6.00653 12.2349H4.70588C2.111 12.2349 0 14.346 0 16.9408V21.6467H4.70588C4.70588 22.3322 4.89092 22.9749 5.21236 23.5291H0V25.4114H32V23.5291H26.7876C27.1091 22.9749 27.2941 22.3322 27.2941 21.6467H32ZM22.1984 12.2349H16V8.47024H18.4337L22.1984 12.2349ZM9.99341 8.47024H14.1176V12.2349H8.11106L9.99341 8.47024ZM1.88235 19.7644V17.882H3.76471V15.9997H2.04424C2.43275 14.9042 3.4789 14.1173 4.70588 14.1173H27.2941C28.5211 14.1173 29.5672 14.9042 29.9558 15.9997H28.2353V17.882H30.1176V19.7644H26.79C25.3833 17.2746 21.6798 17.2696 20.2688 19.7644H11.7312C10.3303 17.2707 6.60405 17.2785 5.20998 19.7644H1.88235ZM12.2353 21.6467H19.7647C19.7647 22.3322 19.9497 22.9749 20.2712 23.5291H11.7288C12.0503 22.9749 12.2353 22.3322 12.2353 21.6467ZM6.58824 21.6467C6.58824 20.5998 7.43962 19.7644 8.47059 19.7644C10.9605 19.8565 10.9678 23.4326 8.47059 23.5291C7.43266 23.5291 6.58824 22.6846 6.58824 21.6467ZM21.6471 21.6467C21.6471 20.5998 22.4984 19.7644 23.5294 19.7644C26.0204 19.8569 26.0256 23.4333 23.5294 23.5291C22.4915 23.5291 21.6471 22.6846 21.6471 21.6467Z" fill="#11C4E2"/>
<path d="M13.1763 16H16.941V17.8824H13.1763V16Z" fill="#11C4E2"/>
</g>
<defs>
<clipPath id="clip0_469_1800">
<rect width="32" height="32" fill="white"/>
</clipPath>
</defs>
</svg>
