<svg width="32" height="32" viewBox="0 0 32 32" fill="none" xmlns="http://www.w3.org/2000/svg">
<g clip-path="url(#clip0_469_1804)">
<path d="M31.3749 10.8773H29.5256C29.2487 9.58776 28.7338 8.34533 28.016 7.23433L29.3243 5.92603C29.5682 5.68203 29.5683 5.28616 29.3243 5.0421L26.9578 2.67561C26.7137 2.43155 26.318 2.43155 26.0738 2.67561L24.7655 3.98391C23.6546 3.26598 22.4121 2.75111 21.1226 2.47424V0.624996C21.1226 0.279811 20.8428 0 20.4976 0H17.1503C16.8052 0 16.5253 0.279811 16.5253 0.624996V2.47424C15.2357 2.75111 13.9933 3.26598 12.8823 3.98391L11.574 2.67561C11.3299 2.43155 10.9342 2.43155 10.6901 2.67561L8.76351 4.60216C6.32415 3.75148 3.76529 5.57178 3.76529 8.15551C3.76529 9.12051 4.13079 10.0015 4.73016 10.6683H4.39029C1.96949 10.6683 0 12.6377 0 15.0585V20.3569C0 21.5625 0.964307 22.5624 2.14867 22.5858C2.49142 22.5927 2.83136 22.5181 3.13773 22.3722V29.4921C3.13773 30.8775 4.25991 31.9998 5.64534 31.9998C6.39459 31.9998 7.06815 31.6696 7.52802 31.1469C8.4822 32.2313 10.1545 32.2941 11.1836 31.2651C11.6574 30.7913 11.9183 30.1616 11.9183 29.4921V22.3731C12.3252 22.5677 12.769 22.6256 13.1926 22.5619C14.2304 23.1859 15.3482 23.6274 16.5252 23.8782V25.7269C16.5252 26.072 16.8051 26.3519 17.1502 26.3519H20.4976C20.8427 26.3519 21.1226 26.072 21.1226 25.7269V23.8776C22.4121 23.6007 23.6545 23.0859 24.7655 22.368L26.0738 23.6763C26.3179 23.9203 26.7135 23.9203 26.9577 23.6763L29.3242 21.3098C29.5683 21.0658 29.5683 20.67 29.3242 20.4259L28.0159 19.1176C28.7338 18.0066 29.2487 16.7642 29.5255 15.4747H31.3748C31.7199 15.4747 31.9998 15.1948 31.9998 14.8496V11.5022C31.9999 11.1571 31.72 10.8773 31.3749 10.8773ZM5.01535 8.15558C5.01535 6.77009 6.14253 5.64284 7.52808 5.64284C8.91364 5.64284 10.0408 6.77009 10.0408 8.15558C10.0408 9.54113 8.91364 10.6683 7.52808 10.6683C6.14253 10.6683 5.01535 9.54107 5.01535 8.15558ZM11.9184 20.3928V16.3137C11.9184 15.9685 11.6385 15.6887 11.2934 15.6887C10.9482 15.6887 10.6684 15.9685 10.6684 16.3137V29.4921C10.6684 30.1865 10.1054 30.7498 9.41069 30.7498C8.7172 30.7498 8.15308 30.1856 8.15308 29.4921V21.9616C8.15308 21.6164 7.8732 21.3366 7.52808 21.3366C7.18296 21.3366 6.90308 21.6164 6.90308 21.9616V29.4921C6.90308 30.1856 6.3389 30.7498 5.6454 30.7498C4.95097 30.7498 4.38779 30.1867 4.38779 29.4921C4.38779 28.4066 4.38779 16.8022 4.38779 16.3137C4.38779 15.9685 4.10791 15.6887 3.76279 15.6887C3.41767 15.6887 3.13779 15.9685 3.13779 16.3137V20.3928C3.13779 20.9053 2.72455 21.3442 2.17424 21.3361C1.66468 21.3261 1.25006 20.8868 1.25006 20.3569V15.0586C1.25006 13.327 2.6588 11.9183 4.39035 11.9183C8.66976 11.9185 9.47138 11.9183 10.6658 11.9183C12.3974 11.9183 13.8061 13.327 13.8061 15.0586V20.3928C13.8061 20.9146 13.3844 21.3366 12.8622 21.3366C12.3417 21.3366 11.9184 20.9132 11.9184 20.3928ZM13.1226 11.4219C13.8839 8.92195 16.1678 7.21171 18.8239 7.21171C22.1126 7.21171 24.7882 9.88725 24.7882 13.176C24.7882 16.4647 22.1126 19.1403 18.8239 19.1403C17.4457 19.1403 16.1183 18.666 15.0561 17.7993V15.0587C15.0561 13.5473 14.2884 12.2119 13.1226 11.4219ZM30.7499 14.2246H29.0078C28.7014 14.2246 28.4402 14.4467 28.3909 14.749C28.1526 16.2105 27.5681 17.6213 26.7004 18.8287C26.5218 19.0774 26.5495 19.4188 26.766 19.6354L27.9984 20.8678L26.5158 22.3504L25.2834 21.118C25.0668 20.9014 24.7254 20.8738 24.4767 21.0524C23.2693 21.9201 21.8585 22.5046 20.3971 22.7429C20.0947 22.7922 19.8726 23.0534 19.8726 23.3597V25.1019H17.7753V23.3597C17.7753 23.0534 17.5531 22.7921 17.2507 22.7429C16.2875 22.5861 15.3653 22.288 14.4982 21.8543C14.8587 21.4517 15.056 20.9376 15.056 20.3927V19.3284C16.1824 20.0189 17.4832 20.3901 18.8238 20.3901C22.8017 20.3901 26.0381 17.1538 26.0381 13.1759C26.0381 9.19788 22.8019 5.96172 18.8239 5.96172C15.723 5.96172 12.9788 7.94095 11.9881 10.8722C11.1596 10.6099 10.5332 10.6803 10.3259 10.6683C11.7579 9.07551 11.5803 6.60371 9.89794 5.23566L11.1321 4.00148L12.3644 5.23384C12.5811 5.45034 12.9225 5.47809 13.1711 5.29941C14.3785 4.43172 15.7893 3.84717 17.2508 3.60892C17.5532 3.5596 17.7753 3.29842 17.7753 2.99205V1.24999H19.8726V2.99211C19.8726 3.29848 20.0947 3.55967 20.3971 3.60898C21.8586 3.84723 23.2693 4.43179 24.4767 5.29947C24.7254 5.47816 25.0668 5.45041 25.2834 5.23391L26.5158 4.00154L27.9984 5.48416L26.766 6.71652C26.5495 6.93302 26.5218 7.27452 26.7004 7.52321C27.5681 8.73064 28.1526 10.1414 28.3909 11.6029C28.4402 11.9053 28.7014 12.1274 29.0078 12.1274H30.7499V14.2246Z" fill="#11C4E2"/>
<path d="M19.6736 12.5523C19.0922 12.3467 18.4491 12.0983 18.0875 11.8148C17.8173 11.6028 17.9286 10.8656 18.4492 10.7088C19.1471 10.4986 19.604 10.8662 19.6432 10.8993C19.8943 11.1236 20.28 11.109 20.5131 10.8628C20.7505 10.6123 20.7409 10.2166 20.4904 9.97927C20.3308 9.82902 19.8749 9.56927 19.4374 9.4592V9.1582C19.4374 8.81302 19.1575 8.5332 18.8124 8.5332C18.4672 8.5332 18.1874 8.81302 18.1874 9.1582V9.48202C17.6874 9.55889 16.907 10.1216 16.7298 11.0621C16.6004 11.7487 16.8252 12.414 17.3152 12.7984C17.7213 13.1169 18.2841 13.387 19.2565 13.7308C19.9168 13.9642 19.9026 14.499 19.8658 14.7181C19.7915 15.1605 19.4193 15.6387 18.7778 15.643C18.1545 15.6479 17.9597 15.6163 17.4798 15.3024C17.1909 15.1135 16.8035 15.1945 16.6147 15.4833C16.4257 15.7721 16.5021 16.1595 16.791 16.3485C17.3217 16.6956 17.6875 16.829 18.1875 16.8735V17.1951C18.1875 17.5403 18.4673 17.8201 18.8125 17.8201C19.1576 17.8201 19.4375 17.5403 19.4375 17.1951V16.7978C20.375 16.5273 20.9605 15.721 21.0942 14.9253C21.2716 13.8699 20.7035 12.9163 19.6736 12.5523Z" fill="#11C4E2"/>
</g>
<defs>
<clipPath id="clip0_469_1804">
<rect width="32" height="32" fill="white"/>
</clipPath>
</defs>
</svg>
