<svg width="32" height="32" viewBox="0 0 32 32" fill="none" xmlns="http://www.w3.org/2000/svg">
<path d="M29 2H11C10.448 2 10 2.448 10 3V5C10 5.031 10.015 5.057 10.018 5.088C7.176 5.559 5 8.027 5 11C5 11.552 5.448 12 6 12C6.552 12 7 11.552 7 11C7 8.794 8.794 7 11 7C13.206 7 15 8.794 15 11V12.969L11.243 12.03C11.084 11.99 10.917 11.99 10.758 12.03L2.758 14.03C2.313 14.141 2 14.541 2 15C2 20.117 4.376 24.96 8.52 28.289L10.374 29.779C10.419 29.815 10.473 29.834 10.522 29.861C10.562 29.883 10.598 29.91 10.641 29.927C10.757 29.972 10.878 30 11 30H29C29.552 30 30 29.552 30 29V3C30 2.448 29.552 2 29 2ZM16.188 8H24V11H17C17 9.907 16.701 8.884 16.188 8ZM4.021 15.775L11 14.031L17.979 15.776C17.752 19.996 15.685 23.953 12.228 26.731L11 27.717L9.772 26.73C6.315 23.953 4.248 19.995 4.021 15.775ZM28 28H13.804C17.738 24.682 20 19.976 20 15C20 14.541 19.687 14.141 19.243 14.03L17 13.469V13H25C25.552 13 26 12.552 26 12V7C26 6.448 25.552 6 25 6H15C14.819 6 14.658 6.061 14.512 6.145C13.776 5.611 12.916 5.242 11.982 5.087C11.985 5.057 12 5.031 12 5V4H28V28Z" fill="#11C4E2"/>
<path d="M25.5 19C26.3284 19 27 18.3284 27 17.5C27 16.6716 26.3284 16 25.5 16C24.6716 16 24 16.6716 24 17.5C24 18.3284 24.6716 19 25.5 19Z" fill="#11C4E2"/>
<path d="M12 21V19C12 18.448 11.552 18 11 18C10.448 18 10 18.448 10 19V21C10 21.552 10.448 22 11 22C11.552 22 12 21.552 12 21Z" fill="#11C4E2"/>
</svg>
