<svg width="32" height="32" viewBox="0 0 32 32" fill="none" xmlns="http://www.w3.org/2000/svg">
<path fill-rule="evenodd" clip-rule="evenodd" d="M4.97363 5.54785C4.97363 4.14071 6.11434 3 7.52148 3H23.6747C25.6113 3 27.1839 4.55771 27.2082 6.48848H27.4665C29.4181 6.48848 31.0003 8.0706 31.0003 10.0222V21.5494C31.0003 23.5011 29.4181 25.0832 27.4665 25.0832H11.5067V23.476H27.4665C28.5305 23.476 29.3931 22.6134 29.3931 21.5494V10.0222C29.3931 8.95824 28.5305 8.0957 27.4665 8.0957H7.52148C7.18925 8.0957 6.87188 8.03212 6.58086 7.91645V17.3599H4.97363V5.54785ZM6.58086 5.54785C6.58086 6.06735 7.002 6.48848 7.52148 6.48848H25.6006C25.5767 5.44541 24.7236 4.60722 23.6747 4.60722H7.52148C7.002 4.60722 6.58086 5.02836 6.58086 5.54785Z" fill="#11C4E2"/>
<path fill-rule="evenodd" clip-rule="evenodd" d="M16.4248 15.4091C16.4248 13.0806 18.3125 11.1929 20.641 11.1929H31.0001V19.6253H20.641C18.3125 19.6253 16.4248 17.7377 16.4248 15.4091ZM20.641 12.8001C19.2002 12.8001 18.032 13.9682 18.032 15.4091C18.032 16.85 19.2002 18.0181 20.641 18.0181H29.3929V12.8001H20.641Z" fill="#11C4E2"/>
<path fill-rule="evenodd" clip-rule="evenodd" d="M20.6409 15.8469C20.884 15.8469 21.0812 15.6498 21.0812 15.4065C21.0812 15.1633 20.884 14.9661 20.6409 14.9661C20.3977 14.9661 20.2005 15.1633 20.2005 15.4065C20.2005 15.6498 20.3977 15.8469 20.6409 15.8469ZM20.6409 17.4541C21.7717 17.4541 22.6885 16.5373 22.6885 15.4065C22.6885 14.2756 21.7717 13.3589 20.6409 13.3589C19.51 13.3589 18.5933 14.2756 18.5933 15.4065C18.5933 16.5373 19.51 17.4541 20.6409 17.4541Z" fill="#11C4E2"/>
<path fill-rule="evenodd" clip-rule="evenodd" d="M10.9642 7.21582C10.9642 10.1645 8.57374 12.5549 5.625 12.5549V14.1621C9.46138 14.1621 12.5714 11.0522 12.5714 7.21582H10.9642Z" fill="#11C4E2"/>
<path fill-rule="evenodd" clip-rule="evenodd" d="M6.4289 17.9109C3.76597 17.9109 1.60722 20.0696 1.60722 22.7326C1.60722 25.3955 3.76597 27.5543 6.4289 27.5543C9.09183 27.5543 11.2506 25.3955 11.2506 22.7326C11.2506 20.0696 9.09183 17.9109 6.4289 17.9109ZM0 22.7326C0 19.1819 2.87831 16.3037 6.4289 16.3037C9.97948 16.3037 12.8578 19.1819 12.8578 22.7326C12.8578 26.2831 9.97948 29.1615 6.4289 29.1615C2.87831 29.1615 0 26.2831 0 22.7326Z" fill="#11C4E2"/>
<path d="M5 21L8 24" stroke="#11C4E2" stroke-width="2" stroke-linecap="round"/>
<path d="M8 21L5 24" stroke="#11C4E2" stroke-width="2" stroke-linecap="round"/>
</svg>
