<svg width="32" height="32" viewBox="0 0 32 32" fill="none" xmlns="http://www.w3.org/2000/svg">
<path d="M15.1912 3.04541C14.9666 2.8208 14.6497 2.71338 14.3352 2.76367C14.0218 2.81055 13.7488 3.00391 13.6004 3.28467L7.3074 15.1724L3.87723 18.6021C2.82205 19.6582 2.4993 21.1577 2.87235 22.5024C1.63748 24.0708 1.72537 26.3477 3.17069 27.7949C3.95096 28.5742 4.97537 28.9639 5.99979 28.9639C6.87479 28.9639 7.74002 28.6616 8.46268 28.0928C8.81375 28.1904 9.17215 28.2568 9.53446 28.2568C10.2361 28.2563 10.9324 28.0596 11.5555 27.6938L14.1316 30.269C14.6184 30.7563 15.2586 30.9995 15.8987 30.9995C16.5388 30.9995 17.1795 30.7563 17.6668 30.269C18.6414 29.2944 18.6414 27.7085 17.6668 26.7339L15.1917 24.2588L15.7928 23.6577L27.6805 17.3638C27.9607 17.2153 28.1541 16.9424 28.2019 16.6284C28.2488 16.3149 28.1443 15.9971 27.9197 15.7729L15.1912 3.04541ZM4.58524 26.3804C4.06424 25.8589 3.8992 25.1211 4.07449 24.4551L6.51004 26.8906C5.84451 27.0659 5.10672 26.9014 4.58524 26.3804ZM8.12088 25.6733L5.29178 22.8442C4.51248 22.0649 4.51248 20.7959 5.29178 20.0161L8.12088 17.187L13.7781 22.8442L10.949 25.6729C10.1697 26.4531 8.90115 26.4536 8.12088 25.6733ZM16.2527 28.1479C16.3782 28.2734 16.3972 28.4233 16.3972 28.5015C16.3972 28.5796 16.3782 28.7295 16.2532 28.8545C16.0618 29.0449 15.7381 29.0474 15.5457 28.855L13.0701 26.3804L13.7776 25.6729L16.2527 28.1479ZM15.3767 21.6152L9.35037 15.5879L14.7347 5.41699L25.5486 16.23L15.3767 21.6152ZM18.9998 4.00049V2.00049C18.9998 1.44824 19.4471 1.00049 19.9998 1.00049C20.5525 1.00049 20.9998 1.44824 20.9998 2.00049V4.00049C20.9998 4.55273 20.5525 5.00049 19.9998 5.00049C19.4471 5.00049 18.9998 4.55273 18.9998 4.00049ZM29.9998 11C29.9998 11.5522 29.5525 12 28.9998 12H26.9998C26.4471 12 25.9998 11.5522 25.9998 11C25.9998 10.4478 26.4471 10 26.9998 10H28.9998C29.5525 10 29.9998 10.4478 29.9998 11ZM23.2928 7.70703C22.9021 7.31641 22.9021 6.68359 23.2928 6.29297L25.2928 4.29297C25.6834 3.90234 26.3162 3.90234 26.7068 4.29297C27.0974 4.68359 27.0974 5.31641 26.7068 5.70703L24.7068 7.70703C24.5115 7.90234 24.2556 8 23.9998 8C23.7439 8 23.4881 7.90234 23.2928 7.70703Z" fill="#11C4E2"/>
</svg>
