<svg width="32" height="32" viewBox="0 0 32 32" fill="none" xmlns="http://www.w3.org/2000/svg">
<g clip-path="url(#clip0_463_1475)">
<path d="M12.7227 21.5633L17.142 8.30502C17.3057 7.81383 17.0403 7.2829 16.5491 7.11915C16.058 6.95546 15.527 7.2209 15.3632 7.71208L10.9439 20.9704C10.7802 21.4616 11.0456 21.9925 11.5368 22.1563C11.6351 22.189 11.7351 22.2046 11.8334 22.2046C12.2259 22.2046 12.5917 21.9562 12.7227 21.5633Z" fill="#11C4E2"/>
<path d="M19.3462 17.4502C20.897 17.4502 22.1587 16.1885 22.1587 14.6377C22.1587 13.0869 20.897 11.8252 19.3462 11.8252C17.7954 11.8252 16.5337 13.0869 16.5337 14.6377C16.5337 16.1885 17.7954 17.4502 19.3462 17.4502ZM19.3462 13.7002C19.8631 13.7002 20.2837 14.1208 20.2837 14.6377C20.2837 15.1546 19.8631 15.5752 19.3462 15.5752C18.8293 15.5752 18.4087 15.1546 18.4087 14.6377C18.4087 14.1208 18.8293 13.7002 19.3462 13.7002Z" fill="#11C4E2"/>
<path d="M8.73926 11.8252C7.18844 11.8252 5.92676 13.0869 5.92676 14.6377C5.92676 16.1885 7.18844 17.4502 8.73926 17.4502C10.2901 17.4502 11.5518 16.1885 11.5518 14.6377C11.5518 13.0869 10.2901 11.8252 8.73926 11.8252ZM8.73926 15.5752C8.22232 15.5752 7.80176 15.1546 7.80176 14.6377C7.80176 14.1208 8.22232 13.7002 8.73926 13.7002C9.25619 13.7002 9.67676 14.1208 9.67676 14.6377C9.67676 15.1546 9.25626 15.5752 8.73926 15.5752Z" fill="#11C4E2"/>
<path d="M31.813 11.6255L28.5438 7.26654L28.6713 6.37385C28.713 6.08172 28.6148 5.78697 28.4062 5.57835L26.4174 3.5896L28.4061 1.60085C28.7722 1.23479 28.7722 0.64116 28.4061 0.275035C28.04 -0.0910273 27.4464 -0.0910273 27.0803 0.275035L25.0916 2.26379L23.1028 0.275035C22.8942 0.0663476 22.5995 -0.0315274 22.3073 0.00984764L13.0265 1.33566C12.8257 1.36435 12.6397 1.45741 12.4962 1.60085L1.00572 13.0913C-0.33459 14.4316 -0.33459 16.6125 1.00572 17.9527L10.7284 27.6755C10.9273 27.8743 11.145 28.043 11.3755 28.1828V28.563C11.3755 30.4584 12.9175 32.0005 14.813 32.0005H28.563C30.4584 32.0005 32.0005 30.4584 32.0005 28.563V12.188C32.0005 11.9852 31.9347 11.7877 31.813 11.6255ZM2.33154 16.6269C1.72229 16.0177 1.72229 15.0264 2.33154 14.4172L13.601 3.14766L22.1084 1.93235L23.7657 3.58966L22.4399 4.91547L21.777 4.25253C21.4109 3.88647 20.8173 3.88647 20.4512 4.25253C20.085 4.6186 20.085 5.21222 20.4512 5.57835L23.1028 8.23004C23.2859 8.4131 23.5258 8.50466 23.7657 8.50466C24.0056 8.50466 24.2456 8.4131 24.4286 8.23004C24.7947 7.86397 24.7947 7.27035 24.4286 6.90422L23.7657 6.24128L25.0915 4.91547L26.7488 6.57278L25.5334 15.0802L14.264 26.3497C13.9688 26.6448 13.5765 26.8073 13.1591 26.8073C12.7417 26.8073 12.3493 26.6447 12.0542 26.3497L2.33154 16.6269ZM30.1255 28.563C30.1255 29.4245 29.4245 30.1255 28.563 30.1255H14.813C13.9902 30.1255 13.3145 29.4862 13.2552 28.6783C14.1031 28.6548 14.944 28.3212 15.5897 27.6755L27.0802 16.185C27.2237 16.0415 27.3167 15.8555 27.3454 15.6547L28.1687 9.89154L30.1255 12.5005V28.563Z" fill="#11C4E2"/>
</g>
<defs>
<clipPath id="clip0_463_1475">
<rect width="32" height="32" fill="white"/>
</clipPath>
</defs>
</svg>
