<svg width="32" height="32" viewBox="0 0 32 32" fill="none" xmlns="http://www.w3.org/2000/svg">
<path fill-rule="evenodd" clip-rule="evenodd" d="M30.3332 9.33317C30.3332 8.36117 29.9465 7.42784 29.2598 6.73984C28.5718 6.05317 27.6385 5.6665 26.6665 5.6665C21.5572 5.6665 10.4425 5.6665 5.33317 5.6665C4.36117 5.6665 3.42784 6.05317 2.73984 6.73984C2.05317 7.42784 1.6665 8.36117 1.6665 9.33317V22.6665C1.6665 23.6385 2.05317 24.5718 2.73984 25.2598C3.42784 25.9465 4.36117 26.3332 5.33317 26.3332H26.6665C27.6385 26.3332 28.5718 25.9465 29.2598 25.2598C29.9465 24.5718 30.3332 23.6385 30.3332 22.6665V9.33317ZM28.3332 9.33317V22.6665C28.3332 23.1092 28.1572 23.5318 27.8452 23.8452C27.5318 24.1572 27.1092 24.3332 26.6665 24.3332H5.33317C4.8905 24.3332 4.46784 24.1572 4.1545 23.8452C3.8425 23.5318 3.6665 23.1092 3.6665 22.6665V9.33317C3.6665 8.8905 3.8425 8.46784 4.1545 8.1545C4.46784 7.8425 4.8905 7.6665 5.33317 7.6665H26.6665C27.1092 7.6665 27.5318 7.8425 27.8452 8.1545C28.1572 8.46784 28.3332 8.8905 28.3332 9.33317Z" fill="#11C4E2"/>
<path fill-rule="evenodd" clip-rule="evenodd" d="M6.23172 12.2692C5.19705 13.6826 5.60905 15.7546 7.27305 16.8666C7.95039 17.3199 9.00772 17.5559 10.0451 17.6319C11.4171 17.7306 12.7291 17.5852 12.7291 17.5852C13.0157 17.5532 13.2744 17.3999 13.4384 17.1626C13.6037 16.9266 13.6584 16.6292 13.5891 16.3492C13.5891 16.3492 13.2811 15.1119 12.7091 13.9039C12.2744 12.9892 11.6757 12.1119 10.9891 11.6532C9.36772 10.5692 7.24105 10.8932 6.23172 12.2692ZM7.84505 13.4532C8.27305 12.8679 9.18905 12.8546 9.87706 13.3159C10.3064 13.6026 10.6304 14.1892 10.9011 14.7612C11.0477 15.0706 11.1744 15.3812 11.2784 15.6652C10.9451 15.6706 10.5704 15.6639 10.1891 15.6372C9.52106 15.5879 8.82239 15.4972 8.38372 15.2039C7.73706 14.7719 7.44239 14.0012 7.84505 13.4532Z" fill="#11C4E2"/>
<path fill-rule="evenodd" clip-rule="evenodd" d="M19.1011 12.2692C18.0917 10.8932 15.9651 10.5692 14.3437 11.6532C13.6571 12.1119 13.0584 12.9892 12.6237 13.9039C12.0517 15.1119 11.7437 16.3492 11.7437 16.3492C11.6744 16.6292 11.7291 16.9266 11.8944 17.1626C12.0584 17.3999 12.3171 17.5532 12.6037 17.5852C12.6037 17.5852 13.9157 17.7306 15.2877 17.6319C16.3251 17.5559 17.3824 17.3199 18.0597 16.8666C19.7237 15.7546 20.1357 13.6826 19.1011 12.2692ZM17.4877 13.4532C17.8904 14.0012 17.5957 14.7719 16.9491 15.2039C16.5104 15.4972 15.8117 15.5879 15.1437 15.6372C14.7624 15.6639 14.3877 15.6706 14.0544 15.6652C14.1584 15.3812 14.2851 15.0706 14.4317 14.7612C14.7024 14.1892 15.0264 13.6026 15.4557 13.3159C16.1437 12.8546 17.0597 12.8679 17.4877 13.4532Z" fill="#11C4E2"/>
<path fill-rule="evenodd" clip-rule="evenodd" d="M11.709 6.6665V25.3332C11.709 25.8852 12.157 26.3332 12.709 26.3332C13.261 26.3332 13.709 25.8852 13.709 25.3332V6.6665C13.709 6.1145 13.261 5.6665 12.709 5.6665C12.157 5.6665 11.709 6.1145 11.709 6.6665Z" fill="#11C4E2"/>
<path fill-rule="evenodd" clip-rule="evenodd" d="M18.6665 15H29.3332C29.8852 15 30.3332 14.552 30.3332 14C30.3332 13.448 29.8852 13 29.3332 13H18.6665C18.1145 13 17.6665 13.448 17.6665 14C17.6665 14.552 18.1145 15 18.6665 15Z" fill="#11C4E2"/>
<path fill-rule="evenodd" clip-rule="evenodd" d="M2.6665 15H6.6665C7.2185 15 7.6665 14.552 7.6665 14C7.6665 13.448 7.2185 13 6.6665 13H2.6665C2.1145 13 1.6665 13.448 1.6665 14C1.6665 14.552 2.1145 15 2.6665 15Z" fill="#11C4E2"/>
<path fill-rule="evenodd" clip-rule="evenodd" d="M11.916 17.0398L15.916 21.0398C16.3067 21.4305 16.94 21.4305 17.3307 21.0398C17.7214 20.6505 17.7214 20.0158 17.3307 19.6265L13.3307 15.6265C12.94 15.2358 12.3067 15.2358 11.916 15.6265C11.5267 16.0158 11.5267 16.6505 11.916 17.0398Z" fill="#11C4E2"/>
<path fill-rule="evenodd" clip-rule="evenodd" d="M12.0025 15.6265L8.00247 19.6265C7.61181 20.0158 7.61181 20.6505 8.00247 21.0398C8.39314 21.4305 9.02647 21.4305 9.41714 21.0398L13.4171 17.0398C13.8065 16.6505 13.8065 16.0158 13.4171 15.6265C13.0265 15.2358 12.3931 15.2358 12.0025 15.6265Z" fill="#11C4E2"/>
</svg>
