<svg width="32" height="32" viewBox="0 0 32 32" fill="none" xmlns="http://www.w3.org/2000/svg">
<path d="M27 30H5C4.20435 30 3.44129 29.6839 2.87868 29.1213C2.31607 28.5587 2 27.7956 2 27V13C2 12.2044 2.31607 11.4413 2.87868 10.8787C3.44129 10.3161 4.20435 10 5 10H27C27.7956 10 28.5587 10.3161 29.1213 10.8787C29.6839 11.4413 30 12.2044 30 13V27C30 27.7956 29.6839 28.5587 29.1213 29.1213C28.5587 29.6839 27.7956 30 27 30ZM5 12C4.73478 12 4.48043 12.1054 4.29289 12.2929C4.10536 12.4804 4 12.7348 4 13V27C4 27.2652 4.10536 27.5196 4.29289 27.7071C4.48043 27.8946 4.73478 28 5 28H27C27.2652 28 27.5196 27.8946 27.7071 27.7071C27.8946 27.5196 28 27.2652 28 27V13C28 12.7348 27.8946 12.4804 27.7071 12.2929C27.5196 12.1054 27.2652 12 27 12H5ZM26 3C26 2.73478 25.8946 2.48043 25.7071 2.29289C25.5196 2.10536 25.2652 2 25 2H7C6.73478 2 6.48043 2.10536 6.29289 2.29289C6.10536 2.48043 6 2.73478 6 3C6 3.26522 6.10536 3.51957 6.29289 3.70711C6.48043 3.89464 6.73478 4 7 4H25C25.2652 4 25.5196 3.89464 25.7071 3.70711C25.8946 3.51957 26 3.26522 26 3ZM28 7C28 6.73478 27.8946 6.48043 27.7071 6.29289C27.5196 6.10536 27.2652 6 27 6H5C4.73478 6 4.48043 6.10536 4.29289 6.29289C4.10536 6.48043 4 6.73478 4 7C4 7.26522 4.10536 7.51957 4.29289 7.70711C4.48043 7.89464 4.73478 8 5 8H27C27.2652 8 27.5196 7.89464 27.7071 7.70711C27.8946 7.51957 28 7.26522 28 7ZM12 25C11.8128 25.0006 11.6291 24.9486 11.47 24.85C11.3259 24.7599 11.2071 24.6346 11.1249 24.4859C11.0426 24.3372 10.9997 24.1699 11 24V16C11.0005 15.8295 11.0446 15.662 11.1281 15.5134C11.2115 15.3648 11.3316 15.2399 11.4769 15.1508C11.6222 15.0616 11.7878 15.011 11.9581 15.0039C12.1285 14.9968 12.2978 15.0333 12.45 15.11L20.45 19.11C20.6138 19.1939 20.7513 19.3214 20.8473 19.4784C20.9432 19.6355 20.994 19.816 20.994 20C20.994 20.184 20.9432 20.3645 20.8473 20.5216C20.7513 20.6786 20.6138 20.8061 20.45 20.89L12.45 24.89C12.3107 24.9614 12.1565 24.9991 12 25ZM13 17.62V22.38L17.76 20L13 17.62Z" fill="#11C4E2"/>
</svg>
