<svg width="32" height="32" viewBox="0 0 32 32" fill="none" xmlns="http://www.w3.org/2000/svg">
<path d="M30.9375 11C30.9375 6.62325 27.3768 3.0625 23 3.0625C22.1038 3.0625 21.2418 3.21206 20.4375 3.48706V0.9375C20.4375 0.41975 20.0177 0 19.5 0H11C8.55319 0 6.5625 1.99069 6.5625 4.4375V12C6.5625 13.7645 7.3365 15.3514 8.5625 16.4399V19.2798L3.61425 20.5993C2.11181 20.9999 1.0625 22.3657 1.0625 23.9207V31.0625C1.0625 31.5802 1.48225 32 2 32H23.5C25.1198 32 26.4375 30.6823 26.4375 29.0625V27C26.4375 25.5289 25.3504 24.3072 23.9375 24.0952V18.8819C27.874 18.4166 30.9375 15.0596 30.9375 11ZM8.4375 4.4375C8.4375 3.02456 9.58706 1.875 11 1.875H18.5625V4.42181C17.8915 4.87594 17.2936 5.43013 16.7898 6.0625H8.4375V4.4375ZM16.4375 16.4433C16.5856 16.3121 16.7266 16.1726 16.8616 16.0266C18.1315 17.5745 19.9741 18.635 22.0625 18.8819V20.8591C21.8498 20.7504 21.6235 20.6627 21.3857 20.5993L16.4375 19.2798V16.4433ZM8.4375 7.9375H15.6774C15.2816 8.88037 15.0625 9.91506 15.0625 11C15.0625 12.1993 15.3304 13.3371 15.8086 14.3573C15.0509 15.4192 13.8223 16.0625 12.5 16.0625C10.2599 16.0625 8.4375 14.2401 8.4375 12V7.9375ZM14.5625 17.5669V19.7454C14.3109 20.1352 13.597 21.0625 12.5 21.0625C11.4011 21.0625 10.6867 20.132 10.4375 19.7459V17.5678C11.0802 17.8067 11.7751 17.9375 12.5 17.9375C13.2157 17.9375 13.9123 17.8079 14.5625 17.5669ZM19.6287 30.125H2.9375V23.9207C2.9375 23.2139 3.41444 22.5931 4.09737 22.4109L9.08519 21.0809C9.64675 21.828 10.7713 22.9375 12.5 22.9375C14.2287 22.9375 15.3532 21.828 15.9148 21.0809L20.9026 22.4109C21.5855 22.5931 22.0625 23.2139 22.0625 23.9207V24.0625H22C20.6559 24.0625 19.5625 25.1559 19.5625 26.5V29.5625C19.5625 29.7561 19.5859 29.9443 19.6287 30.125ZM24.5625 27V29.0625C24.5625 29.6484 24.0859 30.125 23.5 30.125H22C21.6898 30.125 21.4375 29.8726 21.4375 29.5625V26.5C21.4375 26.1899 21.6898 25.9375 22 25.9375H23.5C24.0859 25.9375 24.5625 26.4141 24.5625 27ZM23 17.0625C19.6571 17.0625 16.9375 14.3429 16.9375 11C16.9375 7.65712 19.6571 4.9375 23 4.9375C26.3429 4.9375 29.0625 7.65712 29.0625 11C29.0625 14.3429 26.3429 17.0625 23 17.0625Z" fill="#11C4E2"/>
<path d="M26.5633 11.7505C26.1493 11.4396 25.5617 11.523 25.2506 11.937C24.7133 12.6523 23.8929 13.0626 23.0001 13.0626C22.1073 13.0626 21.287 12.6523 20.7496 11.937C20.4386 11.523 19.8509 11.4395 19.4369 11.7506C19.023 12.0616 18.9395 12.6493 19.2505 13.0632C20.1454 14.2544 21.5121 14.9376 23.0001 14.9376C24.4882 14.9376 25.8549 14.2544 26.7498 13.0632C27.0608 12.6492 26.9773 12.0615 26.5633 11.7505Z" fill="#11C4E2"/>
<path d="M21.5 10.4375C22.0178 10.4375 22.4375 10.0178 22.4375 9.5C22.4375 8.98223 22.0178 8.5625 21.5 8.5625C20.9822 8.5625 20.5625 8.98223 20.5625 9.5C20.5625 10.0178 20.9822 10.4375 21.5 10.4375Z" fill="#11C4E2"/>
<path d="M24.5 10.4375C25.0178 10.4375 25.4375 10.0178 25.4375 9.5C25.4375 8.98223 25.0178 8.5625 24.5 8.5625C23.9822 8.5625 23.5625 8.98223 23.5625 9.5C23.5625 10.0178 23.9822 10.4375 24.5 10.4375Z" fill="#11C4E2"/>
</svg>
