<svg width="40" height="40" viewBox="0 0 40 40" fill="none" xmlns="http://www.w3.org/2000/svg">
<path d="M38.667 16.8292L36.872 16.4753L35.5959 13.395L36.615 11.8752C36.9562 11.3667 36.892 10.7091 36.4589 10.2761L33.7304 7.54766C33.2975 7.11477 32.6399 7.05047 32.1313 7.39148L30.6115 8.41062L27.5311 7.13445L27.1772 5.33937C27.0587 4.73867 26.5484 4.31906 25.9361 4.31906H22.0773C21.465 4.31906 20.9546 4.73867 20.8362 5.33937L20.4823 7.13445L17.402 8.41062L15.8821 7.39141C15.3736 7.05055 14.7161 7.11469 14.283 7.54766L11.5545 10.2761C11.1216 10.7091 11.0573 11.3666 11.3984 11.8752L11.4381 11.9345H7.50711V8.32883C8.46492 8.08469 9.17547 7.21484 9.17547 6.18203C9.17547 4.96055 8.18172 3.9668 6.96023 3.9668C5.73875 3.9668 4.745 4.96055 4.745 6.18203C4.745 7.21484 5.45555 8.08469 6.41336 8.32883V12.4813C6.41336 12.7834 6.6582 13.0282 6.96023 13.0282H18.188C18.3093 13.0282 18.4272 12.9879 18.523 12.9136C20.1049 11.6876 22.0012 11.0395 24.0067 11.0395C28.9474 11.0395 32.967 15.0591 32.967 19.9998C32.967 24.9405 28.9474 28.96 24.0067 28.96C22.0011 28.96 20.1049 28.312 18.523 27.0859C18.4272 27.0116 18.3094 26.9712 18.188 26.9712H6.96031C6.65828 26.9712 6.41344 27.2161 6.41344 27.5181V31.6707C5.45563 31.9148 4.74508 32.7848 4.74508 33.8175C4.74508 35.039 5.73883 36.0327 6.96031 36.0327C8.1818 36.0327 9.17555 35.0389 9.17555 33.8175C9.17555 32.7847 8.465 31.9148 7.50719 31.6707V28.065H11.4382L11.3984 28.1243C11.0574 28.6328 11.1217 29.2904 11.5547 29.7234L14.2832 32.452C14.7162 32.885 15.3739 32.9491 15.8822 32.608L17.402 31.5889L20.4823 32.8651L20.8363 34.6601C20.9548 35.2609 21.4651 35.6805 22.0774 35.6805H25.9362C26.5485 35.6805 27.0589 35.2609 27.1773 34.6602L27.5312 32.865L30.6115 31.5888L32.1313 32.608C32.6397 32.9489 33.2973 32.8849 33.7304 32.452L36.4589 29.7234C36.8919 29.2904 36.956 28.6328 36.615 28.1244L35.5959 26.6045L36.872 23.5241L38.6671 23.1703C39.2678 23.0519 39.6875 22.5415 39.6875 21.9291V18.0704C39.6875 17.458 39.2679 16.9477 38.6671 16.8293L38.667 16.8292ZM5.83883 6.18195C5.83883 5.56352 6.34188 5.06047 6.96031 5.06047C7.57875 5.06047 8.0818 5.56352 8.0818 6.18195C8.0818 6.80039 7.57875 7.30344 6.96031 7.30344C6.34188 7.30344 5.83883 6.80031 5.83883 6.18195ZM8.0818 33.8174C8.0818 34.4358 7.57875 34.9388 6.96031 34.9388C6.34188 34.9388 5.83883 34.4358 5.83883 33.8174C5.83883 33.1991 6.34188 32.6959 6.96031 32.6959C7.57875 32.6959 8.0818 33.199 8.0818 33.8174ZM38.5937 21.929C38.5937 22.0146 38.5395 22.0805 38.4555 22.0971L36.3731 22.5076C36.1937 22.543 36.0437 22.6658 35.9737 22.8348L34.4733 26.4564C34.4033 26.6254 34.4224 26.8183 34.5243 26.9702L35.7066 28.7334C35.7543 28.8044 35.7459 28.8894 35.6855 28.9498L32.957 31.6783C32.8966 31.7387 32.8116 31.7471 32.7405 31.6994L30.9773 30.5171C30.8254 30.4152 30.6325 30.3959 30.4634 30.4661L26.842 31.9664C26.6729 32.0364 26.5502 32.1863 26.5148 32.3658L26.1042 34.4483C26.0877 34.5322 26.0217 34.5865 25.9362 34.5865H22.0774C21.9919 34.5865 21.9259 34.5323 21.9094 34.4482L21.4987 32.3659C21.4634 32.1864 21.3405 32.0365 21.1716 31.9665L17.5501 30.4661C17.4827 30.4382 17.4116 30.4245 17.3408 30.4245C17.2338 30.4245 17.1276 30.4558 17.0362 30.5172L15.273 31.6995C15.2019 31.7472 15.117 31.7389 15.0565 31.6784L12.328 28.9499C12.2675 28.8894 12.2591 28.8044 12.3068 28.7333L12.7551 28.0648H18.0037C19.7483 29.3666 21.8196 30.0536 24.0067 30.0536C29.5505 30.0536 34.0607 25.5434 34.0607 19.9996C34.0607 14.4558 29.5505 9.94562 24.0067 9.94562C21.8197 9.94562 19.7483 10.6326 18.0037 11.9343H12.7551L12.3068 11.2659C12.2591 11.1948 12.2675 11.1098 12.328 11.0494L15.0565 8.32094C15.117 8.26047 15.2019 8.25219 15.273 8.29977L17.036 9.48211C17.188 9.58398 17.3809 9.60312 17.5499 9.53312L21.1714 8.03273C21.3405 7.96273 21.4632 7.81281 21.4986 7.63328L21.9092 5.55086C21.9258 5.46695 21.9917 5.41273 22.0773 5.41273H25.936C26.0216 5.41273 26.0875 5.46695 26.1041 5.55086L26.5146 7.63328C26.55 7.81281 26.6728 7.96266 26.8418 8.03273L30.4634 9.53312C30.6323 9.60305 30.8253 9.58398 30.9773 9.48211L32.7403 8.29984C32.8113 8.25211 32.8963 8.26047 32.9569 8.32102L35.6854 11.0495C35.7459 11.1099 35.7541 11.1949 35.7066 11.2659L34.5242 13.0291C34.4223 13.181 34.4031 13.3739 34.4732 13.543L35.9736 17.1645C36.0436 17.3335 36.1935 17.4562 36.373 17.4916L38.4554 17.9022C38.5394 17.9187 38.5936 17.9847 38.5936 18.0702V21.9289L38.5937 21.929ZM15.9267 24.4651C16.2288 24.4651 16.4736 24.7099 16.4736 25.012C16.4736 25.314 16.2288 25.5588 15.9267 25.5588H10.0627C9.7607 25.5588 9.51586 25.314 9.51586 25.012C9.51586 24.7099 9.7607 24.4651 10.0627 24.4651H15.9267ZM5.93484 22.1216C5.70617 21.9244 5.68062 21.5791 5.87789 21.3503L7.35094 19.6425C7.45484 19.522 7.60602 19.4528 7.76508 19.4528H14.4997C14.8017 19.4528 15.0466 19.6977 15.0466 19.9997C15.0466 20.3016 14.8017 20.5466 14.4997 20.5466H8.01562L6.70617 22.0647C6.59805 22.1901 6.44531 22.2544 6.2918 22.2544C6.16523 22.2544 6.03813 22.2107 5.93484 22.1216ZM10.0627 15.5343C9.76062 15.5343 9.51578 15.2895 9.51578 14.9874C9.51578 14.6854 9.76062 14.4405 10.0627 14.4405H15.9267C16.2288 14.4405 16.4736 14.6854 16.4736 14.9874C16.4736 15.2895 16.2288 15.5343 15.9267 15.5343H10.0627ZM7.29234 24.7605C7.45141 24.7605 7.60258 24.6912 7.70641 24.5708L9.01586 23.0527H21.5427V25.2227C21.5427 25.5717 21.7363 25.8783 22.048 26.0227C22.1692 26.079 22.2988 26.1064 22.4275 26.1064C22.6344 26.1064 22.8386 26.0353 23.0005 25.8982L29.1157 20.7184C29.327 20.5395 29.448 20.2776 29.4481 19.9998C29.4481 19.7219 29.327 19.4598 29.1158 19.2809L23.0005 14.101C22.738 13.8787 22.3642 13.8299 22.0481 13.9765C21.7363 14.121 21.5427 14.4276 21.5427 14.7766V16.9466H9.01594L7.70648 15.4284C7.60258 15.308 7.45141 15.2387 7.29242 15.2387H4.45367C4.21219 14.3413 3.3918 13.6787 2.4193 13.6787C1.25758 13.6787 0.3125 14.6239 0.3125 15.7856C0.3125 16.9473 1.25766 17.8924 2.4193 17.8924C3.39188 17.8924 4.21219 17.2298 4.45367 16.3325H7.04195L8.35141 17.8505C8.45531 17.971 8.60648 18.0402 8.76547 18.0402H22.0896C22.3916 18.0402 22.6365 17.7954 22.6365 17.4934V15.2259L28.2722 19.9996L22.6365 24.7732V22.5057C22.6365 22.2037 22.3916 21.9588 22.0896 21.9588H8.76547C8.60641 21.9588 8.45523 22.028 8.35141 22.1485L7.04187 23.6666H4.45367C4.21219 22.7693 3.3918 22.1067 2.4193 22.1067C1.25758 22.1067 0.3125 23.0518 0.3125 24.2135C0.3125 25.3752 1.25766 26.3203 2.4193 26.3203C3.39188 26.3203 4.21227 25.6577 4.45375 24.7603H7.29242L7.29234 24.7605ZM2.41922 16.7988C1.86062 16.7988 1.40617 16.3444 1.40617 15.7858C1.40617 15.2272 1.86062 14.7727 2.41922 14.7727C2.97781 14.7727 3.43227 15.2271 3.43227 15.7858C3.43227 16.3445 2.97781 16.7988 2.41922 16.7988ZM2.41922 25.2267C1.86062 25.2267 1.40617 24.7723 1.40617 24.2137C1.40617 23.6551 1.86062 23.2006 2.41922 23.2006C2.97781 23.2006 3.43227 23.6551 3.43227 24.2137C3.43227 24.7723 2.97781 25.2267 2.41922 25.2267Z" fill="#11C4E2"/>
</svg>
