<svg width="20" height="20" viewBox="0 0 20 20" fill="none" xmlns="http://www.w3.org/2000/svg">
<path d="M16.2499 13.9999C16.2499 15.0166 15.6749 16.0666 14.8166 16.6082C14.2083 16.9916 13.5833 17.0749 13.1499 17.0749C13.0416 17.0749 12.9416 17.0749 12.8583 17.0582C6.96661 16.9249 2.22495 12.1832 2.09161 6.26657C2.05828 5.89157 2.06661 5.0999 2.54995 4.33324C3.09161 3.4749 4.13328 2.8999 5.14995 2.8999H5.15828C5.71661 2.8999 6.21661 3.09157 6.27495 3.10824C6.50828 3.1999 6.73328 3.31657 6.93328 3.45824C7.02495 3.5249 7.09161 3.6249 7.10828 3.73324L7.70828 7.51657C7.72495 7.6249 7.69995 7.74157 7.63328 7.8249C7.37495 8.1749 7.04161 8.46657 6.65828 8.6749C7.00828 9.5249 7.53328 10.3082 8.18328 10.9666C8.84161 11.6249 9.62495 12.1416 10.4749 12.4916C10.6833 12.0999 10.9749 11.7666 11.3249 11.5166C11.4166 11.4499 11.5249 11.4249 11.6333 11.4416L15.4166 12.0416C15.5333 12.0582 15.6333 12.1249 15.6916 12.2166C15.8333 12.4249 15.9499 12.6416 16.0416 12.8749C16.0666 12.9332 16.2499 13.4249 16.2499 13.9916V13.9999ZM10.7333 3.74157C13.0833 4.19157 14.9666 6.0749 15.4249 8.43324C15.4666 8.63324 15.6416 8.7749 15.8333 8.7749H15.9083C16.1333 8.73324 16.2833 8.51657 16.2416 8.28324C15.7249 5.5999 13.5749 3.4499 10.8916 2.93324C10.6666 2.89157 10.4499 3.04157 10.3999 3.26657C10.3583 3.49157 10.5083 3.70824 10.7333 3.75824V3.74157ZM10.0666 5.65824C11.8749 5.8749 13.2833 7.29157 13.4999 9.09157C13.5249 9.2999 13.7083 9.45824 13.9166 9.45824H13.9666C14.1916 9.43324 14.3583 9.2249 14.3333 8.99157C14.0666 6.80824 12.3583 5.09157 10.1666 4.8249C9.93328 4.7999 9.73328 4.95824 9.69995 5.19157C9.67495 5.41657 9.83328 5.6249 10.0666 5.65824ZM9.42495 7.6499C10.5333 7.5499 11.5249 8.44157 11.5249 9.55824C11.5249 9.61657 11.5249 9.68323 11.5166 9.74157C11.4916 9.96657 11.6666 10.1749 11.8916 10.1916H11.9333C12.1416 10.1916 12.3249 10.0332 12.3499 9.81657C12.3499 9.73323 12.3666 9.64157 12.3666 9.55824C12.3666 7.95824 10.9499 6.6749 9.35828 6.8249C9.13328 6.8499 8.95828 7.0499 8.98328 7.2749C9.00828 7.50823 9.20828 7.6749 9.43328 7.6499H9.42495Z" fill="url(#paint0_linear_2012_177)"/>
<defs>
<linearGradient id="paint0_linear_2012_177" x1="9.16164" y1="17.1019" x2="9.16164" y2="8.52508" gradientUnits="userSpaceOnUse">
<stop stop-color="#51D9EF"/>
<stop offset="1" stop-color="#0E9AB1"/>
</linearGradient>
</defs>
</svg>
