<svg width="20" height="21" viewBox="0 0 20 21" fill="none" xmlns="http://www.w3.org/2000/svg">
<path d="M11.8332 7.41667C11.8332 8.425 11.0082 9.25 9.99988 9.25C8.99155 9.25 8.16655 8.425 8.16655 7.41667C8.16655 6.40833 8.99155 5.58333 9.99988 5.58333C11.0082 5.58333 11.8332 6.40833 11.8332 7.41667ZM15.8749 8.65C15.7166 9.43333 15.3999 10.1667 14.9416 10.825L10.3332 17.4083C10.2582 17.5167 10.1249 17.5833 9.99155 17.5833C9.85822 17.5833 9.72488 17.5167 9.64988 17.4083L5.04155 10.825C4.58322 10.1667 4.26655 9.43333 4.10822 8.65C3.76655 6.95 4.20822 5.2 5.30822 3.85833C6.40822 2.51667 8.03322 1.75 9.76655 1.75H10.2166C11.9499 1.75 13.5749 2.51667 14.6749 3.85833C15.7749 5.2 16.2082 6.94167 15.8749 8.65ZM12.6666 7.41667C12.6666 5.95 11.4666 4.75 9.99988 4.75C8.53322 4.75 7.33322 5.95 7.33322 7.41667C7.33322 8.88333 8.53322 10.0833 9.99988 10.0833C11.4666 10.0833 12.6666 8.88333 12.6666 7.41667ZM12.7916 15.3667L11.0249 17.8917C10.7916 18.225 10.4082 18.425 9.99988 18.425C9.59155 18.425 9.20822 18.225 8.97488 17.8917L7.20822 15.3667C5.79155 15.675 4.58322 16.2583 4.58322 17.1667C4.58322 18.5333 7.30822 19.25 9.99988 19.25C12.6916 19.25 15.4166 18.5333 15.4166 17.1667C15.4166 16.25 14.1999 15.675 12.7916 15.3667Z" fill="url(#paint0_linear_2012_181)"/>
<defs>
<linearGradient id="paint0_linear_2012_181" x1="9.98702" y1="19.2833" x2="9.98702" y2="8.69466" gradientUnits="userSpaceOnUse">
<stop stop-color="#51D9EF"/>
<stop offset="1" stop-color="#0E9AB1"/>
</linearGradient>
</defs>
</svg>
