<svg width="41" height="40" viewBox="0 0 41 40" fill="none" xmlns="http://www.w3.org/2000/svg">
<path d="M4.15671 29.2C4.00421 29.265 3.88358 29.3875 3.82171 29.5413C3.75983 29.695 3.76108 29.8669 3.82671 30.0194L6.57421 36.4731C6.70983 36.7906 7.07671 36.9388 7.39421 36.8031L9.52796 35.895L20.298 38.7156C20.5055 38.77 20.7186 38.7969 20.9317 38.7969C21.2686 38.7969 21.6048 38.7294 21.9161 38.5969L34.3511 33.3032C35.6236 32.7613 36.218 31.2857 35.6767 30.0119C35.1348 28.7394 33.6586 28.145 32.3861 28.6869L23.9561 32.2763C23.733 31.6681 23.2636 31.1532 22.6167 30.8925L17.6305 28.8844C17.5948 28.87 17.5605 28.8538 17.5255 28.835L13.9061 26.9113C12.6692 26.2544 11.2211 26.1919 9.93358 26.7407L4.15671 29.2ZM13.3192 28.015L16.938 29.9388C17.0123 29.9782 17.0886 30.0144 17.1655 30.045L22.1492 32.0525C22.7223 32.2832 23.0005 32.9369 22.7698 33.51C22.5392 34.0832 21.8842 34.3632 21.313 34.1307L16.7548 32.2944C16.4342 32.1657 16.0711 32.32 15.9411 32.6406C15.8123 32.9606 15.9673 33.325 16.2873 33.4538L20.8455 35.29C22.058 35.7769 23.4411 35.1888 23.9298 33.9769C23.9805 33.8513 24.0192 33.7244 24.0473 33.5969L32.8761 29.8375C33.5155 29.5669 34.2548 29.8638 34.5273 30.5025C34.7992 31.1413 34.5005 31.8819 33.8623 32.1538L21.4273 37.4481C21.1723 37.5569 20.8855 37.5782 20.6155 37.5075L9.63858 34.6325C9.58671 34.6188 9.53358 34.6119 9.48046 34.6119C9.39671 34.6119 9.31358 34.6288 9.23546 34.6619L7.47983 35.4088L5.22171 30.105L10.4236 27.8907C11.3623 27.4907 12.418 27.5363 13.3192 28.015Z" fill="#11C4E2"/>
<path d="M11.0703 16.5063C10.6522 17.2088 10.5572 18.0569 10.8097 18.835C11.0622 19.6131 11.6378 20.2438 12.3891 20.5663L13.4697 21.03C14.0053 21.26 14.3709 21.7638 14.4241 22.3444L14.5309 23.5156C14.6059 24.33 15.0278 25.0725 15.6897 25.5531C16.3509 26.0338 17.1872 26.2069 17.9847 26.0244L19.1322 25.7644C19.6997 25.6344 20.2928 25.8281 20.6772 26.2663L21.4516 27.1506C21.9897 27.7656 22.7678 28.1188 23.5853 28.1188C24.4028 28.1188 25.1816 27.7663 25.7197 27.1506L26.4941 26.2663C26.8778 25.8275 27.4703 25.6338 28.0397 25.7644L29.1866 26.0244C29.9816 26.205 30.8203 26.0331 31.4822 25.5525C32.1441 25.0719 32.5653 24.3288 32.6403 23.515L32.7472 22.3444C32.8003 21.7638 33.1659 21.26 33.7022 21.03L34.7828 20.5663C35.5341 20.2438 36.1097 19.6131 36.3622 18.8356C36.6147 18.0581 36.5197 17.2088 36.1016 16.5063L35.4997 15.4963C35.2009 14.995 35.2009 14.3725 35.4997 13.8713L36.1016 12.8613C36.5197 12.1581 36.6147 11.3094 36.3622 10.5319C36.1097 9.75439 35.5334 9.12376 34.7828 8.80126L33.7022 8.33814C33.1659 8.10814 32.8003 7.60439 32.7472 7.02376L32.6403 5.85251C32.5659 5.03814 32.1441 4.29564 31.4822 3.81501C30.8203 3.33439 29.9847 3.16251 29.1859 3.34376L28.0397 3.60376C27.4709 3.73376 26.8797 3.54001 26.4941 3.10189L25.7197 2.21689C25.1809 1.60251 24.4034 1.24939 23.5853 1.24939C22.7672 1.24939 21.9903 1.60189 21.4516 2.21689L20.6772 3.10126C20.2922 3.54064 19.7003 3.73126 19.1316 3.60376L17.9853 3.34376C17.1872 3.16189 16.3522 3.33439 15.6903 3.81501C15.0278 4.29564 14.6066 5.03814 14.5316 5.85251L14.4247 7.02376C14.3716 7.60439 14.0059 8.10814 13.4709 8.33814L12.3897 8.80126C11.6391 9.12376 11.0628 9.75439 10.8103 10.5319C10.5578 11.3094 10.6528 12.1588 11.0709 12.8613L11.6728 13.8713C11.9716 14.3725 11.9716 14.995 11.6728 15.4963L11.0709 16.5063H11.0703ZM11.9984 10.9188C12.1403 10.4838 12.4616 10.1306 12.8816 9.95064L13.9628 9.48752C14.9203 9.07627 15.5741 8.17626 15.6691 7.13814L15.7759 5.96751C15.8172 5.51189 16.0534 5.09626 16.4241 4.82751C16.7941 4.55876 17.2622 4.46314 17.7084 4.56376L18.8547 4.82376C19.8703 5.05439 20.9291 4.71126 21.6166 3.92626L22.3909 3.04189C22.9941 2.35314 24.1759 2.35376 24.7791 3.04189L25.5534 3.92689C26.2403 4.71126 27.2972 5.05689 28.3159 4.82439L29.4622 4.56439C29.9066 4.46376 30.3766 4.55939 30.7466 4.82814C31.1166 5.09689 31.3528 5.51251 31.3941 5.96751L31.5009 7.13876C31.5959 8.17752 32.2497 9.07751 33.2078 9.48814L34.2884 9.95127C34.7091 10.1319 35.0309 10.4844 35.1722 10.9194C35.3141 11.3544 35.2609 11.83 35.0266 12.2225L34.4247 13.2325C33.8909 14.1281 33.8909 15.2406 34.4247 16.1363L35.0266 17.1463C35.2609 17.5394 35.3141 18.0144 35.1722 18.4494C35.0309 18.8844 34.7091 19.2369 34.2884 19.4175L33.2078 19.8813C32.2497 20.2919 31.5959 21.1925 31.5009 22.2306L31.3941 23.4013C31.3528 23.8569 31.1172 24.2719 30.7466 24.5406C30.3766 24.8094 29.9066 24.905 29.4622 24.805L28.3159 24.545C27.2972 24.3138 26.2403 24.6581 25.5534 25.4425L24.7791 26.3269C24.1759 27.0144 22.9941 27.015 22.3909 26.3269L21.6166 25.4419C20.9297 24.6581 19.8709 24.3144 18.8553 24.545L17.7084 24.805C17.2597 24.9063 16.7941 24.8094 16.4241 24.5413C16.0534 24.2725 15.8172 23.8569 15.7759 23.4013L15.6691 22.2306C15.5741 21.1925 14.9203 20.2919 13.9628 19.8813L12.8822 19.4175C12.4616 19.2369 12.1397 18.8838 11.9984 18.4494C11.8572 18.0144 11.9103 17.5394 12.1441 17.1469L12.7459 16.1369C13.2797 15.2413 13.2797 14.1288 12.7459 13.2331L12.1441 12.2231C11.9097 11.83 11.8566 11.355 11.9984 10.92V10.9188Z" fill="#11C4E2"/>
<path d="M23.5861 23.4612C28.4255 23.4612 32.363 19.5237 32.363 14.6837C32.363 9.84374 28.4255 5.90686 23.5861 5.90686C18.7467 5.90686 14.8086 9.84436 14.8086 14.6837C14.8086 19.5231 18.7461 23.4612 23.5861 23.4612ZM23.5861 7.15624C27.7367 7.15624 31.113 10.5331 31.113 14.6831C31.113 18.8331 27.7367 22.2106 23.5861 22.2106C19.4355 22.2106 16.0586 18.8337 16.0586 14.6831C16.0586 10.5325 19.4355 7.15624 23.5861 7.15624Z" fill="#11C4E2"/>
<path d="M22.362 17.3099C22.4838 17.4318 22.6438 17.4931 22.8038 17.4931C22.9638 17.4931 23.1238 17.4318 23.2457 17.3099L27.6151 12.9406C27.8595 12.6962 27.8595 12.3012 27.6151 12.0568C27.3707 11.8124 26.9757 11.8124 26.7313 12.0568L22.8038 15.9843L20.4401 13.6206C20.1957 13.3762 19.8007 13.3762 19.5563 13.6206C19.312 13.8649 19.312 14.2599 19.5563 14.5043L22.362 17.3099Z" fill="#11C4E2"/>
</svg>
