<svg width="41" height="40" viewBox="0 0 41 40" fill="none" xmlns="http://www.w3.org/2000/svg">
<path d="M8.86816 12.1211H4.90098C4.64238 12.1211 4.43223 12.3312 4.43223 12.5898V16.557C4.43223 16.8156 4.64238 17.0258 4.90098 17.0258H8.86816C9.12676 17.0258 9.33691 16.8156 9.33691 16.557V12.5898C9.33691 12.4656 9.2877 12.3461 9.19941 12.2586C9.11191 12.1703 8.99238 12.1211 8.86816 12.1211ZM8.39941 16.0883H5.36973V13.0586H8.39941V16.0883ZM8.86816 19.143H4.90098C4.64238 19.143 4.43223 19.3531 4.43223 19.6117V23.5789C4.43223 23.8375 4.64238 24.0477 4.90098 24.0477H8.86816C9.12676 24.0477 9.33691 23.8375 9.33691 23.5789V19.6117C9.33691 19.3523 9.12754 19.143 8.86816 19.143ZM8.39941 23.1102H5.36973V20.0805H8.39941V23.1102ZM8.86816 26.1641H4.90098C4.64238 26.1641 4.43223 26.3742 4.43223 26.6328V30.6C4.43223 30.8586 4.64238 31.0687 4.90098 31.0687H8.86816C9.12676 31.0687 9.33691 30.8586 9.33691 30.6V26.6328C9.33691 26.3742 9.12754 26.1641 8.86816 26.1641ZM8.39941 30.1312H5.36973V27.1016H8.39941V30.1312ZM11.5072 13.2227C11.5072 12.9641 11.7174 12.7539 11.976 12.7539H24.8463C25.1049 12.7539 25.315 12.9641 25.315 13.2227C25.315 13.4812 25.1049 13.6914 24.8463 13.6914H11.976C11.7166 13.6914 11.5072 13.4812 11.5072 13.2227ZM11.5072 15.925C11.5072 15.6664 11.7174 15.4562 11.976 15.4562H24.8463C25.1049 15.4562 25.315 15.6664 25.315 15.925C25.315 16.1836 25.1049 16.3937 24.8463 16.3937H11.976C11.7166 16.3937 11.5072 16.1836 11.5072 15.925ZM29.933 19.3234C26.7674 19.3234 24.1924 21.8984 24.1924 25.0641C24.1924 28.2297 26.7674 30.8047 29.933 30.8047C33.0986 30.8047 35.6736 28.2297 35.6736 25.0641C35.6736 21.8984 33.0986 19.3234 29.933 19.3234ZM29.933 29.8672C27.2846 29.8672 25.1299 27.7125 25.1299 25.0641C25.1299 22.4156 27.2846 20.2609 29.933 20.2609C32.5814 20.2609 34.7361 22.4156 34.7361 25.0641C34.7361 27.7125 32.5814 29.8672 29.933 29.8672ZM37.7314 26.7703L38.3666 26.2938C38.7635 25.9961 38.9814 25.5594 38.9814 25.0641C38.9814 24.5688 38.7635 24.1312 38.3666 23.8344L37.7314 23.3578C37.5064 23.1891 37.4291 22.9016 37.54 22.6422L37.8518 21.9117C38.0463 21.4562 38.0174 20.9688 37.7697 20.5391C37.5221 20.1102 37.1143 19.8406 36.6221 19.7812L35.8338 19.6875C35.5541 19.6539 35.3439 19.4438 35.3104 19.1641L35.215 18.3758C35.1557 17.8836 34.8869 17.4766 34.4572 17.2281C34.0275 16.9797 33.5408 16.9508 33.0846 17.1453L32.3541 17.457C32.0947 17.568 31.8072 17.4906 31.6385 17.2656L31.1619 16.6305C30.8643 16.2344 30.4275 16.0156 29.9322 16.0156C29.4369 16.0156 29.0002 16.2336 28.7025 16.6305L28.4213 17.0055V1.64062C28.4213 1.38203 28.2111 1.17188 27.9525 1.17188H8.87051V1.17266C8.74863 1.17266 8.62832 1.21953 8.53926 1.30859L1.4627 8.38516C1.37285 8.475 1.32676 8.59453 1.32676 8.71641H1.3252V34.4727C1.3252 34.7313 1.53535 34.9414 1.79395 34.9414H21.7994L21.3736 35.8547C21.2986 36.0164 21.3213 36.2062 21.4322 36.3453C21.5432 36.4844 21.7244 36.5484 21.8986 36.5102L24.9018 35.8531L26.3283 38.5758C26.4096 38.7305 26.5697 38.8266 26.7432 38.8266H26.7541C26.9322 38.8227 27.0924 38.718 27.1682 38.5562L29.3018 33.9805C29.4947 34.0664 29.7072 34.1117 29.9322 34.1117C30.1572 34.1117 30.3697 34.0664 30.5627 33.9805L32.6963 38.5562C32.7713 38.718 32.9322 38.8227 33.1104 38.8266H33.1213C33.2955 38.8266 33.4557 38.7297 33.5361 38.5758L34.9635 35.8531L37.9666 36.5102C38.1408 36.5484 38.3213 36.4844 38.433 36.3453C38.5447 36.2062 38.5674 36.0156 38.4916 35.8539L35.9596 30.425L36.6205 30.3453C37.1127 30.2859 37.5197 30.0172 37.7682 29.5875C38.0158 29.1586 38.0455 28.6711 37.8502 28.2148L37.5385 27.4844C37.4291 27.2273 37.5064 26.9398 37.7314 26.7703ZM8.40176 2.77266V8.24844H2.92598L8.40176 2.77266ZM2.2627 34.0039V9.18594H8.87051C9.1291 9.18594 9.33926 8.97578 9.33926 8.71719V2.10938H27.4846V17.4461L26.7814 17.1461C26.326 16.9516 25.8385 16.9805 25.4088 17.2289C24.9799 17.4766 24.7104 17.8844 24.651 18.3766L24.5557 19.1648C24.5221 19.4445 24.3119 19.6547 24.0322 19.6883L23.3041 19.7758H11.976C11.7174 19.7758 11.5072 19.9859 11.5072 20.2445C11.5072 20.5031 11.7174 20.7133 11.976 20.7133H22.0104C21.8455 21.0977 21.8455 21.5172 22.0143 21.9133L22.2557 22.4781H11.976C11.7174 22.4781 11.5072 22.6883 11.5072 22.9469C11.5072 23.2055 11.7174 23.4156 11.976 23.4156H22.0588L21.4994 23.8352C21.1033 24.1328 20.8846 24.5695 20.8846 25.0648C20.8846 25.5602 21.1025 25.9969 21.4994 26.2945L22.1346 26.7711C22.1455 26.7789 22.1541 26.7891 22.1643 26.7969H11.976C11.7174 26.7969 11.5072 27.007 11.5072 27.2656C11.5072 27.5242 11.7174 27.7344 11.976 27.7344H22.2205L22.015 28.2164C21.8338 28.6406 21.8471 29.0922 22.0494 29.4992H11.976C11.7174 29.4992 11.5072 29.7094 11.5072 29.968C11.5072 30.2266 11.7174 30.4367 11.976 30.4367H23.9002L22.2369 34.0047H2.2627V34.0039ZM26.7189 37.3031L25.5658 35.1023C25.4674 34.9156 25.2564 34.8172 25.0502 34.8617L22.6229 35.393L24.5822 31.1906L24.6502 31.7531C24.7096 32.2453 24.9783 32.6523 25.408 32.9008C25.8377 33.1484 26.3244 33.1781 26.7807 32.9836L27.5111 32.6719C27.7705 32.5609 28.058 32.6383 28.2268 32.8633L28.5736 33.3258L26.7189 37.3031ZM34.815 34.8617C34.6088 34.8164 34.3979 34.9148 34.2994 35.1023L33.1463 37.3031L31.2916 33.3258L31.6385 32.8633C31.8072 32.6383 32.0947 32.5609 32.3541 32.6711L33.0846 32.9828C33.5408 33.1773 34.0275 33.1477 34.4564 32.9C34.8861 32.6523 35.1549 32.2445 35.2143 31.7531L35.2822 31.1906L37.2416 35.393L34.815 34.8617ZM37.1689 26.0203C36.601 26.4469 36.3986 27.2008 36.6775 27.8539L36.9893 28.5844C37.0674 28.7672 37.0564 28.9477 36.9572 29.1195C36.858 29.2922 36.7072 29.3914 36.5096 29.4148L35.7213 29.5102C35.0158 29.5953 34.4643 30.1469 34.3791 30.8523L34.2838 31.6406C34.2603 31.8383 34.1604 31.9891 33.9885 32.0883C33.8158 32.1875 33.6361 32.1984 33.4533 32.1203L32.7229 31.8086C32.0697 31.5297 31.3158 31.732 30.8893 32.3L30.4127 32.9352C30.2932 33.0945 30.1322 33.175 29.933 33.175C29.7338 33.175 29.5729 33.0945 29.4533 32.9352L28.9768 32.3C28.6783 31.9023 28.2205 31.6844 27.7486 31.6844C27.5455 31.6844 27.34 31.725 27.1432 31.8086L26.4127 32.1203C26.2299 32.1984 26.0494 32.1875 25.8775 32.0883C25.7049 31.9891 25.6057 31.8383 25.5822 31.6406L25.4869 30.8523C25.4018 30.1469 24.8502 29.5953 24.1447 29.5102L23.3564 29.4156C23.1588 29.3922 23.008 29.2922 22.9088 29.1203C22.8096 28.9477 22.7986 28.768 22.8768 28.5852L23.1885 27.8547C23.2619 27.682 23.301 27.5023 23.3104 27.3242C23.3127 27.3055 23.3143 27.2859 23.3143 27.2664C23.3143 27.2555 23.3135 27.2453 23.3127 27.2344C23.308 26.768 23.0908 26.3164 22.6979 26.0219L22.0627 25.5453C21.9033 25.4258 21.8229 25.2648 21.8229 25.0656C21.8229 24.8664 21.9033 24.7055 22.0627 24.5859L22.6979 24.1094C23.0557 23.8406 23.2682 23.4422 23.3064 23.0211C23.3104 22.9969 23.3127 22.9727 23.3127 22.9477C23.3127 22.9406 23.3119 22.9344 23.3119 22.9273C23.3182 22.7094 23.2791 22.4875 23.1893 22.2758L22.8775 21.5453C22.7994 21.3625 22.8104 21.182 22.9096 21.0102C23.0088 20.8375 23.1596 20.7383 23.3572 20.7148L24.1455 20.6195C24.851 20.5344 25.4025 19.9828 25.4877 19.2773L25.583 18.4891C25.6064 18.2914 25.7064 18.1406 25.8783 18.0414C26.051 17.9422 26.2307 17.9312 26.4135 18.0094L27.1439 18.3211C27.7971 18.6 28.551 18.3977 28.9775 17.8297L29.4541 17.1945C29.5736 17.0352 29.7346 16.9547 29.9338 16.9547C30.133 16.9547 30.2939 17.0352 30.4135 17.1945L30.89 17.8297C31.3166 18.3977 32.0705 18.6 32.7236 18.3211L33.4541 18.0094C33.6369 17.9312 33.8174 17.9422 33.99 18.0414C34.1627 18.1406 34.2619 18.2914 34.2854 18.4891L34.3807 19.2773C34.4658 19.9828 35.0174 20.5344 35.7229 20.6195L36.5111 20.7148C36.7088 20.7383 36.8596 20.8383 36.9588 21.0102C37.058 21.1828 37.0689 21.3625 36.9908 21.5453L36.6791 22.2758C36.4002 22.9289 36.6018 23.6828 37.1705 24.1094L37.8057 24.5859C37.965 24.7055 38.0455 24.8664 38.0455 25.0656C38.0455 25.2648 37.965 25.4258 37.8057 25.5453L37.1689 26.0203ZM11.9775 9.18594H24.8455C25.1041 9.18594 25.3143 8.97578 25.3143 8.71719V4.97266C25.3143 4.71406 25.1041 4.50391 24.8455 4.50391H11.9775C11.8533 4.50391 11.7338 4.55312 11.6463 4.64141C11.558 4.72969 11.5088 4.84844 11.5088 4.97266V8.71719C11.5088 8.97578 11.7189 9.18594 11.9775 9.18594ZM24.3768 5.44141V8.24844H12.4463V5.44141H24.3768ZM33.1041 23.357L29.5463 27.3922C29.4572 27.493 29.3291 27.5508 29.1947 27.5508C29.1916 27.5508 29.1877 27.5508 29.1846 27.5508C29.0463 27.5477 28.9166 27.4836 28.8299 27.3758L26.7479 24.7891C26.5854 24.5875 26.6174 24.2922 26.8189 24.1297C27.0205 23.9672 27.3158 23.9992 27.4783 24.2008L29.2111 26.3539L32.401 22.7359C32.5721 22.5414 32.8682 22.5234 33.0627 22.6945C33.2564 22.8664 33.2752 23.1625 33.1041 23.357Z" fill="#11C4E2"/>
</svg>
