<svg width="41" height="40" viewBox="0 0 41 40" fill="none" xmlns="http://www.w3.org/2000/svg">
<path fill-rule="evenodd" clip-rule="evenodd" d="M31.9516 31.798C26.3961 37.3535 17.7519 38.2492 11.2161 34.0923L11.801 35.8345C11.9176 36.182 11.6543 36.5366 11.296 36.5366C11.0743 36.5366 10.8668 36.3951 10.7919 36.173L9.6881 32.8848C9.60666 32.6135 9.74242 32.4467 9.74242 32.4346H9.7429C9.8281 32.2922 9.96698 32.2186 10.1254 32.1891L13.5635 31.7473C13.8548 31.7096 14.1219 31.9152 14.1596 32.207C14.1973 32.4987 13.9917 32.7655 13.6999 32.8022L11.6009 33.0729C17.7212 37.0906 25.9302 36.3144 31.1985 31.0452C36.7832 25.4605 37.3228 16.5719 32.4527 10.369C32.2709 10.1378 32.3113 9.80338 32.5421 9.62154C32.7733 9.44018 33.1082 9.48018 33.2899 9.71178C38.492 16.3375 37.9166 25.8322 31.9516 31.798ZM7.85474 29.6312C2.98418 23.4283 3.5233 14.5393 9.10762 8.9545C14.3768 3.68578 22.5858 2.90914 28.7061 6.9273L26.6071 7.19706C26.3157 7.23434 26.1097 7.50138 26.1474 7.79322C26.1819 8.06122 26.4104 8.2569 26.6748 8.2569L30.1811 7.81074C30.364 7.77858 30.5097 7.68418 30.5919 7.5149C30.6543 7.38618 30.6483 7.30266 30.634 7.1769L29.5154 3.82674C29.4215 3.54842 29.1199 3.39802 28.8411 3.49138C28.5623 3.58522 28.4124 3.88682 28.5054 4.16562L29.0899 5.90778C22.5746 1.76178 13.9261 2.6313 8.3557 8.20162C2.39026 14.1675 1.81482 23.6621 7.01706 30.2883C7.1221 30.4221 7.27834 30.4917 7.43634 30.4917C7.8669 30.4917 8.13162 29.9841 7.85474 29.6312ZM16.9696 21.8379C17.1183 22.0954 17.4448 22.1778 17.6964 22.0331L20.419 20.4611C20.5837 20.3659 20.6851 20.1899 20.6851 20V15.6749C20.6851 15.3809 20.4477 15.1425 20.1532 15.1425C19.8592 15.1425 19.6208 15.3809 19.6208 15.6749V19.6925L17.164 21.111C16.9103 21.2583 16.8228 21.5838 16.9696 21.8379ZM26.9827 20.0001C26.9827 20.2937 27.2211 20.532 27.5147 20.532H28.9723C29.2663 20.532 29.5047 20.2936 29.5047 20.0001C29.5047 19.7061 29.2663 19.4677 28.9723 19.4677H27.5147C27.2211 19.4677 26.9827 19.706 26.9827 20.0001ZM20.6851 27.3611C20.6851 27.0671 20.4477 26.8287 20.1532 26.8287C19.8592 26.8287 19.6208 27.0671 19.6208 27.3611V28.8183C19.6208 29.1123 19.8592 29.3507 20.1532 29.3507C20.4477 29.3507 20.6851 29.1123 20.6851 28.8183V27.3611ZM12.7922 20.532C13.0858 20.532 13.3246 20.2936 13.3246 20.0001C13.3246 19.7061 13.0858 19.4677 12.7922 19.4677H11.3346C11.041 19.4677 10.8022 19.7061 10.8022 20.0001C10.8022 20.2937 11.041 20.532 11.3346 20.532H12.7922ZM19.6208 12.6391C19.6208 12.9331 19.8592 13.171 20.1532 13.171C20.4477 13.171 20.6851 12.9331 20.6851 12.6391V11.1815C20.6851 10.8879 20.4477 10.6491 20.1532 10.6491C19.8592 10.6491 19.6208 10.8879 19.6208 11.1815V12.6391ZM20.1532 9.54074C14.3862 9.54074 9.69482 14.2331 9.69482 20.0001C9.69482 25.7671 14.3863 30.459 20.1532 30.459C25.9202 30.459 30.6121 25.7671 30.6121 20.0001C30.6121 14.2331 25.9202 9.54074 20.1532 9.54074ZM20.1532 31.5238C26.5074 31.5238 31.6769 26.3543 31.6769 20.0001C31.6769 13.6459 26.5074 8.47642 20.1532 8.47642C13.7991 8.47642 8.63002 13.6459 8.63002 20.0001C8.63002 26.3543 13.7991 31.5238 20.1532 31.5238Z" fill="#11C4E2"/>
</svg>
