<svg width="32" height="32" viewBox="0 0 32 32" fill="none" xmlns="http://www.w3.org/2000/svg">
<path d="M18.9335 11.0667C18.9335 12.68 17.6135 14 16.0002 14C14.3869 14 13.0669 12.68 13.0669 11.0667C13.0669 9.45333 14.3869 8.13333 16.0002 8.13333C17.6135 8.13333 18.9335 9.45333 18.9335 11.0667ZM25.4002 13.04C25.1469 14.2933 24.6402 15.4667 23.9069 16.52L16.5335 27.0533C16.4135 27.2267 16.2002 27.3333 15.9869 27.3333C15.7735 27.3333 15.5602 27.2267 15.4402 27.0533L8.06687 16.52C7.33354 15.4667 6.82687 14.2933 6.57354 13.04C6.02687 10.32 6.73354 7.52 8.49354 5.37333C10.2535 3.22667 12.8535 2 15.6269 2H16.3469C19.1202 2 21.7202 3.22667 23.4802 5.37333C25.2402 7.52 25.9335 10.3067 25.4002 13.04ZM20.2669 11.0667C20.2669 8.72 18.3469 6.8 16.0002 6.8C13.6535 6.8 11.7335 8.72 11.7335 11.0667C11.7335 13.4133 13.6535 15.3333 16.0002 15.3333C18.3469 15.3333 20.2669 13.4133 20.2669 11.0667ZM20.4669 23.7867L17.6402 27.8267C17.2669 28.36 16.6535 28.68 16.0002 28.68C15.3469 28.68 14.7335 28.36 14.3602 27.8267L11.5335 23.7867C9.26687 24.28 7.33354 25.2133 7.33354 26.6667C7.33354 28.8533 11.6935 30 16.0002 30C20.3069 30 24.6669 28.8533 24.6669 26.6667C24.6669 25.2 22.7202 24.28 20.4669 23.7867Z" fill="url(#paint0_linear_344_795)"/>
<defs>
<linearGradient id="paint0_linear_344_795" x1="15.9796" y1="30.0533" x2="15.9796" y2="13.1115" gradientUnits="userSpaceOnUse">
<stop stop-color="#51D9EF"/>
<stop offset="1" stop-color="#0E9AB1"/>
</linearGradient>
</defs>
</svg>
