<svg width="32" height="32" viewBox="0 0 32 32" fill="none" xmlns="http://www.w3.org/2000/svg">
<path d="M25.9999 22.4C25.9999 24.0267 25.0799 25.7067 23.7066 26.5733C22.7333 27.1867 21.7332 27.32 21.0399 27.32C20.8666 27.32 20.7066 27.32 20.5732 27.2933C11.1466 27.08 3.55992 19.4933 3.34658 10.0267C3.29325 9.42668 3.30658 8.16001 4.07992 6.93335C4.94658 5.56001 6.61325 4.64001 8.23992 4.64001H8.25325C9.14658 4.64001 9.94658 4.94668 10.0399 4.97335C10.4132 5.12001 10.7732 5.30668 11.0932 5.53335C11.2399 5.64001 11.3466 5.80001 11.3732 5.97335L12.3333 12.0267C12.3599 12.2 12.3199 12.3867 12.2132 12.52C11.7999 13.08 11.2666 13.5467 10.6532 13.88C11.2132 15.24 12.0532 16.4933 13.0932 17.5467C14.1466 18.6 15.3999 19.4267 16.7599 19.9867C17.0932 19.36 17.5599 18.8267 18.1199 18.4267C18.2666 18.32 18.4399 18.28 18.6132 18.3067L24.6666 19.2667C24.8533 19.2933 25.0133 19.4 25.1066 19.5467C25.3333 19.88 25.5199 20.2267 25.6666 20.6C25.7066 20.6933 25.9999 21.48 25.9999 22.3867V22.4ZM17.1733 5.98668C20.9333 6.70668 23.9466 9.72001 24.6799 13.4933C24.7466 13.8133 25.0266 14.04 25.3333 14.04H25.4533C25.8132 13.9733 26.0532 13.6267 25.9866 13.2533C25.1599 8.96001 21.7199 5.52001 17.4266 4.69335C17.0666 4.62668 16.7199 4.86668 16.6399 5.22668C16.5732 5.58668 16.8132 5.93335 17.1733 6.01335V5.98668ZM16.1066 9.05335C18.9999 9.40001 21.2533 11.6667 21.5999 14.5467C21.6399 14.88 21.9333 15.1333 22.2666 15.1333H22.3466C22.7066 15.0933 22.9733 14.76 22.9333 14.3867C22.5066 10.8933 19.7733 8.14668 16.2666 7.72001C15.8932 7.68001 15.5732 7.93335 15.5199 8.30668C15.4799 8.66668 15.7332 9.00001 16.1066 9.05335ZM15.0799 12.24C16.8533 12.08 18.4399 13.5067 18.4399 15.2933C18.4399 15.3867 18.4399 15.4933 18.4266 15.5867C18.3866 15.9467 18.6666 16.28 19.0266 16.3067H19.0932C19.4266 16.3067 19.7199 16.0533 19.7599 15.7067C19.7599 15.5733 19.7866 15.4267 19.7866 15.2933C19.7866 12.7333 17.5199 10.68 14.9732 10.92C14.6132 10.96 14.3332 11.28 14.3732 11.64C14.4132 12.0133 14.7332 12.28 15.0932 12.24H15.0799Z" fill="url(#paint0_linear_344_797)"/>
<defs>
<linearGradient id="paint0_linear_344_797" x1="14.6586" y1="27.3632" x2="14.6586" y2="13.6403" gradientUnits="userSpaceOnUse">
<stop stop-color="#51D9EF"/>
<stop offset="1" stop-color="#0E9AB1"/>
</linearGradient>
</defs>
</svg>
