<svg width="32" height="32" viewBox="0 0 32 32" fill="none" xmlns="http://www.w3.org/2000/svg">
<path d="M17.64 12.2266C17.64 13.0266 16.9867 13.68 16.1867 13.68H15.84C14.9333 13.68 14.2 12.9466 14.2 12.04C14.2 11.1333 14.9333 10.4133 15.84 10.4133C16.84 10.4133 17.6533 11.2266 17.6533 12.2266H17.64ZM15.5067 20.0666L2.74667 10.8933L14.72 2.38664C15.4667 1.86664 16.5333 1.86664 17.28 2.38664L29.2667 10.8933L16.52 20.0533C16.24 20.2533 15.7733 20.2533 15.5067 20.0533V20.0666ZM12.24 15.5466C13.2533 16.56 14.5867 17.1066 16.0133 17.1066C16.56 17.1066 17.1067 17.0266 17.6533 16.8533C18 16.7466 18.2 16.3733 18.0933 16.0266C17.9867 15.68 17.6133 15.48 17.2667 15.5866C15.7333 16.0533 14.2267 15.6533 13.1867 14.6133C12.4267 13.8533 12.0133 12.8533 12.0133 11.7866C12.0133 10.76 12.4533 9.71998 13.2267 8.95998C14 8.19998 15.0533 7.81331 16.0667 7.78664C18.24 7.81331 20.0133 9.61331 20.0133 11.7866C20.0133 12.3733 19.8933 12.9466 19.64 13.48C19.5067 13.76 18.9867 13.6533 18.9867 13.3333V10.2666C18.9867 9.89331 18.6933 9.59998 18.32 9.59998C18.12 9.59998 17.9467 9.69331 17.8267 9.82664C17.28 9.37331 16.6 9.09331 15.84 9.09331C14.2 9.09331 12.8667 10.4266 12.8667 12.0533C12.8667 13.68 14.2 15.0266 15.84 15.0266H16.1867C16.8933 15.0266 17.52 14.76 18.0133 14.3333C18.32 14.7333 18.7733 15.0133 19.32 15.0133C19.9733 15.0133 20.5733 14.64 20.84 14.04C21.1733 13.3333 21.3333 12.5733 21.3333 11.7866C21.3333 8.87998 18.9733 6.49331 16.0667 6.45331C14.7067 6.45331 13.2933 6.99998 12.28 8.01331C11.2667 9.02664 10.6667 10.4 10.6667 11.7866C10.6667 13.2133 11.2133 14.5466 12.2267 15.56L12.24 15.5466ZM20.0933 19.1466L29.4533 28.5066C29.8 27.9733 30.0133 27.3466 30.0133 26.6666V12.0133L20.0933 19.1466ZM17.2933 21.16C16.92 21.4266 16.4667 21.56 16.0133 21.56C15.56 21.56 15.1067 21.4266 14.7333 21.1733L13.0267 19.9466L3.50667 29.4666C4.04 29.8133 4.66667 30.0266 5.34667 30.0266H26.68C27.36 30.0266 27.9867 29.8266 28.52 29.4666L19 19.9466L17.3067 21.1733L17.2933 21.16ZM2 12.0133V26.6666C2 27.3466 2.2 27.9733 2.56 28.5066L11.92 19.1466L2 12.0133Z" fill="url(#paint0_linear_344_793)"/>
<defs>
<linearGradient id="paint0_linear_344_793" x1="16" y1="30.08" x2="16" y2="13.12" gradientUnits="userSpaceOnUse">
<stop stop-color="#51D9EF"/>
<stop offset="1" stop-color="#0E9AB1"/>
</linearGradient>
</defs>
</svg>
